<svg width="38" height="39" viewBox="0 0 38 39" fill="none" xmlns="http://www.w3.org/2000/svg">
<path fill-rule="evenodd" clip-rule="evenodd" d="M19 1.99972C28.9411 1.99972 36.9996 10.0587 36.9996 19.9999C36.9996 29.9414 28.9411 38 19 38C9.05886 38 1.00001 29.9414 1.00001 19.9999C1.00001 10.0587 9.05886 1.99972 19 1.99972Z" fill="#AAAAAA"/>
<path fill-rule="evenodd" clip-rule="evenodd" d="M19 1.99972C28.9411 1.99972 36.9996 10.0587 36.9996 19.9999C36.9996 29.9414 28.9411 38 19 38C9.05886 38 1.00001 29.9414 1.00001 19.9999C1.00001 10.0587 9.05886 1.99972 19 1.99972Z" fill="url(#paint0_linear_1_3065)"/>
<path fill-rule="evenodd" clip-rule="evenodd" d="M20.0001 15.0001C20.0001 14.4479 19.5523 14.0002 19 14.0002C18.4476 14.0002 18.0001 14.4479 18.0001 15.0001V19.0001H14C13.4477 19.0001 12.9996 19.4478 12.9996 19.9999C12.9996 20.5524 13.4477 21.0001 14 21.0001H18.0001V25.0001C18.0001 25.5522 18.4476 25.9999 19 25.9999C19.5523 25.9999 20.0001 25.5522 20.0001 25.0001V21.0001H23.9997C24.5523 21.0001 25 20.5524 25 19.9999C25 19.4478 24.5523 19.0001 23.9997 19.0001H20.0001V15.0001Z" fill="#FAFAFA" fill-opacity="0.75"/>
<defs>
<linearGradient id="paint0_linear_1_3065" x1="19" y1="-19.5" x2="-19.9868" y2="18.4872" gradientUnits="userSpaceOnUse">
<stop stop-color="#FA4A6F"/>
<stop offset="0.309052" stop-color="#EF5395"/>
<stop offset="0.75849" stop-color="#DE4DCB"/>
<stop offset="1" stop-color="#CE4CE6"/>
</linearGradient>
</defs>
</svg>
