<svg width="18" height="18" viewBox="0 0 18 18" fill="none" xmlns="http://www.w3.org/2000/svg">
<path fill-rule="evenodd" clip-rule="evenodd" d="M6.87861 2.63622C7.26911 2.24554 7.26911 1.61252 6.87861 1.22184C6.48813 0.831163 5.85515 0.831163 5.46467 1.22184L1.22177 5.4642C0.831026 5.85526 0.831026 6.4883 1.22177 6.87858C1.61225 7.26926 2.24549 7.26926 2.63599 6.87858L6.87861 2.63622ZM15.3639 2.63622C15.7544 3.02652 15.7544 3.65954 15.3639 4.05022L4.05019 15.3637C3.65971 15.7544 3.02673 15.7544 2.63599 15.3637C2.24549 14.9734 2.24549 14.34 2.63599 13.9497L13.9497 2.63622C14.3404 2.24554 14.9734 2.24554 15.3639 2.63622ZM16.7784 11.1213C17.1688 11.512 17.1688 12.145 16.7784 12.5357L12.5355 16.7781C12.145 17.1688 11.512 17.1688 11.1215 16.7781C10.7308 16.3878 10.7308 15.7544 11.1215 15.3637L15.3639 11.1213C15.7544 10.7307 16.3876 10.7307 16.7784 11.1213Z" fill="#CCCCCC"/>
</svg>
