<svg width="50" height="50" viewBox="0 0 50 50" fill="none" xmlns="http://www.w3.org/2000/svg">
<path fill-rule="evenodd" clip-rule="evenodd" d="M25 1.00125C38.254 1.00125 48.9986 11.7457 48.9986 25.0002C48.9986 38.2544 38.254 48.9989 25 48.9989C11.7459 48.9989 1.00125 38.2544 1.00125 25.0002C1.00125 11.7457 11.7459 1.00125 25 1.00125Z" fill="white"/>
<path fill-rule="evenodd" clip-rule="evenodd" d="M31.2618 20.2867L23.335 28.4596L19.732 24.7445C19.3341 24.3342 18.6888 24.3342 18.2906 24.7445C17.8927 25.1548 17.8927 25.8202 18.2906 26.2305L22.6144 30.6887C23.0123 31.0986 23.6577 31.0986 24.0556 30.6887L32.7032 21.7724C33.1012 21.3625 33.1012 20.6967 32.7032 20.2867C32.3053 19.8764 31.66 19.8764 31.2618 20.2867Z" fill="#DB50E0"/>
</svg>
