<svg width="16" height="18" viewBox="0 0 16 18" fill="none" xmlns="http://www.w3.org/2000/svg">
<path d="M12.0218 3.43323e-05H6.58921C5.78114 3.43323e-05 5.12396 0.657178 5.12396 1.46525V11.7219C5.12396 12.53 5.78114 13.1872 6.58921 13.1872H13.9154C14.7235 13.1872 15.3807 12.53 15.3807 11.7219V3.35888L12.0218 3.43323e-05ZM13.9154 11.7268H6.58434V1.47012H10.9801V4.40062H13.9105L13.9154 11.7268Z" fill="white"/>
<path d="M4.38888 2.20041H2.92365V13.9272C2.92365 14.7353 3.5808 15.3925 4.38888 15.3925H13.1803V13.9272H4.38888V2.20041Z" fill="white"/>
<path d="M2.19352 4.39578H0.728271V16.1226C0.728271 16.9307 1.38544 17.5878 2.19352 17.5878H10.985V16.1226H2.19352V4.39578Z" fill="white"/>
</svg>
