<svg width="18" height="17" viewBox="0 0 18 17" fill="none" xmlns="http://www.w3.org/2000/svg">
<path d="M17.5684 15.1453L16.7117 12.575C16.5948 12.2246 16.2687 11.9909 15.8987 11.9909H15.042V5.9985H15.8987C16.3709 5.9985 16.7555 5.61393 16.7555 5.14174V3.42822C16.7555 3.07287 16.5315 2.7516 16.2005 2.62504L9.35137 0.054764C9.15666 -0.0182547 8.94246 -0.0182547 8.75261 0.054764L1.90347 2.62504C1.56759 2.7516 1.34852 3.068 1.34852 3.42822V5.14174C1.34852 5.61393 1.73309 5.9985 2.20528 5.9985H3.06202V11.9909H2.20528C1.83532 11.9909 1.50916 12.2246 1.39233 12.575L0.535576 15.1453C0.447954 15.4082 0.491775 15.6954 0.652416 15.9193C0.813057 16.1432 1.07105 16.2747 1.34852 16.2747H16.7555C17.0281 16.2747 17.2909 16.1432 17.4516 15.9193C17.6122 15.6954 17.656 15.4082 17.5684 15.1453ZM13.3333 11.9909H11.6198V5.9985H13.3333V11.9909ZM9.91118 5.9985V11.9909H8.19768V5.9985H9.91118ZM3.06202 4.02697L9.05442 1.77799L15.0468 4.02697V4.28985H3.06202V4.02697ZM4.77554 5.9985H6.48904V11.9909H4.77554V5.9985ZM2.5363 14.5611L2.8235 13.7044H15.2854L15.5726 14.5611H2.5363Z" fill="white"/>
</svg>
