<svg width="23" height="23" viewBox="0 0 23 23" fill="none" xmlns="http://www.w3.org/2000/svg">
<path fill-rule="evenodd" clip-rule="evenodd" d="M2.99978 -0.000244141H6.99991C8.6569 -0.000244141 9.99993 1.34284 9.99993 2.99997V19.9999C9.99993 21.6566 8.6569 23.0001 6.99991 23.0001H2.99978C1.34306 23.0001 -0.000244141 21.6566 -0.000244141 19.9999V2.99997C-0.000244141 1.34284 1.34306 -0.000244141 2.99978 -0.000244141ZM13.9998 13H21.9998C22.5522 13 22.9999 13.4477 22.9999 13.9998C22.9999 14.5523 22.5522 15 21.9998 15H13.9998C13.4475 15 13 14.5523 13 13.9998C13 13.4477 13.4475 13 13.9998 13ZM13.9998 16.9997H21.9998C22.5522 16.9997 22.9999 17.4473 22.9999 18.0002C22.9999 18.552 22.5522 18.9997 21.9998 18.9997H13.9998C13.4475 18.9997 13 18.552 13 18.0002C13 17.4473 13.4475 16.9997 13.9998 16.9997ZM21.9998 21.0001H13.9998C13.4475 21.0001 13 21.4478 13 22.0002C13 22.552 13.4475 23.0001 13.9998 23.0001H21.9998C22.5522 23.0001 22.9999 22.552 22.9999 22.0002C22.9999 21.4478 22.5522 21.0001 21.9998 21.0001ZM19.9999 -0.000244141H16C14.343 -0.000244141 13 1.34284 13 2.99997V6.99999C13 8.65671 14.343 9.9998 16 9.9998H19.9999C21.6563 9.9998 22.9999 8.65671 22.9999 6.99999V2.99997C22.9999 1.34284 21.6563 -0.000244141 19.9999 -0.000244141ZM2.99978 1.99975H6.99991C7.55225 1.99975 7.9995 2.44747 7.9995 2.99997V19.9999C7.9995 20.5524 7.55225 21.0001 6.99991 21.0001H2.99978C2.44747 21.0001 1.99994 20.5524 1.99994 19.9999V2.99997C1.99994 2.44747 2.44747 1.99975 2.99978 1.99975ZM19.9999 1.99975H16C15.4474 1.99975 14.9999 2.44747 14.9999 2.99997V6.99999C14.9999 7.55247 15.4474 8.00018 16 8.00018H19.9999C20.5522 8.00018 21 7.55247 21 6.99999V2.99997C21 2.44747 20.5522 1.99975 19.9999 1.99975Z" fill="white"/>
</svg>
