<svg width="22" height="23" viewBox="0 0 22 23" fill="none" xmlns="http://www.w3.org/2000/svg">
<path fill-rule="evenodd" clip-rule="evenodd" d="M11.1151 -6.10352e-05H10.8855C10.2527 -6.10352e-05 9.7397 0.51275 9.7397 1.14579V7.85319C9.7397 8.48582 10.2527 8.99866 10.8855 8.99866H11.1151C11.7478 8.99866 12.2606 8.48582 12.2606 7.85319V1.14579C12.2606 0.51275 11.7478 -6.10352e-05 11.1151 -6.10352e-05ZM0 12.3337C0 7.85749 2.84378 4.02514 6.87505 2.4428V4.91121C4.14624 6.33115 2.29175 9.11609 2.29175 12.3194C2.29175 16.9636 6.19042 20.7286 11 20.7286C15.8096 20.7286 19.7085 16.9636 19.7085 12.3194C19.7085 9.11616 17.854 6.33128 15.1253 4.91131V2.44286C19.1565 4.02523 22 7.85754 22 12.3337C22 18.2247 17.0753 23.0003 11 23.0003C4.92495 23.0003 0 18.2247 0 12.3337Z" fill="white"/>
</svg>
