<svg width="21" height="16" viewBox="0 0 21 16" fill="none" xmlns="http://www.w3.org/2000/svg">
<path fill-rule="evenodd" clip-rule="evenodd" d="M13.9997 -0.000244141H2.99993C1.89552 -0.000244141 0.999989 0.895156 0.999989 2.00016V8.9688C0.999989 9.02374 1.0022 9.07818 1.00655 9.13201L0.997925 9.131V12.7835L1.06194 12.851C1.02204 12.9497 0.999989 13.0581 0.999989 13.1719C0.999989 13.6292 1.35632 13.9998 1.79662 13.9998C1.9018 13.9998 2.00224 13.9787 2.0942 13.9402L2.15218 14.0014L5.02594 10.9688H13.9997C15.1041 10.9688 15.9999 10.0734 15.9999 8.9688V2.00016C15.9999 0.895156 15.1041 -0.000244141 13.9997 -0.000244141ZM14.1256 1.99862H2.87328V10.3339L4.12359 9.0004H14.1256V1.99862ZM19.8749 6.65632H20.2497C20.6641 6.65632 20.9999 6.9919 20.9999 7.40608V14.75V15.2497C20.9999 15.6639 20.6641 16.0002 20.2497 16.0002H19.8749H8.62467C8.21081 16.0002 7.87479 15.6639 7.87479 15.2497V14.75C7.87479 14.3358 8.21081 13.9998 8.62467 13.9998H19.1248V7.40608C19.1248 6.9919 19.4608 6.65632 19.8749 6.65632Z" fill="#AAAAAA"/>
</svg>
