<svg width="17" height="18" viewBox="0 0 17 18" fill="none" xmlns="http://www.w3.org/2000/svg">
<path fill-rule="evenodd" clip-rule="evenodd" d="M15.9264 15.866C16.5126 15.866 16.9881 15.3906 16.9881 14.8042C16.9881 14.6335 16.9475 14.4717 16.8761 14.3291L14.8646 10.306V7.3705C14.8646 3.85132 12.0123 0.998657 8.4941 0.998657C4.97644 0.998657 2.12413 3.85132 2.12413 7.3705V10.306L0.112615 14.3291C0.0409473 14.4717 0.000610352 14.6335 0.000610352 14.8042C0.000610352 15.3906 0.475876 15.866 1.0621 15.866H6.37061C6.37061 17.0388 7.32112 17.9897 8.4941 17.9897C9.66711 17.9897 10.6181 17.0388 10.6181 15.866H15.9264ZM4.10248 11.0681H4.09091L2.51821 13.8995H14.4718L12.8989 11.0681H12.8973V7.6113H12.8855C12.8933 7.50405 12.8973 7.39574 12.8973 7.2865C12.8973 4.85768 10.9285 2.88888 8.49977 2.88888C6.07081 2.88888 4.10248 4.85768 4.10248 7.2865C4.10248 7.39574 4.10647 7.50405 4.11429 7.6113H4.10248V11.0681Z" fill="#AAAAAA"/>
</svg>
