<svg width="16" height="16" viewBox="0 0 16 16" fill="none" xmlns="http://www.w3.org/2000/svg">
<path d="M14.4528 1.44579H12.2866V0H10.8408V4.33733H12.2866V2.89154H14.4528V13.7275H1.44577V2.89154H2.89154V1.44579H1.44577C0.647433 1.44579 0 2.0932 0 2.89154V13.7275C0 14.5259 0.647433 15.1733 1.44577 15.1733H14.4528C15.2512 15.1733 15.8986 14.5259 15.8986 13.7275V2.89154C15.8986 2.0932 15.2512 1.44579 14.4528 1.44579Z" fill="white"/>
<path d="M5.16281 2.89154H10.2206V1.44579H5.16281V0H3.71704V4.33733H5.16281V2.89154Z" fill="white"/>
<path d="M5.88837 5.78284H2.99683V8.67438H5.88837V5.78284Z" fill="#DCDDDE"/>
<path d="M9.50043 5.78284H6.60889V8.67438H9.50043V5.78284Z" fill="white"/>
<path d="M13.1122 5.78284H10.2207V8.67438H13.1122V5.78284Z" fill="#DCDDDE"/>
<path d="M5.88837 9.39478H2.99683V12.2863H5.88837V9.39478Z" fill="white"/>
<path d="M9.50043 9.39478H6.60889V12.2863H9.50043V9.39478Z" fill="#DCDDDE"/>
</svg>
