<svg width="15" height="16" viewBox="0 0 15 16" fill="none" xmlns="http://www.w3.org/2000/svg">
<path d="M14.9195 14.4242L10.8743 10.3936C11.7018 9.33723 12.1545 8.04236 12.1496 6.67935C12.1448 5.06807 11.5168 3.55902 10.3777 2.4248C9.23863 1.29057 7.7247 0.66748 6.11342 0.66748C4.50701 0.672348 2.99309 1.30031 1.85887 2.4394C0.724648 3.57849 0.101562 5.09241 0.101562 6.70369C0.101562 8.31497 0.734398 9.82402 1.87349 10.9582C3.01258 12.0925 4.52651 12.7156 6.13778 12.7156C7.48133 12.7107 8.75671 12.2677 9.80331 11.4548L13.8534 15.4903L14.9195 14.4242ZM2.93956 9.89217C2.08281 9.04029 1.6106 7.90606 1.6106 6.70369C1.60574 5.49645 2.07306 4.36223 2.92495 3.50547C3.77683 2.64872 4.91105 2.17653 6.11342 2.17653C7.32066 2.17166 8.45489 2.63898 9.31164 3.49574C10.1684 4.34762 10.6406 5.47698 10.6406 6.68422C10.6455 7.89146 10.1781 9.02568 9.32626 9.88243C8.47438 10.7392 7.34016 11.2114 6.13778 11.2114C4.93541 11.2114 3.79632 10.7441 2.93956 9.89217Z" fill="#A5ADC6"/>
</svg>
