<svg width="24" height="25" viewBox="0 0 24 25" fill="none" xmlns="http://www.w3.org/2000/svg">
<path fill-rule="evenodd" clip-rule="evenodd" d="M-0.000244141 3.28287L2.24786 0.995056L6.21435 4.2249L6.61098 6.2434L10.0493 9.60733L8.66076 11.0198L5.35477 7.52139L3.30577 7.18505L-0.000244141 3.28287ZM17.255 7.92517L16.9906 4.56124L19.9709 1.52874C19.5664 1.42355 19.1424 1.36763 18.7057 1.36763C15.8916 1.36763 13.6104 3.68974 13.6104 6.55355C13.6104 7.18635 13.7218 7.79268 13.9257 8.35334L1.58663 20.91L1.65237 22.5922L4.62723 24.005L16.9802 11.4342C17.5191 11.6316 18.1 11.7391 18.7057 11.7391C21.5202 11.7391 23.8017 9.41738 23.8017 6.55355C23.8017 6.08794 23.7414 5.63665 23.6283 5.20733L20.6272 8.26151L17.3875 8.06001L17.255 7.92517ZM17.0566 14.1822L14.4124 19.1608L19.1061 23.9376L22.4122 22.1884L22.8751 20.1028L17.0566 14.1822Z" fill="white"/>
</svg>
