<svg width="27" height="25" viewBox="0 0 27 25" fill="none" xmlns="http://www.w3.org/2000/svg">
<path fill-rule="evenodd" clip-rule="evenodd" d="M17.7095 1.02969L1.75626 5.76213C1.20576 5.92588 0.878463 6.55271 1.02619 7.16225C1.0444 7.23748 1.069 7.30894 1.09916 7.37611C1.03479 7.57238 0.999973 7.78206 0.999973 7.99987V22.9997C0.999973 24.1043 1.89552 25.0001 2.9999 25.0001H23C24.1049 25.0001 25 24.1043 25 22.9997V19.8292C26.1649 19.4174 26.9996 18.3062 26.9996 17.0001V14.0003C26.9996 12.6939 26.1649 11.5826 25 11.1708V7.99987C25 6.89524 24.1049 5.99985 23 5.99985H8.93213L18.2439 3.23735C18.7944 3.07399 19.1214 2.44713 18.9734 1.83799C18.826 1.22849 18.2603 0.866306 17.7095 1.02969ZM23 7.99987V11.0001H18.0001C16.3434 11.0001 15 12.3432 15 14.0003V17.0001C15 18.6568 16.3434 19.9999 18.0001 19.9999H23V22.9997H2.9999V7.99987H23ZM24.0001 12.9997H18.0001C17.448 12.9997 17 13.4474 17 14.0003V17.0001C17 17.5522 17.448 17.9999 18.0001 17.9999H24.0001C24.5525 17.9999 25 17.5522 25 17.0001V14.0003C25 13.4474 24.5525 12.9997 24.0001 12.9997ZM19.5001 14.0003C20.3286 14.0003 21.0001 14.6718 21.0001 15.4998C21.0001 16.3286 20.3286 17.0001 19.5001 17.0001C18.6716 17.0001 18.0001 16.3286 18.0001 15.4998C18.0001 14.6718 18.6716 14.0003 19.5001 14.0003Z" fill="white"/>
</svg>
