<svg width="59" height="59" viewBox="0 0 59 59" fill="none" xmlns="http://www.w3.org/2000/svg">
<g id="&#240;&#159;&#166;&#134; icon &#34;biology&#34;">
<g id="Group">
<path id="Vector" d="M39.1402 1C29.6087 10.5315 48.4719 29.409 38.9405 38.9405C29.409 48.4719 10.5315 29.5374 1 39.1402" stroke="white" stroke-width="2" stroke-linecap="round" stroke-linejoin="round"/>
<path id="Vector_2" d="M57.9993 19.874C48.4678 29.4055 29.6046 10.528 20.0731 20.0595C10.5417 29.5909 29.4619 48.4684 19.8734 57.9999" stroke="white" stroke-width="2" stroke-linecap="round" stroke-linejoin="round"/>
<path id="Vector_3" d="M58.0021 19.8795C48.4706 29.411 29.5931 10.5478 20.0616 20.0793" stroke="white" stroke-width="2" stroke-linecap="round" stroke-linejoin="round"/>
<path id="Vector_4" d="M36.604 33.8208L22.3353 19.5521" stroke="white" stroke-width="2" stroke-linecap="round" stroke-linejoin="round"/>
<path id="Vector_5" d="M36.6009 25.2545L29.4666 18.1202" stroke="white" stroke-width="2" stroke-linecap="round" stroke-linejoin="round"/>
<path id="Vector_6" d="M48.0136 22.4049L40.8793 15.2705" stroke="white" stroke-width="2" stroke-linecap="round" stroke-linejoin="round"/>
<path id="Vector_7" d="M55.1449 20.9731L42.3031 8.13123" stroke="white" stroke-width="2" stroke-linecap="round" stroke-linejoin="round"/>
<path id="Vector_8" d="M10.9144 36.6723L18.0488 43.8066" stroke="white" stroke-width="2" stroke-linecap="round" stroke-linejoin="round"/>
<path id="Vector_9" d="M3.7832 38.0961L16.625 50.9379" stroke="white" stroke-width="2" stroke-linecap="round" stroke-linejoin="round"/>
<path id="Vector_10" d="M30.8955 38.1013L18.0537 25.2595" stroke="white" stroke-width="2" stroke-linecap="round" stroke-linejoin="round"/>
</g>
</g>
</svg>
