<svg width="34" height="56" viewBox="0 0 34 56" fill="none" xmlns="http://www.w3.org/2000/svg">
<g id="&#240;&#159;&#166;&#134; icon &#34;chemistry&#34;">
<path id="Vector" d="M33.2356 53.0924L23.9644 42.1202V22.8867H25.124C26.0851 22.8867 26.8651 22.1085 26.8651 21.1456C26.8651 20.1828 26.0851 19.4046 25.124 19.4046H22.2234C21.2623 19.4046 20.4823 20.1828 20.4823 21.1456V42.7905C20.4823 43.2223 20.6425 43.6367 20.9315 43.9571L28.0246 52.5179H5.97404L13.0671 43.9571C13.3561 43.6384 13.5163 43.2223 13.5163 42.7905V21.1456C13.5163 20.1828 12.7381 19.4046 11.7753 19.4046H8.87465C7.91184 19.4046 7.13358 20.1828 7.13358 21.1456C7.13358 22.1085 7.91184 22.8867 8.87465 22.8867H10.0342V42.1202L0.763033 53.0924C0.303392 53.6026 0.184999 54.3373 0.463569 54.9658C0.742139 55.5943 1.36718 56 2.0549 56H31.9437C32.6315 56 33.2548 55.5943 33.5351 54.9658C33.8136 54.3373 33.697 53.6026 33.2356 53.0924ZM15.2574 17.6705C17.176 17.6705 18.7308 16.1157 18.7308 14.1971C18.7308 12.2802 17.176 10.7254 15.2574 10.7254C13.3387 10.7254 11.784 12.2819 11.784 14.1971C11.784 16.1157 13.3387 17.6705 15.2574 17.6705ZM26.6004 12.5013C29.9937 12.5013 32.7446 9.76257 32.7446 6.38491C32.7446 3.00725 29.9955 0.268555 26.6004 0.268555C23.2088 0.268555 20.4562 3.00725 20.4562 6.38491C20.4562 9.76257 23.2088 12.5013 26.6004 12.5013ZM26.5726 3.74024C28.0229 3.74024 29.2033 4.91545 29.2033 6.3588C29.2033 7.80214 28.0246 8.97736 26.5726 8.97736C25.1205 8.97736 23.9418 7.80214 23.9418 6.3588C23.9418 4.91545 25.1205 3.74024 26.5726 3.74024Z" fill="white"/>
</g>
</svg>
