<svg width="103" height="103" viewBox="0 0 103 103" fill="none" xmlns="http://www.w3.org/2000/svg">
<circle cx="51.5" cy="51.5" r="46.5" stroke="#C53737" stroke-width="10"/>
<mask id="path-2-inside-1_8_7" fill="white">
<path d="M51.5 7.15337C51.5 3.20267 54.7179 -0.0510101 58.6305 0.496C65.5025 1.45674 72.1349 3.80007 78.1171 7.41166C86.1487 12.2605 92.7032 19.2113 97.0729 27.5133C101.443 35.8154 103.461 45.1534 102.911 54.5191C102.361 63.8848 99.2635 72.9224 93.9521 80.6559C88.6407 88.3895 81.3177 94.5253 72.7737 98.4007C64.2297 102.276 54.7894 103.744 45.4721 102.646C36.1547 101.548 27.3144 97.9255 19.9055 92.1698C14.3871 87.8829 9.81906 82.5338 6.45545 76.4648C4.54033 73.0093 6.42197 68.8379 10.1093 67.4197V67.4197C13.7967 66.0014 17.8812 67.8929 19.9782 71.2411C22.2829 74.9212 25.2243 78.1852 28.6825 80.8717C34.0332 85.0284 40.4177 87.6445 47.1467 88.4376C53.8756 89.2307 60.6934 88.1705 66.8639 85.3717C73.0343 82.5728 78.323 78.1416 82.1589 72.5564C85.9947 66.9712 88.2321 60.4443 88.6293 53.6804C89.0265 46.9165 87.5685 40.1726 84.4127 34.1769C81.2569 28.1811 76.5233 23.1613 70.7228 19.6594C66.974 17.3962 62.8716 15.8226 58.6095 14.9925C54.7316 14.2374 51.5 11.1041 51.5 7.15337V7.15337Z"/>
</mask>
<path d="M51.5 7.15337C51.5 3.20267 54.7179 -0.0510101 58.6305 0.496C65.5025 1.45674 72.1349 3.80007 78.1171 7.41166C86.1487 12.2605 92.7032 19.2113 97.0729 27.5133C101.443 35.8154 103.461 45.1534 102.911 54.5191C102.361 63.8848 99.2635 72.9224 93.9521 80.6559C88.6407 88.3895 81.3177 94.5253 72.7737 98.4007C64.2297 102.276 54.7894 103.744 45.4721 102.646C36.1547 101.548 27.3144 97.9255 19.9055 92.1698C14.3871 87.8829 9.81906 82.5338 6.45545 76.4648C4.54033 73.0093 6.42197 68.8379 10.1093 67.4197V67.4197C13.7967 66.0014 17.8812 67.8929 19.9782 71.2411C22.2829 74.9212 25.2243 78.1852 28.6825 80.8717C34.0332 85.0284 40.4177 87.6445 47.1467 88.4376C53.8756 89.2307 60.6934 88.1705 66.8639 85.3717C73.0343 82.5728 78.323 78.1416 82.1589 72.5564C85.9947 66.9712 88.2321 60.4443 88.6293 53.6804C89.0265 46.9165 87.5685 40.1726 84.4127 34.1769C81.2569 28.1811 76.5233 23.1613 70.7228 19.6594C66.974 17.3962 62.8716 15.8226 58.6095 14.9925C54.7316 14.2374 51.5 11.1041 51.5 7.15337V7.15337Z" stroke="#5DCD36" stroke-width="20" mask="url(#path-2-inside-1_8_7)"/>
</svg>
