<svg width="72" height="72" viewBox="0 0 72 72" fill="none" xmlns="http://www.w3.org/2000/svg">
<circle cx="36" cy="36" r="31" stroke="white" stroke-opacity="0.3" stroke-width="10"/>
<mask id="path-2-inside-1_1_5" fill="white">
<path d="M36 5.00042C36 2.23876 38.2494 -0.0356576 40.9844 0.346718C45.7881 1.0183 50.4244 2.65636 54.6061 5.18097C60.2205 8.57047 64.8023 13.4292 67.8568 19.2326C70.9113 25.036 72.3226 31.5636 71.9381 38.1105C71.5536 44.6574 69.3881 50.9749 65.6753 56.3809C61.9624 61.7868 56.8434 66.0759 50.871 68.785C44.8985 71.494 38.2994 72.5202 31.7863 71.7526C25.2732 70.9849 19.0935 68.4528 13.9145 64.4294C10.057 61.4327 6.86381 57.6935 4.51254 53.4511C3.17382 51.0356 4.48915 48.1197 7.06672 47.1283V47.1283C9.64429 46.1369 12.4995 47.4591 13.9653 49.7996C15.5764 52.3721 17.6325 54.6538 20.0499 56.5317C23.7902 59.4373 28.2531 61.2661 32.9569 61.8205C37.6606 62.3748 42.4265 61.6338 46.7398 59.6773C51.0531 57.7208 54.7501 54.6232 57.4314 50.719C60.1128 46.8148 61.6768 42.2523 61.9545 37.5242C62.2321 32.796 61.2129 28.0818 59.0069 23.8906C56.801 19.6994 53.492 16.1904 49.4373 13.7425C46.8168 12.1604 43.9491 11.0604 40.9697 10.4802C38.259 9.95233 36 7.76207 36 5.00042V5.00042Z"/>
</mask>
<path d="M36 5.00042C36 2.23876 38.2494 -0.0356576 40.9844 0.346718C45.7881 1.0183 50.4244 2.65636 54.6061 5.18097C60.2205 8.57047 64.8023 13.4292 67.8568 19.2326C70.9113 25.036 72.3226 31.5636 71.9381 38.1105C71.5536 44.6574 69.3881 50.9749 65.6753 56.3809C61.9624 61.7868 56.8434 66.0759 50.871 68.785C44.8985 71.494 38.2994 72.5202 31.7863 71.7526C25.2732 70.9849 19.0935 68.4528 13.9145 64.4294C10.057 61.4327 6.86381 57.6935 4.51254 53.4511C3.17382 51.0356 4.48915 48.1197 7.06672 47.1283V47.1283C9.64429 46.1369 12.4995 47.4591 13.9653 49.7996C15.5764 52.3721 17.6325 54.6538 20.0499 56.5317C23.7902 59.4373 28.2531 61.2661 32.9569 61.8205C37.6606 62.3748 42.4265 61.6338 46.7398 59.6773C51.0531 57.7208 54.7501 54.6232 57.4314 50.719C60.1128 46.8148 61.6768 42.2523 61.9545 37.5242C62.2321 32.796 61.2129 28.0818 59.0069 23.8906C56.801 19.6994 53.492 16.1904 49.4373 13.7425C46.8168 12.1604 43.9491 11.0604 40.9697 10.4802C38.259 9.95233 36 7.76207 36 5.00042V5.00042Z" stroke="white" stroke-width="20" mask="url(#path-2-inside-1_1_5)"/>
</svg>
