<svg width="184" height="108" viewBox="0 0 184 108" fill="none" xmlns="http://www.w3.org/2000/svg">
<path id="Vector" d="M52.9519 76.7034L52.5175 76.951L52.6283 77.1455L52.8472 77.1923L52.9519 76.7034ZM52.9519 76.7034C52.8472 77.1923 52.8476 77.1924 52.8483 77.1926L52.8514 77.1932L52.863 77.1957L52.9084 77.2053C52.9241 77.2086 52.9428 77.2125 52.9644 77.217C52.998 77.224 53.0387 77.2325 53.0863 77.2423C53.2432 77.2747 53.4757 77.3221 53.7798 77.3823C54.3879 77.5029 55.2819 77.675 56.4281 77.8818C58.7203 78.2954 62.0212 78.848 66.0597 79.4043C74.1352 80.5169 85.1662 81.6457 96.9812 81.7083C108.793 81.7709 121.409 80.7682 132.647 77.6063C143.882 74.4452 153.787 69.112 160.107 60.478C185.186 26.2145 177.741 -21.8926 143.478 -46.9722C109.214 -72.0519 61.1073 -64.6069 36.0277 -30.3434C29.7079 -21.7093 27.6182 -10.6558 28.0011 1.00918C28.3841 12.677 31.2419 25.0064 34.872 36.2466C38.5031 47.49 42.9135 57.6638 46.4151 65.0252C48.1662 68.7066 49.6906 71.6861 50.7778 73.746C51.3214 74.776 51.7558 75.5762 52.0545 76.1195C52.2038 76.3911 52.3193 76.5984 52.3975 76.7381C52.4367 76.808 52.4665 76.861 52.4866 76.8966L52.5095 76.9369L52.5153 76.9473L52.5169 76.95C52.5172 76.9506 52.5175 76.951 52.9519 76.7034ZM68.3968 55.6028L67.9624 55.8503L68.0732 56.0448L68.2921 56.0917L68.3968 55.6028ZM68.3968 55.6028C68.2921 56.0917 68.2924 56.0918 68.2929 56.0919L68.295 56.0923L68.3028 56.094L68.3329 56.1003L68.4506 56.1248C68.5542 56.1462 68.7076 56.1774 68.908 56.2172C69.3088 56.2966 69.8977 56.41 70.6525 56.5462C72.162 56.8186 74.3353 57.1824 76.9938 57.5486C82.3097 58.281 89.5721 59.0242 97.3521 59.0654C105.129 59.1066 113.444 58.4467 120.855 56.3613C128.264 54.2767 134.819 50.7537 139.006 45.0331C155.556 22.4232 150.643 -9.32195 128.033 -25.8716C105.423 -42.4212 73.678 -37.5084 57.1283 -14.8985C52.941 -9.17783 51.5641 -1.86508 51.8166 5.8275C52.0692 13.5229 53.9535 21.6483 56.3435 29.0486C58.7345 36.4522 61.6383 43.1503 63.9432 47.9961C65.096 50.4195 66.0997 52.3811 66.8156 53.7377C67.1736 54.416 67.4597 54.9432 67.6566 55.3012C67.755 55.4802 67.8312 55.617 67.8829 55.7093L67.9418 55.814L67.957 55.8408L67.9609 55.8478L67.9619 55.8496C67.9622 55.8501 67.9624 55.8503 68.3968 55.6028ZM53.2884 76.263C53.2843 76.2621 53.2802 76.2613 53.2761 76.2604C53.2741 76.2568 53.2721 76.2532 53.27 76.2495C53.193 76.1119 53.0788 75.9069 52.9307 75.6376C52.6346 75.0991 52.203 74.3039 51.6622 73.2793C50.5806 71.2299 49.0625 68.2629 47.3181 64.5957C43.8289 57.2601 39.4372 47.1286 35.8236 35.9393C32.2089 24.7467 29.3793 12.5158 29.0006 0.976381C28.6217 -10.5658 30.6961 -21.3664 36.8346 -29.7527C61.588 -63.5706 109.069 -70.9187 142.887 -46.1653C176.705 -21.4119 184.053 26.0695 159.3 59.8874C153.161 68.2737 143.493 73.5158 132.376 76.6437C121.262 79.7707 108.748 80.7706 96.9865 80.7083C85.2283 80.646 74.2433 79.5224 66.1961 78.4137C62.1732 77.8595 58.8861 77.3092 56.6057 76.8977C55.4655 76.6919 54.577 76.5209 53.9742 76.4014C53.6728 76.3417 53.4428 76.2948 53.2884 76.263ZM68.8515 55.186C68.8032 55.1763 68.7597 55.1674 68.7212 55.1595C68.6732 55.0735 68.6101 54.9598 68.5328 54.8194C68.3385 54.466 68.0552 53.9439 67.7 53.271C66.9896 51.925 65.9923 49.9759 64.8463 47.5665C62.5536 42.7466 59.6687 36.0908 57.2951 28.7413C54.9205 21.3886 53.0644 13.3617 52.8161 5.79469C52.5676 -1.77514 53.9293 -8.8349 57.9352 -14.3078C74.1587 -36.4721 105.278 -41.2881 127.442 -25.0647C149.607 -8.84122 154.423 22.2782 138.199 44.4425C134.193 49.9154 127.875 53.3473 120.585 55.3987C113.296 57.4493 105.084 58.1064 97.3574 58.0655C89.6343 58.0245 82.4177 57.2864 77.1303 56.558C74.4873 56.1939 72.3278 55.8324 70.8301 55.5621C70.0813 55.427 69.498 55.3147 69.1024 55.2362C69.008 55.2175 68.9242 55.2007 68.8515 55.186ZM82.5944 35.8603L82.7052 36.0548L82.9241 36.1016L82.9448 36.0053C82.9243 36.1017 82.9244 36.1017 82.9246 36.1017L82.9258 36.102L82.93 36.1029L82.9457 36.1062L83.0062 36.1188C83.0593 36.1297 83.1377 36.1457 83.2399 36.166C83.4444 36.2065 83.7443 36.2642 84.1283 36.3335C84.8963 36.4721 86.0012 36.657 87.3525 36.8432C90.0539 37.2154 93.7462 37.5933 97.7035 37.6143C101.657 37.6353 105.897 37.3001 109.684 36.2345C113.469 35.1697 116.849 33.3617 119.016 30.4011C127.485 18.8314 124.971 2.5871 113.401 -5.88151C101.831 -14.3501 85.587 -11.8362 77.1184 -0.266454C74.9514 2.69412 74.2497 6.46297 74.3787 10.3922C74.5078 14.3243 75.4698 18.4669 76.685 22.2295C77.9011 25.9954 79.3775 29.4007 80.5488 31.8632C81.1348 33.095 81.645 34.0923 82.0093 34.7825C82.1914 35.1276 82.3371 35.396 82.4376 35.5786C82.4534 35.6075 82.4682 35.6343 82.4818 35.6589C82.5112 35.7119 82.5351 35.7548 82.5532 35.7872L82.5835 35.8411L82.5914 35.855L82.5935 35.8588L82.5941 35.8598C82.5943 35.8601 82.5944 35.8603 83.0288 35.6127L82.5944 35.8603ZM83.4344 35.185C83.4054 35.1793 83.3785 35.1739 83.3536 35.1689C83.3413 35.1467 83.328 35.1227 83.3138 35.0968C83.216 34.9189 83.073 34.6555 82.8937 34.3157C82.535 33.6361 82.0311 32.6513 81.4519 31.4336C80.2929 28.997 78.8353 25.634 77.6365 21.9222C76.4368 18.2072 75.503 14.1631 75.3782 10.3594C75.2532 6.55291 75.9396 3.03706 77.9253 0.32419C86.0677 -10.7999 101.686 -13.217 112.81 -5.07458C123.934 3.06782 126.352 18.6864 118.209 29.8105C116.223 32.5233 113.08 34.2404 109.413 35.2719C105.75 36.3026 101.613 36.635 97.7088 36.6143C93.8083 36.5937 90.1619 36.2208 87.489 35.8526C86.1532 35.6685 85.0621 35.4859 84.3059 35.3494C83.9278 35.2812 83.6336 35.2245 83.4344 35.185ZM12.4023 -47.6363C47.0325 -94.9477 113.459 -105.228 160.771 -70.5976C208.082 -35.9674 218.362 30.4595 183.732 77.7709C175.125 89.5306 161.577 96.8688 146.03 101.243C130.486 105.617 112.991 107.013 96.5571 106.926C80.1267 106.839 64.7781 105.269 53.5355 103.72C47.9148 102.946 43.322 102.177 40.1353 101.602C38.5419 101.315 37.3002 101.075 36.4574 100.908C36.0359 100.825 35.7143 100.759 35.4982 100.715C35.4596 100.707 35.4243 100.7 35.3925 100.693C35.3765 100.665 35.3589 100.633 35.3396 100.599C35.2318 100.406 35.0721 100.119 34.8651 99.743C34.4511 98.99 33.8479 97.8787 33.0922 96.4468C31.5807 93.5829 29.4595 89.4374 27.0224 84.3137C22.1476 74.0652 16.0114 59.9092 10.9618 44.2738C5.91127 28.635 1.95442 11.5363 1.4247 -4.60271C0.894887 -20.7446 3.7946 -35.8766 12.4023 -47.6363Z" stroke="url(#paint0_linear_0_296)"/>
<defs>
<linearGradient id="paint0_linear_0_296" x1="5.21478" y1="79.8729" x2="157.914" y2="-74.1269" gradientUnits="userSpaceOnUse">
<stop stop-color="white" stop-opacity="0.05"/>
<stop offset="1" stop-color="white" stop-opacity="0.01"/>
</linearGradient>
</defs>
</svg>
