<svg width="169" height="131" viewBox="0 0 169 131" fill="none" xmlns="http://www.w3.org/2000/svg">
<path id="Vector" d="M52.3721 -36.8983C70.4184 -53.7006 98.3813 -53.7006 116.428 -36.8983C121.746 -31.9464 128.12 -28.2668 135.067 -26.1367C158.642 -18.9093 172.623 5.30732 167.095 29.3371C165.466 36.4189 165.466 43.7783 167.095 50.8601C172.623 74.8899 158.642 99.1065 135.067 106.334C128.12 108.464 121.746 112.144 116.428 117.095C98.3813 133.898 70.4184 133.898 52.3721 117.095C47.0536 112.144 40.6802 108.464 33.7325 106.334C10.1581 99.1065 -3.82334 74.8899 1.70472 50.8601C3.33391 43.7783 3.33391 36.4189 1.70472 29.3371C-3.82334 5.30732 10.1581 -18.9093 33.7325 -26.1367C40.6802 -28.2668 47.0536 -31.9464 52.3721 -36.8983ZM62.4509 -12.8093C74.8182 -24.3241 93.9815 -24.3241 106.349 -12.8093C110.029 -9.38324 114.438 -6.8374 119.245 -5.36372C135.401 -0.410683 144.982 16.1852 141.194 32.653C140.067 37.5527 140.067 42.6444 141.194 47.5441C144.982 64.012 135.401 80.6079 119.245 85.5609C114.438 87.0346 110.029 89.5804 106.349 93.0064C93.9815 104.521 74.8182 104.521 62.4509 93.0064C58.7712 89.5804 54.3617 87.0346 49.5548 85.5609C33.399 80.6079 23.8174 64.012 27.6058 47.5441C28.733 42.6444 28.733 37.5527 27.6058 32.653C23.8174 16.1852 33.399 -0.410683 49.5548 -5.36372C54.3617 -6.8374 58.7712 -9.38324 62.4509 -12.8093ZM107.03 -13.5411C94.279 -25.4134 74.5207 -25.4134 61.7694 -13.5411C58.2006 -10.2183 53.9238 -7.7491 49.2617 -6.31979C32.6044 -1.21299 22.7252 15.8981 26.6313 32.8772C27.7245 37.6294 27.7245 42.5678 26.6313 47.3199C22.7252 64.299 32.6044 81.4102 49.2617 86.517C53.9238 87.9463 58.2006 90.4155 61.7694 93.7383C74.5207 105.611 94.279 105.611 107.03 93.7383C110.599 90.4155 114.876 87.9463 119.538 86.517C136.195 81.4102 146.074 64.299 142.168 47.3199C141.075 42.5678 141.075 37.6294 142.168 32.8772C146.074 15.8982 136.195 -1.21299 119.538 -6.31979C114.876 -7.7491 110.599 -10.2183 107.03 -13.5411ZM57.0238 -25.7803C72.4491 -40.1422 96.3506 -40.1422 111.776 -25.7803C116.338 -21.5326 121.805 -18.3763 127.765 -16.5492C147.915 -10.3715 159.866 10.3279 155.141 30.8675C153.743 36.9422 153.743 43.255 155.141 49.3297C159.866 69.8693 147.915 90.5686 127.765 96.7464C121.805 98.5734 116.338 101.73 111.776 105.977C96.3506 120.339 72.4491 120.339 57.0238 105.977C52.4617 101.73 46.9947 98.5734 41.0351 96.7464C20.8847 90.5686 8.93392 69.8693 13.6591 49.3297C15.0566 43.255 15.0566 36.9422 13.6591 30.8675C8.93392 10.3279 20.8847 -10.3715 41.0351 -16.5492C46.9947 -18.3763 52.4617 -21.5326 57.0238 -25.7803ZM112.457 -26.5121C96.6481 -41.2316 72.1516 -41.2316 56.3424 -26.5121C51.8911 -22.3677 46.5569 -19.288 40.742 -17.5053C20.09 -11.1738 7.84176 10.0408 12.6845 31.0917C14.0481 37.0189 14.0481 43.1783 12.6845 49.1055C7.84176 70.1564 20.09 91.371 40.742 97.7024C46.5569 99.4852 51.8911 102.565 56.3424 106.709C72.1516 121.429 96.6481 121.429 112.457 106.709C116.909 102.565 122.243 99.4852 128.058 97.7024C148.71 91.371 160.958 70.1563 156.115 49.1055C154.752 43.1783 154.752 37.0189 156.115 31.0917C160.958 10.0408 148.71 -11.1738 128.058 -17.5053C122.243 -19.288 116.909 -22.3677 112.457 -26.5121ZM69.8162 4.79425C78.0335 -2.85659 90.7662 -2.85659 98.9836 4.79425C101.466 7.10524 104.44 8.82251 107.682 9.81657C118.417 13.1075 124.783 24.1345 122.266 35.0763C121.506 38.3813 121.506 41.8159 122.266 45.1209C124.783 56.0627 118.417 67.0896 107.682 70.3806C104.44 71.3747 101.466 73.0919 98.9836 75.4029C90.7663 83.0538 78.0335 83.0538 69.8162 75.4029C67.3341 73.0919 64.3597 71.3747 61.1173 70.3806C50.3828 67.0896 44.0164 56.0627 46.5336 45.1209C47.2939 41.8159 47.2939 38.3813 46.5336 35.0763C44.0164 24.1345 50.3828 13.1075 61.1173 9.81657C64.3597 8.82251 67.3341 7.10524 69.8162 4.79425ZM99.665 4.06237C91.0637 -3.94596 77.736 -3.94596 69.1347 4.06237C66.7634 6.2702 63.9218 7.91081 60.8241 8.8605C49.5881 12.3052 42.9242 23.8474 45.559 35.3005C46.2854 38.458 46.2854 41.7392 45.559 44.8967C42.9242 56.3498 49.5881 67.8919 60.8241 71.3367C63.9218 72.2864 66.7634 73.927 69.1347 76.1348C77.736 84.1431 91.0637 84.1431 99.665 76.1348C102.036 73.927 104.878 72.2864 107.976 71.3367C119.212 67.8919 125.875 56.3498 123.241 44.8967C122.514 41.7392 122.514 38.458 123.241 35.3005C125.875 23.8474 119.212 12.3052 107.976 8.8605C104.878 7.91081 102.036 6.2702 99.665 4.06237ZM75.2432 17.7653C80.4026 12.9615 88.3971 12.9615 93.5565 17.7653C95.1562 19.2546 97.0731 20.3614 99.1628 21.0021C105.903 23.0683 109.9 29.9918 108.319 36.8618C107.829 38.9918 107.829 41.2053 108.319 43.3354C109.9 50.2054 105.903 57.1288 99.1628 59.1951C97.0731 59.8358 95.1562 60.9425 93.5565 62.4319C88.3971 67.2356 80.4026 67.2356 75.2432 62.4319C73.6436 60.9425 71.7266 59.8358 69.6369 59.1951C62.8971 57.1288 58.8999 50.2054 60.4803 43.3354C60.9703 41.2053 60.9703 38.9918 60.4803 36.8618C58.8999 29.9918 62.8971 23.0683 69.637 21.002C71.7266 20.3614 73.6436 19.2546 75.2432 17.7653ZM94.2379 17.0334C88.6946 11.8722 80.1051 11.8722 74.5618 17.0334C73.0729 18.4196 71.2888 19.4497 69.3438 20.046C62.1024 22.266 57.8077 29.7047 59.5058 37.086C59.9618 39.0685 59.9618 41.1287 59.5058 43.1112C57.8077 50.4925 62.1024 57.9311 69.3438 60.1512C71.2888 60.7475 73.0729 61.7776 74.5618 63.1638C80.1051 68.325 88.6946 68.325 94.2379 63.1638C95.7268 61.7776 97.5109 60.7475 99.4559 60.1512C106.697 57.9311 110.992 50.4924 109.294 43.1112C108.838 41.1287 108.838 39.0685 109.294 37.086C110.992 29.7047 106.697 22.266 99.4559 20.046C97.5109 19.4497 95.7268 18.4196 94.2379 17.0334Z" stroke="url(#paint0_linear_0_286)"/>
<defs>
<linearGradient id="paint0_linear_0_286" x1="113.399" y1="-50.4014" x2="84.3999" y2="130.197" gradientUnits="userSpaceOnUse">
<stop stop-color="white" stop-opacity="0.01"/>
<stop offset="1" stop-color="white" stop-opacity="0.12"/>
</linearGradient>
</defs>
</svg>
