<svg width="210" height="129" viewBox="0 0 210 129" fill="none" xmlns="http://www.w3.org/2000/svg">
<path id="Vector" d="M189.502 -47.5L232.268 128.106L144.672 87.2081L144.46 87.1094L144.248 87.2081L56.1075 128.361L0.59145 40.5L56.1955 -47.5H189.502ZM69.96 -28.5H69.6834L69.5364 -28.2657L26.5764 40.2343L26.4098 40.5L26.5764 40.7657L69.5364 109.266L69.7719 109.641L70.1728 109.452L137.98 77.5558L205.787 109.452L206.731 109.896L206.486 108.883L173.371 -28.1175L173.279 -28.5H172.885H69.96ZM138.193 76.5508L137.98 76.4507L137.767 76.5508L70.1482 108.359L27.5902 40.5L70.2366 -27.5H172.491L205.269 108.104L138.193 76.5508ZM82.96 -8.5H82.686L82.5386 -8.26904L51.5786 40.231L51.4068 40.5L51.5786 40.769L82.5386 89.269L82.7735 89.637L83.1698 89.4539L131.98 66.8962L180.79 89.4539L181.734 89.89L181.486 88.8806L157.621 -8.11946L157.527 -8.5H157.135H82.96ZM132.19 65.8915L131.98 65.7946L131.77 65.8915L83.1465 88.363L52.5932 40.5L83.234 -7.5H156.743L180.266 88.11L132.19 65.8915Z" stroke="url(#paint0_linear_0_291)"/>
<defs>
<linearGradient id="paint0_linear_0_291" x1="156.529" y1="-48.3942" x2="136.004" y2="131.229" gradientUnits="userSpaceOnUse">
<stop stop-color="white" stop-opacity="0.01"/>
<stop offset="1" stop-color="white" stop-opacity="0.05"/>
</linearGradient>
</defs>
</svg>
