<svg width="15" height="16" viewBox="0 0 15 16" fill="none" xmlns="http://www.w3.org/2000/svg">
<g id="light-bulb 1" clip-path="url(#clip0_0_602)">
<g id="Group">
<path id="Vector" d="M7.68245 3.84766C5.48031 3.84766 3.68872 5.63924 3.68872 7.84139C3.68872 8.7437 3.98429 9.59576 4.54351 10.3052C4.65067 10.4412 4.76609 10.5751 4.87764 10.7047C5.21081 11.0912 5.52541 11.4564 5.6374 11.8671C5.63981 11.876 5.66089 11.9622 5.65778 12.2558L5.65724 12.2982C5.65386 12.5366 5.64936 12.8629 5.89065 13.1076C6.05589 13.2752 6.28748 13.3567 6.59881 13.3567H8.75869C9.09486 13.3567 9.33653 13.2745 9.49753 13.1052C9.71533 12.8764 9.70075 12.5808 9.69104 12.3851C9.68932 12.3505 9.6875 12.3156 9.68707 12.2809C9.68358 11.987 9.70557 11.9041 9.70648 11.9006C9.82024 11.4899 10.1888 11.0569 10.514 10.6748C10.6225 10.5474 10.725 10.4269 10.8205 10.3059C11.3799 9.59635 11.6756 8.74413 11.6756 7.84144C11.6756 5.6393 9.88433 3.84766 7.68245 3.84766ZM10.1888 9.80771C10.1026 9.91691 10.0049 10.0318 9.90144 10.1534C9.52226 10.5989 9.09245 11.1038 8.93128 11.6858C8.90827 11.7687 8.87829 11.9215 8.88274 12.2904C8.88328 12.3351 8.88537 12.3802 8.88762 12.4248C8.88934 12.46 8.89165 12.5065 8.89143 12.5433C8.86312 12.5479 8.82037 12.5522 8.75869 12.5522H6.59881C6.53038 12.5522 6.49037 12.5449 6.46983 12.5395C6.45921 12.4871 6.46071 12.3782 6.46167 12.3096L6.46232 12.2643C6.46618 11.8932 6.43641 11.7393 6.41367 11.6557C6.25385 11.0691 5.84651 10.5965 5.48717 10.1795C5.37637 10.0509 5.27163 9.92935 5.17541 9.80717C4.72919 9.24098 4.49331 8.56119 4.49331 7.84133C4.49331 6.08278 5.92401 4.65209 7.68256 4.65209C9.44079 4.65209 10.8713 6.08278 10.8713 7.84133C10.8712 8.56156 10.6352 9.24157 10.1888 9.80771Z" fill="#98A2B8"/>
<path id="Vector_2" d="M8.67564 13.7207H6.68905C6.26026 13.7207 5.91138 14.0696 5.91138 14.4984V15.0946C5.91138 15.5234 6.26026 15.8723 6.68905 15.8723H8.67564C9.10443 15.8723 9.45331 15.5234 9.45331 15.0946V14.4984C9.45331 14.0696 9.10443 13.7207 8.67564 13.7207ZM8.64883 15.0678H6.71586V14.5252H8.64883V15.0678Z" fill="#98A2B8"/>
<path id="Vector_3" d="M7.68252 3.32731C7.90471 3.32731 8.08476 3.14726 8.08476 2.92506V1.27431C8.08476 1.05211 7.90471 0.87207 7.68252 0.87207C7.46032 0.87207 7.28027 1.05211 7.28027 1.27431V2.92506C7.28027 3.14726 7.46037 3.32731 7.68252 3.32731Z" fill="#98A2B8"/>
<path id="Vector_4" d="M12.9743 2.72799C12.821 2.56736 12.5663 2.56141 12.4056 2.71469L11.1844 3.88012C11.0236 4.03346 11.0177 4.2881 11.1711 4.44884C11.2501 4.53165 11.356 4.57337 11.4621 4.57337C11.5619 4.57337 11.6619 4.53648 11.7398 4.46214L12.961 3.29666C13.1217 3.14332 13.1276 2.88868 12.9743 2.72799Z" fill="#98A2B8"/>
<path id="Vector_5" d="M14.1735 6.75C14.1733 6.75 14.173 6.75 14.1728 6.75L12.6008 6.75252C12.3786 6.7529 12.1988 6.93326 12.1992 7.15541C12.1996 7.37739 12.3796 7.55701 12.6015 7.55701C12.6017 7.55701 12.6019 7.55701 12.6021 7.55701L14.1741 7.55449C14.3963 7.55411 14.5761 7.37374 14.5757 7.1516C14.5754 6.92961 14.3954 6.75 14.1735 6.75Z" fill="#98A2B8"/>
<path id="Vector_6" d="M3.9899 4.34146C4.14324 4.18077 4.13734 3.92618 3.9766 3.77274L2.75539 2.60731C2.59482 2.45403 2.34017 2.45987 2.18668 2.62061C2.03334 2.78129 2.03924 3.03589 2.19998 3.18933L3.42118 4.35481C3.49906 4.42915 3.59898 4.46605 3.69884 4.46605C3.80492 4.46599 3.91085 4.42427 3.9899 4.34146Z" fill="#98A2B8"/>
<path id="Vector_7" d="M2.39892 6.75252L0.826959 6.75C0.826744 6.75 0.82653 6.75 0.826315 6.75C0.604438 6.75 0.424448 6.92972 0.424073 7.1516C0.423697 7.37374 0.603527 7.55411 0.825672 7.55449L2.39764 7.55701C2.39785 7.55701 2.39806 7.55701 2.39828 7.55701C2.62016 7.55701 2.80015 7.37728 2.80052 7.15541C2.80095 6.93326 2.62112 6.75284 2.39892 6.75252Z" fill="#98A2B8"/>
</g>
</g>
<defs>
<clipPath id="clip0_0_602">
<rect width="15" height="15" fill="white" transform="translate(0 0.87207)"/>
</clipPath>
</defs>
</svg>
