<svg width="57" height="57" viewBox="0 0 57 57" fill="none" xmlns="http://www.w3.org/2000/svg">
<g id="&#240;&#159;&#166;&#134; icon &#34;atom solid&#34;">
<path id="Vector" d="M38.3641 18.5404C36.1151 16.2888 33.696 14.2138 31.1282 12.3337C32.8844 11.2714 34.7277 10.3603 36.6382 9.61039C37.1449 9.42039 37.6199 9.27789 38.0949 9.13539C38.4803 9.60169 38.9767 9.96365 39.5385 10.188C40.1004 10.4124 40.7095 10.492 41.3101 10.4195C41.9107 10.3469 42.4835 10.1247 42.9758 9.77302C43.468 9.42139 43.864 8.95168 44.1274 8.40706C45.258 8.50943 46.3249 8.97617 47.1674 9.73706C49.0516 11.6212 49.0991 15.4212 47.3257 20.1554C48.1016 21.1846 48.8141 22.2296 49.4632 23.3221C49.7324 22.6887 50.0174 22.0712 50.2391 21.4537C52.5666 15.3579 52.2657 10.3704 49.3999 7.55206C47.9661 6.19431 46.0987 5.38679 44.1274 5.27206C43.7985 4.58641 43.2623 4.02152 42.5948 3.65731C41.9272 3.2931 41.162 3.148 40.4075 3.24254C39.6529 3.33708 38.9472 3.66647 38.3901 4.18412C37.833 4.70176 37.4528 5.38146 37.3032 6.12706C36.7174 6.30122 36.1316 6.47539 35.5141 6.71289C32.9843 7.70918 30.5603 8.95564 28.2782 10.4337C25.9915 8.93661 23.5625 7.66907 21.0266 6.64956C14.9307 4.33789 9.94323 4.62289 7.14073 7.48873C4.51239 10.1329 4.08489 14.5187 5.82656 19.9337C5.42904 20.4449 5.17633 21.0536 5.09491 21.6959C5.01349 22.3383 5.10635 22.9908 5.36377 23.585C5.62119 24.1792 6.03369 24.6931 6.55803 25.0731C7.08238 25.4531 7.69927 25.685 8.34406 25.7446C8.85073 26.7104 9.40489 27.6762 10.0224 28.6262C8.55201 30.9133 7.31603 33.3428 6.33323 35.8779C4.00573 41.9579 4.30656 46.9612 7.17239 49.7637C8.04431 50.5786 9.07099 51.2101 10.1915 51.6208C11.3121 52.0315 12.5037 52.213 13.6957 52.1546C16.2249 52.0721 18.7187 51.5358 21.0582 50.5712C23.5917 49.5719 26.0206 48.3256 28.3099 46.8504C30.578 48.3595 32.9914 49.6378 35.5141 50.6662C37.3686 51.396 39.3121 51.8752 41.2932 52.0912C41.641 52.8307 42.2273 53.4318 42.958 53.7977C43.6887 54.1636 44.5212 54.2731 45.3217 54.1087C46.1221 53.9442 46.844 53.5153 47.3712 52.8909C47.8984 52.2665 48.2002 51.4829 48.2282 50.6662C48.6487 50.4064 49.0413 50.104 49.3999 49.7637C52.2657 46.8979 52.5666 41.9579 50.2391 35.8779C47.5083 29.3473 43.4666 23.4465 38.3641 18.5404ZM19.9024 47.6421C15.1524 49.4629 11.2732 49.4312 9.37323 47.5154C7.47323 45.5996 7.42573 41.7837 9.26239 37.0021C10.0066 35.0918 10.9124 33.2484 11.9699 31.4921C13.8556 34.0503 15.9303 36.4638 18.1766 38.7121C18.8574 39.3929 19.5541 40.0579 20.2507 40.6912C21.2007 40.2057 22.1666 39.6515 23.1482 39.0287C22.2299 38.2054 21.3116 37.4454 20.4249 36.4796C16.8613 32.9779 13.8025 28.9972 11.3366 24.6521C11.8318 24.1388 12.1646 23.4909 12.2934 22.7894C12.4222 22.0879 12.3413 21.364 12.0608 20.7083C11.7802 20.0526 11.3125 19.4942 10.7162 19.1029C10.1199 18.7117 9.42143 18.505 8.70823 18.5087C7.52073 14.5504 7.72656 11.3996 9.38906 9.73706C9.9746 9.22103 10.6569 8.82652 11.3962 8.57645C12.1355 8.32639 12.9172 8.22575 13.6957 8.28039C15.8323 8.35175 17.9392 8.80208 19.9182 9.61039C21.8288 10.3603 23.6721 11.2714 25.4282 12.3337C22.8605 14.2138 20.4414 16.2888 18.1924 18.5404C17.4957 19.2371 16.8149 19.9654 16.1499 20.6937C16.6266 21.6969 17.1551 22.6746 17.7332 23.6229C18.5882 22.6571 19.4591 21.7071 20.3932 20.7729C22.8292 18.3396 25.4787 16.1299 28.3099 14.1704C31.1108 16.1373 33.7334 18.3466 36.1474 20.7729C38.5812 23.2085 40.7909 25.858 42.7499 28.6896C40.786 31.5173 38.5766 34.1665 36.1474 36.6062C31.5402 41.3525 26.0123 45.1078 19.9024 47.6421ZM47.1674 47.4996L46.9141 47.7054C46.4983 47.3529 46.0078 47.0997 45.4797 46.9647C44.9515 46.8298 44.3997 46.8168 43.8658 46.9266C43.3319 47.0364 42.8299 47.2662 42.398 47.5987C41.966 47.9311 41.6153 48.3574 41.3724 48.8454C39.7449 48.6364 38.1494 48.2269 36.6224 47.6262C34.7091 46.8826 32.8652 45.9713 31.1124 44.9029C33.6801 43.0229 36.0992 40.9478 38.3482 38.6962C40.6033 36.4561 42.6786 34.042 44.5549 31.4762C45.6171 33.2324 46.5282 35.0757 47.2782 36.9862C49.0832 41.7837 49.0832 45.6154 47.1674 47.4996Z" fill="white"/>
<path id="Vector_2" d="M29.3262 33.7597C32.1746 33.2973 34.1089 30.6134 33.6466 27.765C33.1842 24.9166 30.5003 22.9823 27.6519 23.4447C24.8035 23.9071 22.8692 26.591 23.3316 29.4394C23.7939 32.2878 26.4778 34.2221 29.3262 33.7597Z" fill="white"/>
</g>
</svg>
