<svg width="95" height="80" viewBox="0 0 95 80" fill="none" xmlns="http://www.w3.org/2000/svg">
<g id="Frame" clip-path="url(#clip0_0_421)">
<g id="Group">
<g id="science">
<path id="Vector" d="M60.8137 49.468C55.9501 56.6811 50.3782 63.3903 44.1808 69.4956C41.0356 72.5908 37.4931 75.2544 33.6463 77.4164C31.6396 78.5288 29.4751 79.329 27.2275 79.7897C25.9966 80.0758 24.7213 80.1152 23.4752 79.9055C22.2291 79.6958 21.0369 79.2412 19.9675 78.568L19.627 78.2876L19.2164 77.9472C18.9761 77.7169 18.7458 77.4865 18.5355 77.2462C18.1241 76.7541 17.765 76.2205 17.464 75.654C16.9052 74.5939 16.507 73.4566 16.2824 72.2794C15.9157 70.0089 15.8988 67.6956 16.2323 65.42C16.8881 61.0322 18.0682 56.7389 19.7472 52.6324C23.0543 44.515 27.3889 36.8554 32.6449 29.841C37.7722 22.8132 43.5928 16.3183 50.0188 10.4544C51.641 9.00238 53.3033 7.60045 55.0257 6.28865C56.7674 4.95396 58.6049 3.74906 60.5232 2.68369C62.4762 1.56689 64.586 0.74999 66.7819 0.260358C67.958 -0.04833 69.184 -0.11876 70.3878 0.0532079C71.5916 0.225175 72.7488 0.63607 73.7915 1.26173C74.809 1.97849 75.6427 2.92547 76.2248 4.02554C76.7919 5.08022 77.1842 6.21989 77.3864 7.40017C77.7615 9.64957 77.7817 11.9438 77.4465 14.1995C76.8087 18.5706 75.572 22.8331 73.7715 26.8669C70.2156 34.8133 65.8747 42.3846 60.8137 49.468ZM60.6134 49.3278C65.558 42.2446 69.4974 34.5106 72.3195 26.3462C73.7476 22.3394 74.7544 18.1947 75.3236 13.9792C75.5763 11.9392 75.5527 9.87447 75.2535 7.84078C75.0308 5.93666 74.0799 4.19261 72.5998 2.97409C70.9736 1.95042 69.0158 1.59184 67.1323 1.97271C65.0733 2.32724 63.0765 2.97822 61.2042 3.90537C57.3644 5.81767 53.7896 8.22109 50.5696 11.0552C44.0926 16.7804 38.432 23.3675 33.7464 30.6321C28.9953 37.78 25.0397 45.4259 21.9502 53.4335C20.4198 57.3786 19.3708 61.4939 18.8259 65.6903C18.5662 67.7068 18.5932 69.7498 18.906 71.7587C19.1237 73.602 20.0636 75.2838 21.5196 76.4351C23.0908 77.3731 24.9637 77.6673 26.7468 77.2562C28.7506 76.8624 30.689 76.1882 32.5047 75.2535C36.2763 73.3018 39.8281 70.9518 43.0993 68.2438C49.7809 62.7755 55.6746 56.4099 60.6134 49.3278Z" fill="#5A839B"/>
<path id="Vector_2" style="mix-blend-mode:screen" d="M21.6297 54.3247C20.1039 58.2713 19.055 62.3861 18.5055 66.5815C18.2541 68.5987 18.2844 70.6411 18.5956 72.6499C18.6441 73.5704 18.9014 74.4678 19.3479 75.2742C19.7944 76.0806 20.4185 76.7749 21.173 77.3045C21.9274 77.8342 22.7924 78.1853 23.7025 78.3313C24.6126 78.4774 25.5441 78.4145 26.4263 78.1474C28.4302 77.7536 30.3686 77.0794 32.1843 76.1447C35.9572 74.1953 39.5092 71.8452 42.7788 69.1351C48.5952 64.3717 53.8166 58.9251 58.3302 52.9128L58.6807 52.4421C58.8409 52.2218 58.9911 52.0015 59.1614 51.7812C59.662 51.0702 60.1627 50.3592 60.6634 49.6483C65.437 42.7157 69.2533 35.1706 72.009 27.2174V27.0672C66.3018 43.1776 56.3061 57.425 43.0993 68.2739C39.828 70.9819 36.2763 73.3318 32.5047 75.2835C30.689 76.2182 28.7506 76.8924 26.7468 77.2863C24.9637 77.6974 23.0907 77.4032 21.5196 76.4651C20.0636 75.3139 19.1237 73.6321 18.906 71.7887C18.5932 69.7798 18.5662 67.7368 18.8259 65.7204C19.3163 61.8261 20.2573 58.0019 21.6297 54.3247Z" fill="url(#paint0_linear_0_421)"/>
<path id="Vector_3" style="mix-blend-mode:screen" d="M77.4064 7.44023C77.2042 6.25995 76.8119 5.12028 76.2448 4.06559C75.6627 2.96552 74.8289 2.01854 73.8115 1.30179C72.7688 0.676125 71.6115 0.265229 70.4078 0.0932617C69.204 -0.0787059 67.978 -0.00827427 66.8018 0.300414C64.606 0.790046 62.4962 1.60695 60.5432 2.72375C58.6249 3.78911 56.7874 4.99401 55.0457 6.3287C53.2933 7.64051 51.631 9.04243 50.0388 10.4944C43.6078 16.3448 37.7806 22.8262 32.6449 29.841C27.3988 36.8441 23.0711 44.49 19.7672 52.5923C19.4668 53.3734 19.1764 54.1545 18.896 54.9456C19.0662 54.4749 19.2465 53.9442 19.4367 53.5236C22.737 45.4195 27.065 37.7732 32.3144 30.7723C37.4322 23.7428 43.2463 17.2477 49.6683 11.3857C51.2905 9.93366 52.9628 8.53173 54.6752 7.21993C56.416 5.88093 58.2535 4.67264 60.1727 3.60496C62.1354 2.48605 64.2554 1.66912 66.4614 1.18162C67.6374 0.871803 68.8636 0.800793 70.0676 0.972784C71.2715 1.14478 72.4288 1.55628 73.471 2.183C74.4894 2.90165 75.326 3.848 75.9144 4.9468C76.479 6.00167 76.8679 7.14148 77.0659 8.32144C77.4443 10.5703 77.468 12.8646 77.136 15.1208C76.7196 18.1417 75.9811 21.1093 74.933 23.973C76.1503 20.8233 77.0004 17.5439 77.4665 14.1995C77.7976 11.957 77.7773 9.67654 77.4064 7.44023Z" fill="url(#paint1_linear_0_421)"/>
<path id="Vector_4" d="M33.2958 49.3278C38.2292 56.423 44.1235 62.7992 50.8099 68.2739C54.0776 70.9817 57.626 73.3316 61.3944 75.2835C63.2143 76.2168 65.1557 76.8909 67.1624 77.2863C68.0446 77.5533 68.976 77.6162 69.8862 77.4701C70.7963 77.3241 71.6613 76.973 72.4157 76.4434C73.1702 75.9137 73.7943 75.2194 74.2408 74.413C74.6873 73.6066 74.9446 72.7092 74.9931 71.7887C75.3043 69.7799 75.3346 67.7375 75.0833 65.7204C74.5384 61.524 73.4894 57.4086 71.959 53.4635C68.862 45.4575 64.9032 37.812 60.1527 30.6622C55.4822 23.4011 49.8349 16.817 43.3696 11.0953C40.1513 8.25898 36.5762 5.85536 32.735 3.94543C30.8633 3.01683 28.8663 2.36578 26.8069 2.01277C24.9266 1.63142 22.9717 1.99012 21.3494 3.01415C19.8652 4.22926 18.9133 5.9751 18.6957 7.88084C18.3881 9.91366 18.3611 11.9791 18.6156 14.0193C19.1907 18.2336 20.1974 22.3777 21.6197 26.3863C24.4321 34.5366 28.3615 42.2574 33.2958 49.3278ZM33.0855 49.468C28.0059 42.3998 23.645 34.842 20.0676 26.907C18.2863 22.8552 17.0634 18.5804 16.4326 14.1995C16.1007 11.9433 16.1243 9.64905 16.5027 7.40018C16.6955 6.23574 17.0742 5.10985 17.6242 4.06559C18.2126 2.96679 19.0492 2.02044 20.0676 1.30179C21.1099 0.675073 22.2671 0.263564 23.4711 0.0915726C24.675 -0.080419 25.9012 -0.00940615 27.0772 0.300415C29.2741 0.786663 31.3844 1.60376 33.3359 2.72375C35.257 3.78441 37.0948 4.98953 38.8334 6.3287C40.5858 7.64051 42.2581 9.04243 43.8403 10.4944C50.2658 16.356 56.0832 22.8511 61.2042 29.8811C66.4534 36.8838 70.7845 44.5297 74.0919 52.6324C75.8023 56.7217 77.0159 61.0015 77.7069 65.3799C78.0621 67.6526 78.0621 69.9666 77.7069 72.2393C77.4995 73.4424 77.1113 74.6072 76.5553 75.6941C76.2296 76.2671 75.8399 76.8012 75.3937 77.2863C75.1797 77.5322 74.9524 77.7662 74.7127 77.9872L74.3122 78.3277L73.9817 78.568C72.9087 79.2457 71.7114 79.7027 70.4597 79.9125C69.208 80.1223 67.9271 80.0805 66.6917 79.7897C64.444 79.329 62.2796 78.5288 60.2729 77.4164C56.4091 75.2612 52.8496 72.6008 49.6883 69.5056C43.5009 63.3957 37.939 56.6832 33.0855 49.468Z" fill="#5A839B"/>
<path id="Vector_5" style="mix-blend-mode:screen" d="M72.3795 76.4351C70.8118 77.3725 68.9422 77.6668 67.1624 77.2562C66.7017 77.1761 66.2411 77.076 65.7905 76.9558C66.6042 77.2346 67.4377 77.4522 68.2839 77.6067C69.1667 77.8715 70.098 77.9328 71.0078 77.7859C71.9177 77.639 72.7824 77.2878 73.537 76.7587C74.2917 76.2296 74.9166 75.5364 75.3647 74.7311C75.8129 73.9257 76.0728 73.0293 76.1247 72.1091C76.4322 70.0965 76.4591 68.0509 76.2048 66.0308C75.6599 61.8377 74.6109 57.7256 73.0805 53.784C69.9891 45.7773 66.0336 38.1316 61.2843 30.9826C56.6079 23.7229 50.9613 17.1363 44.5012 11.4057C41.279 8.57238 37.7005 6.17213 33.8566 4.26587C32.6142 3.66993 31.3247 3.17758 30.0013 2.79384C30.9316 3.11938 31.8441 3.49375 32.735 3.91538C36.5762 5.82532 40.1513 8.22894 43.3696 11.0652C49.8349 16.787 55.4822 23.371 60.1527 30.6321C64.9033 37.782 68.862 45.4274 71.959 53.4335C73.4894 57.3786 74.5384 61.4939 75.0833 65.6903C75.3346 67.7075 75.3043 69.7498 74.9931 71.7587C74.7755 73.602 73.8355 75.2838 72.3795 76.4351Z" fill="url(#paint2_linear_0_421)"/>
<path id="Vector_6" style="mix-blend-mode:screen" d="M61.4345 77.7569C57.5647 75.6109 54.004 72.9497 50.8499 69.846C47.3324 66.4618 44.0534 62.8382 41.0365 59.0011C38.2454 55.9512 35.6595 52.7197 33.2958 49.3278C30.3841 45.1814 27.8218 40.8003 25.6353 36.2298C24.013 33.3306 22.5423 30.3492 21.2292 27.2975C19.427 23.2608 18.1904 18.9948 17.5542 14.6201C17.2189 12.3644 17.2392 10.0702 17.6142 7.82075C17.8197 6.64129 18.2118 5.50212 18.7758 4.44611C19.358 3.34882 20.1919 2.40511 21.2092 1.69233C22.2521 1.06719 23.4093 0.656596 24.613 0.48464C25.8167 0.312685 27.0426 0.382826 28.2188 0.69095C28.5993 0.77106 28.9699 0.88121 29.3404 0.981348C28.6036 0.722991 27.8511 0.512268 27.0873 0.350482C25.9112 0.0406604 24.685 -0.0303505 23.4811 0.141641C22.2772 0.313633 21.1199 0.725139 20.0776 1.35186C19.0615 2.0551 18.2218 2.98389 17.6243 4.06559C17.0597 5.12046 16.6707 6.26027 16.4727 7.44023C16.0943 9.68911 16.0706 11.9834 16.4026 14.2396C17.0497 18.6087 18.286 22.8699 20.0776 26.907C23.655 34.842 28.0159 42.3998 33.0955 49.468C37.9591 56.6811 43.531 63.3903 49.7284 69.4956C52.8897 72.5908 56.4492 75.2512 60.313 77.4064C61.9004 78.2622 63.5802 78.9341 65.3198 79.4092C63.9803 78.9694 62.6805 78.4167 61.4345 77.7569Z" fill="url(#paint3_linear_0_421)"/>
<path id="Vector_7" d="M46.8444 56.4676C55.4817 56.5177 64.0846 55.3753 72.4096 53.073C76.5078 51.9591 80.4757 50.4116 84.2458 48.4566C86.0489 47.5023 87.7132 46.3063 89.1926 44.9017C90.5552 43.681 91.3915 41.9797 91.5258 40.1552C91.4236 38.3037 90.5918 36.5682 89.2127 35.3286C87.7528 33.9128 86.101 32.7094 84.3059 31.7537C80.5618 29.7767 76.5949 28.2538 72.4897 27.2174C64.1627 25.1346 55.6347 23.9595 47.0547 23.7126C38.4292 23.3496 29.7945 24.1649 21.3894 26.1359C17.2193 27.137 13.1969 28.6753 9.42297 30.7122C7.57866 31.699 5.89126 32.9544 4.41608 34.4373C3.02012 35.7428 2.18091 37.536 2.07286 39.4442C2.20503 41.3675 3.0815 43.1635 4.51623 44.4511C6.01328 45.8751 7.69781 47.088 9.52311 48.0561C13.2859 50.0274 17.2423 51.6046 21.3294 52.7626C29.6232 55.1667 38.2094 56.4135 46.8444 56.4676ZM46.8444 56.718C38.1925 56.5978 29.4806 56.1472 20.9188 54.2947C16.587 53.4364 12.3926 51.9911 8.45163 49.9987C6.4139 48.961 4.55197 47.6093 2.93403 45.9932C2.08471 45.1479 1.37793 44.1706 0.841159 43.0993C0.282077 41.9909 -0.00619128 40.7657 6.30468e-06 39.5243C0.0880319 38.3161 0.414787 37.1373 0.961381 36.0561C1.50797 34.9749 2.26355 34.0129 3.18438 33.2257C4.85372 31.7188 6.73664 30.4669 8.77208 29.5106C10.7532 28.5575 12.8015 27.7509 14.9005 27.0973C16.9733 26.4263 19.0863 25.8656 21.1992 25.3849C29.6986 23.5194 38.364 22.513 47.0647 22.3808C55.819 22.1304 64.5692 23.0054 73.1005 24.9844C77.4214 25.9781 81.6071 27.4877 85.5677 29.4805C87.6206 30.5229 89.5017 31.8737 91.1453 33.486C92.0101 34.3433 92.7364 35.3298 93.2983 36.4101C93.593 36.9796 93.8215 37.581 93.9792 38.2025C94.0617 38.5319 94.1219 38.8664 94.1595 39.2039V39.7246V40.1352C94.089 41.3959 93.7706 42.6303 93.2224 43.7678C92.6743 44.9054 91.9072 45.9236 90.9651 46.7643C89.2991 48.3418 87.3969 49.6493 85.3273 50.6396C81.3392 52.556 77.1126 53.93 72.7601 54.7252C64.2085 56.2433 55.5276 56.9108 46.8444 56.718Z" fill="#5A839B"/>
<path id="Vector_8" style="mix-blend-mode:screen" d="M52.5022 56.6579C59.6384 56.374 66.7181 55.2685 73.6012 53.3634C77.6968 52.2512 81.6615 50.7036 85.4275 48.747C87.2528 47.7993 88.9378 46.6029 90.4343 45.1921C91.7821 43.9648 92.6036 42.2643 92.7275 40.4456C92.6252 38.5941 91.7935 36.8586 90.4143 35.619C88.9499 34.2086 87.299 33.0057 85.5076 32.0441C81.7622 30.0772 77.7953 28.5644 73.6913 27.5379L72.5498 27.2174C76.6327 28.2452 80.5791 29.7546 84.3059 31.7136C86.101 32.6693 87.7528 33.8727 89.2127 35.2885C90.5918 36.5281 91.4236 38.2636 91.5258 40.1152C91.3915 41.9396 90.5552 43.641 89.1926 44.8617C87.7132 46.2663 86.0489 47.4623 84.2458 48.4166C80.4757 50.3715 76.5078 51.9191 72.4096 53.0329C64.0846 55.3353 55.4817 56.4776 46.8444 56.4276C39.5692 56.3843 32.3238 55.4937 25.2547 53.7739C31.5665 55.3951 38.0305 56.3516 44.5413 56.6279H46.8444C48.727 56.718 50.6697 56.698 52.5022 56.6579Z" fill="url(#paint4_linear_0_421)"/>
<path id="Vector_9" style="mix-blend-mode:screen" d="M9.61323 50.2491C7.57393 49.2139 5.71161 47.8619 4.09563 46.2436C3.24631 45.3983 2.53953 44.4209 2.00276 43.3496C1.44368 42.2412 1.15541 41.0161 1.16161 39.7747C1.2411 38.5588 1.56391 37.3712 2.11091 36.2824C2.65791 35.1935 3.41795 34.2256 4.34598 33.436C6.01532 31.9291 7.89824 30.6772 9.93368 29.7209C11.914 28.7661 13.9625 27.9594 16.0621 27.3075C18.1349 26.6366 20.2479 26.0759 22.3608 25.5952C30.8594 23.7247 39.5253 22.7182 48.2263 22.5911C56.8224 22.3403 65.4157 23.1781 73.8015 25.0845L73.0505 24.8942C64.5191 22.9153 55.7689 22.0403 47.0147 22.2907C38.3139 22.4229 29.6485 23.4293 21.1491 25.2948C19.0362 25.7754 16.9233 26.2962 14.8504 27.0071C12.7514 27.6608 10.7031 28.4674 8.72199 29.4205C6.69848 30.4087 4.8324 31.691 3.18438 33.2257C2.25893 34.0176 1.50066 34.986 0.953894 36.0744C0.407126 37.1628 0.0828398 38.3492 6.30468e-06 39.5644C-0.00619128 40.8058 0.282077 42.0309 0.841159 43.1393C1.37793 44.2107 2.08471 45.188 2.93403 46.0333C4.55197 47.6493 6.4139 49.001 8.45163 50.0388C12.0333 51.8521 15.8328 53.1982 19.7572 54.0443C16.2356 53.1917 12.8297 51.9174 9.61323 50.2491Z" fill="url(#paint5_linear_0_421)"/>
<path id="Vector_10" style="mix-blend-mode:screen" d="M77.7068 65.0294C77.7068 65.5582 77.55 66.0751 77.2562 66.5148C76.9625 66.9545 76.5449 67.2972 76.0564 67.4996C75.5678 67.7019 75.0302 67.7549 74.5116 67.6517C73.9929 67.5486 73.5165 67.2939 73.1426 66.92C72.7687 66.5461 72.514 66.0697 72.4109 65.551C72.3077 65.0324 72.3607 64.4948 72.563 64.0062C72.7654 63.5177 73.1081 63.1001 73.5477 62.8063C73.9874 62.5125 74.5044 62.3557 75.0332 62.3557C75.7423 62.3557 76.4223 62.6374 76.9238 63.1388C77.4252 63.6403 77.7068 64.3203 77.7068 65.0294Z" fill="url(#paint6_linear_0_421)"/>
<path id="Vector_11" d="M56.2173 39.8248C56.2173 41.6568 55.674 43.4476 54.6562 44.9709C53.6384 46.4941 52.1918 47.6813 50.4993 48.3824C48.8067 49.0835 46.9443 49.2669 45.1475 48.9095C43.3507 48.5521 41.7002 47.6699 40.4048 46.3745C39.1094 45.0791 38.2272 43.4286 37.8698 41.6318C37.5124 39.835 37.6958 37.9726 38.3969 36.2801C39.098 34.5875 40.2852 33.1409 41.8085 32.1231C43.3317 31.1053 45.1226 30.562 46.9546 30.562C49.4112 30.562 51.7672 31.5379 53.5043 33.275C55.2414 35.0121 56.2173 37.3681 56.2173 39.8248Z" fill="#1E899B"/>
<path id="Vector_12" style="mix-blend-mode:screen" d="M50.4894 37.2312C50.4874 38.3359 50.158 39.4152 49.5429 40.3328C48.9277 41.2504 48.0543 41.965 47.0331 42.3864C46.0119 42.8078 44.8888 42.917 43.8055 42.7003C42.7223 42.4835 41.7276 41.9506 40.9471 41.1687C40.1667 40.3869 39.6355 39.3912 39.4207 38.3076C39.2059 37.224 39.3171 36.101 39.7403 35.0806C40.1636 34.0601 40.8797 33.188 41.7984 32.5745C42.7171 31.961 43.797 31.6335 44.9017 31.6335C45.6363 31.6335 46.3638 31.7784 47.0424 32.0598C47.7209 32.3412 48.3374 32.7537 48.8564 33.2736C49.3754 33.7936 49.7867 34.4107 50.067 35.0898C50.3472 35.7689 50.4907 36.4966 50.4894 37.2312Z" fill="url(#paint7_linear_0_421)"/>
<g id="Clip path group">
<mask id="mask0_0_421" style="mask-type:luminance" maskUnits="userSpaceOnUse" x="37" y="30" width="20" height="20">
<g id="clip-path">
<path id="Vector_13" d="M56.2173 39.8248C56.2173 41.6568 55.674 43.4476 54.6562 44.9709C53.6384 46.4941 52.1918 47.6813 50.4993 48.3824C48.8067 49.0835 46.9443 49.2669 45.1475 48.9095C43.3507 48.5521 41.7002 47.6699 40.4048 46.3745C39.1094 45.0791 38.2272 43.4286 37.8698 41.6318C37.5124 39.835 37.6958 37.9726 38.3969 36.2801C39.098 34.5875 40.2852 33.1409 41.8085 32.1231C43.3317 31.1053 45.1226 30.562 46.9546 30.562C49.4112 30.562 51.7672 31.5379 53.5043 33.275C55.2414 35.0121 56.2173 37.3681 56.2173 39.8248Z" fill="white"/>
</g>
</mask>
<g mask="url(#mask0_0_421)">
<g id="Group_2">
<path id="Vector_14" style="mix-blend-mode:multiply" d="M59.3015 35.3887C61.5746 38.6431 58.6406 44.6013 52.7525 48.697C46.8644 52.7926 40.2653 53.4936 37.9922 50.2491C35.7191 47.0046 38.6732 41.0464 44.5513 36.9408C50.4293 32.8352 57.0384 32.1442 59.3015 35.3887Z" fill="url(#paint8_radial_0_421)"/>
<path id="Vector_15" style="mix-blend-mode:color-dodge" d="M63.6875 36.6905C66.4814 40.696 62.8564 48.0661 55.5864 53.1331C48.3164 58.2 40.1552 59.0512 37.3613 55.0357C34.5675 51.0202 38.1825 43.66 45.4525 38.5931C52.7225 33.5261 60.8637 32.6749 63.6875 36.6905Z" fill="url(#paint9_radial_0_421)"/>
</g>
</g>
</g>
<path id="Vector_16" d="M62.3758 5.18713C62.3758 6.03084 62.1256 6.8556 61.6568 7.55712C61.1881 8.25864 60.5219 8.80541 59.7424 9.12828C58.9629 9.45115 58.1052 9.53563 57.2777 9.37103C56.4502 9.20643 55.6901 8.80015 55.0935 8.20356C54.4969 7.60697 54.0906 6.84686 53.926 6.01936C53.7614 5.19187 53.8459 4.33414 54.1688 3.55466C54.4916 2.77517 55.0384 2.10894 55.7399 1.6402C56.4414 1.17146 57.2662 0.921268 58.1099 0.921268C59.2413 0.921268 60.3263 1.37071 61.1263 2.17071C61.9263 2.97072 62.3758 4.05576 62.3758 5.18713Z" fill="#B83971"/>
<path id="Vector_17" style="mix-blend-mode:screen" d="M59.8824 4.35599C59.8843 4.88564 59.7289 5.40394 59.4359 5.84516C59.1429 6.28637 58.7254 6.63062 58.2365 6.83422C57.7475 7.03782 57.2091 7.09162 56.6895 6.98877C56.1699 6.88593 55.6926 6.63108 55.3181 6.25656C54.9436 5.88204 54.6887 5.40471 54.5859 4.88514C54.483 4.36557 54.5369 3.82715 54.7405 3.3382C54.9441 2.84924 55.2883 2.43177 55.7295 2.13875C56.1707 1.84572 56.689 1.69035 57.2187 1.69233C57.9243 1.69496 58.6003 1.97644 59.0993 2.47541C59.5982 2.97437 59.8797 3.65035 59.8824 4.35599Z" fill="url(#paint10_linear_0_421)"/>
<g id="Clip path group_2">
<mask id="mask1_0_421" style="mask-type:luminance" maskUnits="userSpaceOnUse" x="53" y="0" width="10" height="10">
<g id="clip-path-2">
<path id="Vector_18" d="M62.3758 5.18713C62.3758 6.03084 62.1256 6.8556 61.6568 7.55712C61.1881 8.25864 60.5219 8.80541 59.7424 9.12828C58.9629 9.45115 58.1052 9.53563 57.2777 9.37103C56.4502 9.20643 55.6901 8.80015 55.0935 8.20356C54.4969 7.60697 54.0906 6.84686 53.926 6.01936C53.7614 5.19187 53.8459 4.33414 54.1688 3.55466C54.4916 2.77517 55.0384 2.10894 55.7399 1.6402C56.4414 1.17146 57.2662 0.921268 58.1099 0.921268C59.2413 0.921268 60.3263 1.37071 61.1263 2.17071C61.9263 2.97072 62.3758 4.05576 62.3758 5.18713Z" fill="white"/>
</g>
</mask>
<g mask="url(#mask1_0_421)">
<g id="Group_3">
<path id="Vector_19" style="mix-blend-mode:multiply" d="M64.0881 2.70372C65.1996 4.29591 63.7577 7.22994 60.8637 9.24271C57.9697 11.2555 54.7152 11.606 53.6037 10.0038C52.4922 8.40155 53.9342 5.47753 56.8281 3.45475C59.7221 1.43197 62.9766 1.10152 64.0881 2.70372Z" fill="url(#paint11_radial_0_421)"/>
<path id="Vector_20" style="mix-blend-mode:color-dodge" d="M65.8606 3.8553C67.1323 5.68782 65.4901 9.03242 62.1855 11.3256C58.881 13.6187 55.1759 14.0193 53.9041 12.1968C52.6324 10.3743 54.2746 7.02966 57.5792 4.7265C60.8837 2.42333 64.5888 2.03279 65.8606 3.8553Z" fill="url(#paint12_radial_0_421)"/>
</g>
</g>
</g>
<path id="Vector_21" d="M80.2203 66.0308C80.2203 66.8745 79.9701 67.6993 79.5014 68.4008C79.0326 69.1023 78.3664 69.6491 77.5869 69.9719C76.8074 70.2948 75.9497 70.3793 75.1222 70.2147C74.2947 70.0501 73.5346 69.6438 72.938 69.0472C72.3414 68.4506 71.9352 67.6905 71.7706 66.863C71.606 66.0355 71.6904 65.1778 72.0133 64.3983C72.3362 63.6188 72.8829 62.9526 73.5845 62.4838C74.286 62.0151 75.1107 61.7649 75.9545 61.7649C76.515 61.7636 77.0704 61.873 77.5885 62.0869C78.1067 62.3009 78.5775 62.615 78.9738 63.0114C79.3702 63.4078 79.6844 63.8786 79.8983 64.3968C80.1122 64.9149 80.2217 65.4702 80.2203 66.0308Z" fill="#B83971"/>
<path id="Vector_22" style="mix-blend-mode:screen" d="M77.7068 65.1896C77.7068 65.7165 77.5506 66.2314 77.2579 66.6695C76.9652 67.1075 76.5492 67.4489 76.0625 67.6505C75.5758 67.8521 75.0402 67.9049 74.5235 67.8021C74.0068 67.6993 73.5322 67.4456 73.1597 67.0731C72.7872 66.7006 72.5335 66.226 72.4307 65.7093C72.3279 65.1926 72.3807 64.657 72.5823 64.1703C72.7839 63.6836 73.1253 63.2676 73.5633 62.9749C74.0014 62.6822 74.5164 62.526 75.0432 62.526C75.7488 62.5286 76.4248 62.8101 76.9238 63.3091C77.4227 63.808 77.7042 64.484 77.7068 65.1896Z" fill="url(#paint13_linear_0_421)"/>
<g id="Clip path group_3">
<mask id="mask2_0_421" style="mask-type:luminance" maskUnits="userSpaceOnUse" x="71" y="61" width="10" height="10">
<g id="clip-path-3">
<path id="Vector_23" d="M80.2203 66.0308C80.2203 66.8745 79.9701 67.6993 79.5014 68.4008C79.0326 69.1023 78.3664 69.6491 77.5869 69.9719C76.8074 70.2948 75.9497 70.3793 75.1222 70.2147C74.2947 70.0501 73.5346 69.6438 72.938 69.0472C72.3414 68.4506 71.9352 67.6905 71.7706 66.863C71.606 66.0355 71.6904 65.1778 72.0133 64.3983C72.3362 63.6188 72.8829 62.9526 73.5845 62.4838C74.286 62.0151 75.1107 61.7649 75.9545 61.7649C76.515 61.7636 77.0704 61.873 77.5885 62.0869C78.1067 62.3009 78.5775 62.615 78.9738 63.0114C79.3702 63.4078 79.6844 63.8786 79.8983 64.3968C80.1122 64.9149 80.2217 65.4702 80.2203 66.0308Z" fill="white"/>
</g>
</mask>
<g mask="url(#mask2_0_421)">
<g id="Group_4">
<path id="Vector_24" style="mix-blend-mode:multiply" d="M81.9327 63.5374C83.0542 65.1295 81.6022 68.0636 78.7082 70.0764C75.8142 72.0891 72.5698 72.4396 71.4583 70.8374C70.3467 69.2352 71.7887 66.2711 74.7027 64.2684C77.6167 62.2656 80.8211 61.9352 81.9327 63.5374Z" fill="url(#paint14_radial_0_421)"/>
<path id="Vector_25" style="mix-blend-mode:color-dodge" d="M83.7151 64.699C84.9869 66.5215 83.3346 69.8661 80.0301 72.1592C76.7255 74.4524 73.0204 74.8529 71.7486 73.0304C70.4769 71.2079 72.1292 67.8633 75.4337 65.5601C78.7383 63.257 82.4434 62.8664 83.7151 64.699Z" fill="url(#paint15_radial_0_421)"/>
</g>
</g>
</g>
<path id="Vector_26" d="M14.6201 50.1289C14.6201 50.9726 14.3699 51.7974 13.9012 52.4989C13.4325 53.2004 12.7662 53.7472 11.9867 54.0701C11.2072 54.393 10.3495 54.4774 9.52201 54.3128C8.69451 54.1482 7.93441 53.7419 7.33782 53.1454C6.74123 52.5488 6.33495 51.7887 6.17035 50.9612C6.00575 50.1337 6.09021 49.2759 6.41309 48.4965C6.73596 47.717 7.28273 47.0507 7.98425 46.582C8.68577 46.1133 9.51053 45.8631 10.3542 45.8631C11.4856 45.8631 12.5707 46.3125 13.3707 47.1125C14.1707 47.9125 14.6201 48.9975 14.6201 50.1289Z" fill="#B83971"/>
<path id="Vector_27" style="mix-blend-mode:screen" d="M12.2368 49.4179C12.2387 49.9493 12.0822 50.4691 11.7874 50.9112C11.4925 51.3532 11.0727 51.6973 10.5814 51.8997C10.0901 52.102 9.54962 52.1534 9.029 52.0473C8.50837 51.9411 8.03116 51.6822 7.65831 51.3037C7.28545 50.9251 7.03382 50.4441 6.93557 49.9219C6.83732 49.3997 6.8969 48.8601 7.10667 48.3719C7.31645 47.8838 7.6669 47.4692 8.11334 47.181C8.55978 46.8929 9.08195 46.7443 9.6132 46.7543C10.311 46.7699 10.9754 47.0568 11.4652 47.5541C11.955 48.0514 12.2318 48.72 12.2368 49.4179Z" fill="url(#paint16_linear_0_421)"/>
<g id="Clip path group_4">
<mask id="mask3_0_421" style="mask-type:luminance" maskUnits="userSpaceOnUse" x="6" y="45" width="9" height="10">
<g id="clip-path-4">
<path id="Vector_28" d="M14.6201 50.1289C14.6201 50.9726 14.37 51.7974 13.9012 52.4989C13.4325 53.2004 12.7662 53.7472 11.9868 54.0701C11.2073 54.393 10.3495 54.4774 9.52204 54.3128C8.69454 54.1482 7.93444 53.7419 7.33785 53.1454C6.74126 52.5488 6.33498 51.7887 6.17038 50.9612C6.00578 50.1337 6.09024 49.2759 6.41312 48.4965C6.73599 47.717 7.28276 47.0507 7.98428 46.582C8.6858 46.1133 9.51056 45.8631 10.3543 45.8631C11.4856 45.8631 12.5707 46.3125 13.3707 47.1125C14.1707 47.9125 14.6201 48.9975 14.6201 50.1289Z" fill="white"/>
</g>
</mask>
<g mask="url(#mask3_0_421)">
<g id="Group_5">
<path id="Vector_29" style="mix-blend-mode:multiply" d="M16.4026 46.8745C17.5241 48.4666 16.0821 51.4007 13.1782 53.4134C10.2742 55.4262 7.03972 55.7767 5.92819 54.1745C4.81666 52.5723 6.25865 49.6483 9.15263 47.6255C12.0466 45.6027 15.2911 45.2422 16.4026 46.8745Z" fill="url(#paint17_radial_0_421)"/>
<path id="Vector_30" style="mix-blend-mode:color-dodge" d="M17.4741 49.7484C18.5856 51.3506 17.1436 54.2746 14.2496 56.2974C11.3557 58.3202 8.10118 58.6506 6.98965 57.0484C5.87813 55.4462 7.32011 52.5222 10.2141 50.5095C13.1081 48.4967 16.3625 48.1562 17.4741 49.7484Z" fill="url(#paint18_radial_0_421)"/>
</g>
</g>
</g>
</g>
</g>
</g>
<defs>
<linearGradient id="paint0_linear_0_421" x1="56.2874" y1="79.6295" x2="49.1075" y2="60.353" gradientUnits="userSpaceOnUse">
<stop offset="0.11" stop-color="white"/>
<stop offset="1"/>
</linearGradient>
<linearGradient id="paint1_linear_0_421" x1="29.8811" y1="13.829" x2="56.0471" y2="36.5102" gradientUnits="userSpaceOnUse">
<stop offset="0.11" stop-color="white"/>
<stop offset="1"/>
</linearGradient>
<linearGradient id="paint2_linear_0_421" x1="97.0334" y1="59.9124" x2="59.7321" y2="44.6414" gradientUnits="userSpaceOnUse">
<stop offset="0.11" stop-color="white"/>
<stop offset="1"/>
</linearGradient>
<linearGradient id="paint3_linear_0_421" x1="3.77522" y1="-1.14157" x2="23.3021" y2="18.7257" gradientUnits="userSpaceOnUse">
<stop offset="0.11" stop-color="white"/>
<stop offset="1"/>
</linearGradient>
<linearGradient id="paint4_linear_0_421" x1="113.286" y1="61.3043" x2="74.142" y2="48.6168" gradientUnits="userSpaceOnUse">
<stop offset="0.11" stop-color="white"/>
<stop offset="1"/>
</linearGradient>
<linearGradient id="paint5_linear_0_421" x1="-10.174" y1="17.2637" x2="15.1909" y2="27.3676" gradientUnits="userSpaceOnUse">
<stop offset="0.11" stop-color="white"/>
<stop offset="1"/>
</linearGradient>
<linearGradient id="paint6_linear_0_421" x1="71.5484" y1="56.3074" x2="75.8042" y2="66.942" gradientUnits="userSpaceOnUse">
<stop offset="0.11" stop-color="white"/>
<stop offset="1"/>
</linearGradient>
<linearGradient id="paint7_linear_0_421" x1="40.9363" y1="26.9671" x2="46.4138" y2="41.1466" gradientUnits="userSpaceOnUse">
<stop offset="0.11" stop-color="white"/>
<stop offset="1"/>
</linearGradient>
<radialGradient id="paint8_radial_0_421" cx="0" cy="0" r="1" gradientUnits="userSpaceOnUse" gradientTransform="translate(48.6413 43.6397) rotate(-34.8567) scale(12.9867 7.16836)">
<stop offset="0.1" stop-color="#02AEC4"/>
<stop offset="0.37" stop-color="#76D3E0"/>
<stop offset="0.49" stop-color="#99DEE8"/>
<stop offset="0.64" stop-color="#BCE9F0"/>
<stop offset="0.78" stop-color="#DBF3F7"/>
<stop offset="1" stop-color="white"/>
</radialGradient>
<radialGradient id="paint9_radial_0_421" cx="0" cy="0" r="1" gradientUnits="userSpaceOnUse" gradientTransform="translate(50.472 46.6811) rotate(-34.8566) scale(16.0805 8.87611)">
<stop stop-color="#515463"/>
<stop offset="0.2" stop-color="#272930"/>
<stop offset="0.43" stop-color="#17181C"/>
<stop offset="0.6" stop-color="#101114"/>
<stop offset="0.81" stop-color="#070809"/>
<stop offset="1"/>
</radialGradient>
<linearGradient id="paint10_linear_0_421" x1="53.7239" y1="-4.35599" x2="57.9797" y2="6.27864" gradientUnits="userSpaceOnUse">
<stop offset="0.11" stop-color="white"/>
<stop offset="1"/>
</linearGradient>
<radialGradient id="paint11_radial_0_421" cx="0" cy="0" r="1" gradientUnits="userSpaceOnUse" gradientTransform="translate(58.9032 7.09946) rotate(-34.8567) scale(6.37874 3.52093)">
<stop offset="0.12" stop-color="#B75AD9"/>
<stop offset="0.41" stop-color="#D299E8"/>
<stop offset="0.56" stop-color="#E5C5F2"/>
<stop offset="0.68" stop-color="#EFDCF7"/>
<stop offset="0.83" stop-color="#F9F2FC"/>
<stop offset="1" stop-color="white"/>
</radialGradient>
<radialGradient id="paint12_radial_0_421" cx="0" cy="0" r="1" gradientUnits="userSpaceOnUse" gradientTransform="translate(59.9267 8.77607) rotate(-34.8566) scale(7.29545 4.02693)">
<stop stop-color="#515463"/>
<stop offset="0.2" stop-color="#272930"/>
<stop offset="0.43" stop-color="#17181C"/>
<stop offset="0.6" stop-color="#101114"/>
<stop offset="0.81" stop-color="#070809"/>
<stop offset="1"/>
</radialGradient>
<linearGradient id="paint13_linear_0_421" x1="71.5784" y1="56.4777" x2="75.8343" y2="67.1123" gradientUnits="userSpaceOnUse">
<stop offset="0.11" stop-color="white"/>
<stop offset="1"/>
</linearGradient>
<radialGradient id="paint14_radial_0_421" cx="0" cy="0" r="1" gradientUnits="userSpaceOnUse" gradientTransform="translate(76.6492 68.0679) rotate(-34.8567) scale(6.37874 3.52093)">
<stop offset="0.12" stop-color="#B75AD9"/>
<stop offset="0.41" stop-color="#D299E8"/>
<stop offset="0.56" stop-color="#E5C5F2"/>
<stop offset="0.68" stop-color="#EFDCF7"/>
<stop offset="0.83" stop-color="#F9F2FC"/>
<stop offset="1" stop-color="white"/>
</radialGradient>
<radialGradient id="paint15_radial_0_421" cx="0" cy="0" r="1" gradientUnits="userSpaceOnUse" gradientTransform="translate(77.6847 69.7618) rotate(-34.8566) scale(7.29545 4.02693)">
<stop stop-color="#515463"/>
<stop offset="0.2" stop-color="#272930"/>
<stop offset="0.43" stop-color="#17181C"/>
<stop offset="0.6" stop-color="#101114"/>
<stop offset="0.81" stop-color="#070809"/>
<stop offset="1"/>
</radialGradient>
<linearGradient id="paint16_linear_0_421" x1="6.07833" y1="40.706" x2="10.3342" y2="51.3406" gradientUnits="userSpaceOnUse">
<stop offset="0.11" stop-color="white"/>
<stop offset="1"/>
</linearGradient>
<radialGradient id="paint17_radial_0_421" cx="0" cy="0" r="1" gradientUnits="userSpaceOnUse" gradientTransform="translate(11.1151 51.3285) rotate(-34.8567) scale(6.37874 3.52093)">
<stop offset="0.12" stop-color="#B75AD9"/>
<stop offset="0.41" stop-color="#D299E8"/>
<stop offset="0.56" stop-color="#E5C5F2"/>
<stop offset="0.68" stop-color="#EFDCF7"/>
<stop offset="0.83" stop-color="#F9F2FC"/>
<stop offset="1" stop-color="white"/>
</radialGradient>
<radialGradient id="paint18_radial_0_421" cx="0" cy="0" r="1" gradientUnits="userSpaceOnUse" gradientTransform="translate(12.1946 54.2251) rotate(-34.8567) scale(6.37874 3.52093)">
<stop stop-color="#515463"/>
<stop offset="0.2" stop-color="#272930"/>
<stop offset="0.43" stop-color="#17181C"/>
<stop offset="0.6" stop-color="#101114"/>
<stop offset="0.81" stop-color="#070809"/>
<stop offset="1"/>
</radialGradient>
<clipPath id="clip0_0_421">
<rect width="94.1995" height="80" fill="white"/>
</clipPath>
</defs>
</svg>
