<svg width="77" height="80" viewBox="0 0 77 80" fill="none" xmlns="http://www.w3.org/2000/svg">
<g id="Frame" clip-path="url(#clip0_0_297)">
<g id="Group">
<g id="science">
<path id="Vector" d="M64.6808 44.4255C65.8857 43.9837 67.2041 43.9594 68.4245 44.3566C69.6448 44.7538 70.6963 45.5494 71.4103 46.6158C72.1243 47.6822 72.4593 48.9576 72.3616 50.2372C72.264 51.5169 71.7392 52.7266 70.8717 53.6723C70.0041 54.6179 68.844 55.2447 67.5775 55.4521C66.311 55.6595 65.0116 55.4354 63.8877 54.8157C62.7639 54.1961 61.8807 53.2169 61.3801 52.0353C60.8794 50.8536 60.7902 49.538 61.1268 48.2996L63.4893 49.4366C63.6137 49.4988 63.7493 49.5354 63.8881 49.5444C64.0269 49.5534 64.1661 49.5344 64.2974 49.4887C64.4288 49.4431 64.5497 49.3715 64.6529 49.2784C64.7562 49.1852 64.8398 49.0723 64.8987 48.9464C65.0205 48.6945 65.0374 48.4045 64.9454 48.1402C64.8535 47.8759 64.6604 47.659 64.4085 47.537L62.0391 46.3864C62.7092 45.4887 63.6276 44.807 64.6808 44.4255Z" fill="#FFC100"/>
<path id="Vector_2" style="mix-blend-mode:screen" d="M68.1259 47.4825C68.3435 48.0812 68.3787 48.7309 68.2271 49.3496C68.0754 49.9683 67.7436 50.528 67.2738 50.9581C66.8039 51.3883 66.2171 51.6694 65.5875 51.7659C64.9579 51.8625 64.3138 51.7702 63.7366 51.5007C63.1595 51.2311 62.6752 50.7965 62.3451 50.2517C62.015 49.707 61.8538 49.0765 61.882 48.4402C61.9102 47.8038 62.1265 47.1901 62.5035 46.6767C62.8805 46.1633 63.4013 45.7732 64 45.5557C64.8026 45.2642 65.6882 45.3035 66.4619 45.6648C67.2357 46.0261 67.8342 46.68 68.1259 47.4825Z" fill="url(#paint0_linear_0_297)"/>
<path id="Vector_3" d="M61.7396 27.8672C62.7011 27.5193 63.7397 27.4425 64.7419 27.6451C65.7442 27.8477 66.6714 28.322 67.4222 29.0162C68.173 29.7103 68.7185 30.5975 68.9991 31.5807C69.2796 32.564 69.2844 33.6055 69.0129 34.5913C68.7414 35.5771 68.2041 36.4693 67.4597 37.1703C66.7153 37.8712 65.7925 38.354 64.7921 38.5659C63.7918 38.7777 62.7525 38.7104 61.7878 38.3714C60.8232 38.0323 59.9703 37.4345 59.3225 36.6434L64.143 34.0357C64.265 33.97 64.3729 33.8809 64.4605 33.7735C64.5481 33.6661 64.6137 33.5424 64.6536 33.4097C64.6934 33.2769 64.7067 33.1376 64.6927 32.9997C64.6787 32.8618 64.6376 32.728 64.5719 32.6059C64.5062 32.4839 64.4171 32.376 64.3097 32.2884C64.2022 32.2008 64.0786 32.1352 63.9458 32.0954C63.8131 32.0555 63.6738 32.0423 63.5359 32.0563C63.398 32.0703 63.2642 32.1113 63.1421 32.177L58.3217 34.7779C57.8953 33.4074 58.0123 31.9255 58.6486 30.639C59.2849 29.3525 60.3916 28.3601 61.7396 27.8672Z" fill="#09B1BD"/>
<path id="Vector_4" style="mix-blend-mode:screen" d="M66.1855 30.5225C66.4275 31.1905 66.466 31.9153 66.2964 32.6052C66.1267 33.2951 65.7565 33.9193 65.2323 34.3989C64.7082 34.8785 64.0537 35.192 63.3515 35.2999C62.6493 35.4078 61.9308 35.3052 61.2869 35.0051C60.6429 34.705 60.1023 34.2208 59.7334 33.6136C59.3644 33.0065 59.1836 32.3036 59.2139 31.5938C59.2441 30.884 59.484 30.199 59.9032 29.6254C60.3224 29.0518 60.9022 28.6154 61.5694 28.3711C62.4668 28.0444 63.4573 28.0875 64.323 28.4909C65.1886 28.8944 65.8586 29.6252 66.1855 30.5225Z" fill="url(#paint1_linear_0_297)"/>
<path id="Vector_5" d="M32.7762 56.4902C33.7879 56.5341 34.7699 56.8459 35.6217 57.3937C36.4734 57.9415 37.1645 58.7056 37.6242 59.608C38.0839 60.5104 38.2957 61.5186 38.238 62.5297C38.1803 63.5408 37.8552 64.5184 37.2959 65.3626C36.7366 66.2069 35.9631 66.8875 35.0546 67.3348C34.1461 67.7822 33.135 67.9803 32.1248 67.9089C31.1146 67.8375 30.1415 67.4991 29.305 66.9284C28.4684 66.3576 27.7984 65.575 27.3634 64.6604L29.2494 64.1702H29.3447C29.4788 64.1291 29.6035 64.0619 29.7117 63.9726C29.8198 63.8833 29.9093 63.7735 29.9751 63.6496C30.0409 63.5257 30.0816 63.3901 30.0949 63.2504C30.1082 63.1108 30.0939 62.9699 30.0528 62.8358C30.0116 62.7016 29.9445 62.5769 29.8552 62.4688C29.7659 62.3606 29.6561 62.2711 29.5322 62.2053C29.4083 62.1396 29.2726 62.0989 29.133 62.0855C28.9933 62.0722 28.8524 62.0865 28.7183 62.1277L26.8323 62.6179C26.7439 61.3792 27.0625 60.1455 27.7397 59.1045C28.4169 58.0635 29.4156 57.2722 30.5838 56.8511L30.686 56.8102C31.3575 56.5776 32.0658 56.4691 32.7762 56.4902Z" fill="#ED0047"/>
<path id="Vector_6" style="mix-blend-mode:screen" d="M33.6885 60.017C33.9097 60.6204 33.947 61.2758 33.7956 61.9004C33.6442 62.525 33.3108 63.0906 32.8378 63.5256C32.3648 63.9606 31.7734 64.2456 31.1383 64.3443C30.5033 64.443 29.8533 64.3511 29.2705 64.0802C28.6877 63.8094 28.1984 63.3717 27.8645 62.8225C27.5306 62.2734 27.3671 61.6376 27.3947 60.9956C27.4224 60.3535 27.6398 59.7341 28.0197 59.2157C28.3995 58.6973 28.9246 58.3032 29.5285 58.0834C30.3366 57.7892 31.2284 57.8276 32.0083 58.1901C32.7881 58.5526 33.3924 59.2096 33.6885 60.017Z" fill="url(#paint2_linear_0_297)"/>
<path id="Vector_7" d="M54.5566 45.1132C53.8512 46.1344 52.8885 46.951 51.7659 47.4802C50.6433 48.0094 49.4007 48.2324 48.1641 48.1266C46.9275 48.0209 45.7409 47.5901 44.7244 46.878C43.708 46.1658 42.8979 45.1976 42.3762 44.0715L45.7464 43.1047H45.8144C46.07 43.0187 46.2829 42.8381 46.4095 42.6001C46.5361 42.3621 46.5668 42.0846 46.4953 41.8247C46.4147 41.5561 46.2318 41.3299 45.986 41.1949C45.7402 41.0599 45.4512 41.0268 45.1813 41.103L41.777 42.0698C41.5758 40.5417 41.8871 38.9901 42.6621 37.6579C43.0103 37.0408 43.4564 36.4843 43.983 36.0102C44.6633 35.3723 45.4675 34.8811 46.3455 34.5668C46.9542 34.3427 47.5914 34.2052 48.2383 34.1583C49.4103 34.0737 50.5848 34.2836 51.655 34.7687C52.7253 35.2539 53.6572 35.999 54.3659 36.9362C54.787 37.4911 55.1221 38.1062 55.36 38.7608V38.7949C55.8777 40.2258 55.9159 41.7863 55.4689 43.2409C55.2557 43.9053 54.9485 44.5358 54.5566 45.1132Z" fill="#ED0047"/>
<path id="Vector_8" style="mix-blend-mode:screen" d="M51.4179 38.3183C51.7218 39.1483 51.7726 40.0497 51.564 40.9086C51.3553 41.7674 50.8965 42.5451 50.2456 43.1431C49.5948 43.7411 48.7811 44.1325 47.9077 44.2678C47.0343 44.4031 46.1403 44.2763 45.339 43.9033C44.5377 43.5303 43.8651 42.928 43.4063 42.1725C42.9475 41.4171 42.7232 40.5425 42.7617 39.6595C42.8002 38.7765 43.0998 37.9247 43.6227 37.2121C44.1455 36.4995 44.868 35.958 45.6987 35.6562C46.8102 35.2524 48.0365 35.3058 49.1086 35.8049C50.1808 36.304 51.0112 37.2078 51.4179 38.3183Z" fill="url(#paint3_linear_0_297)"/>
<path id="Vector_9" d="M14.1072 30.2502C15.4042 29.7742 16.8127 29.6908 18.1569 30.0103C19.501 30.3298 20.7213 31.0381 21.6654 32.0468C22.6095 33.0555 23.2356 34.32 23.4655 35.6823C23.6954 37.0446 23.519 38.4445 22.9583 39.7072C22.5739 40.5696 22.0202 41.3459 21.3302 41.9903C20.6402 42.6348 19.8278 43.1341 18.9413 43.4587C17.2585 44.073 15.4044 44.0194 13.76 43.3089L15.1217 41.1438C15.2067 41.0259 15.2666 40.8918 15.2977 40.7498C15.3287 40.6077 15.3303 40.4609 15.3023 40.3182C15.2743 40.1755 15.2173 40.0401 15.1349 39.9204C15.0524 39.8007 14.9463 39.6991 14.823 39.6221C14.6997 39.545 14.5619 39.4941 14.4182 39.4725C14.2744 39.4508 14.1277 39.4589 13.9872 39.4963C13.8467 39.5336 13.7154 39.5994 13.6014 39.6896C13.4873 39.7797 13.393 39.8923 13.3242 40.0204L11.9625 42.1923C11.0336 41.3917 10.3298 40.3622 9.92112 39.2059C9.51239 38.0496 9.41282 36.8066 9.63227 35.6C9.85171 34.3933 10.3826 33.265 11.1723 32.3267C11.9619 31.3883 12.983 30.6725 14.1345 30.2502H14.1072Z" fill="#FFC100"/>
<path id="Vector_10" d="M48.2111 17.8383C49.6403 17.3201 51.2169 17.3908 52.5939 18.035C53.971 18.6791 55.0358 19.844 55.554 21.2732C56.0723 22.7024 56.0015 24.279 55.3574 25.6561C54.7132 27.0331 53.5484 28.0979 52.1191 28.6162C51.6802 28.7773 51.2227 28.8825 50.7574 28.9294L50.9617 26.3217C50.9619 26.0547 50.8614 25.7974 50.6804 25.6011C50.4994 25.4047 50.2511 25.2838 49.9849 25.2623C49.7188 25.2409 49.4543 25.3205 49.2442 25.4852C49.034 25.65 48.8937 25.8879 48.8511 26.1515L48.6468 28.766C47.4776 28.4446 46.4407 27.7603 45.6853 26.8118C44.93 25.8632 44.4952 24.6994 44.4437 23.488C44.3922 22.2765 44.7267 21.08 45.3988 20.0708C46.071 19.0616 47.0461 18.2918 48.1838 17.8724L48.2111 17.8383Z" fill="#ED0047"/>
<path id="Vector_11" style="mix-blend-mode:screen" d="M51.4859 21.0451C51.706 21.6488 51.742 22.3041 51.5895 22.9282C51.437 23.5523 51.1027 24.1172 50.6291 24.5513C50.1555 24.9854 49.5638 25.2693 48.9288 25.3671C48.2938 25.4648 47.644 25.3721 47.0618 25.1005C46.4795 24.8289 45.9909 24.3907 45.6577 23.8413C45.3246 23.292 45.1619 22.6562 45.1901 22.0143C45.2184 21.3724 45.4364 20.7534 45.8166 20.2355C46.1968 19.7175 46.7221 19.324 47.3259 19.1047C47.7265 18.9583 48.1519 18.8923 48.578 18.9107C49.004 18.929 49.4222 19.0312 49.8087 19.2115C50.1952 19.3917 50.5422 19.6465 50.8301 19.9611C51.1179 20.2758 51.3408 20.6442 51.4859 21.0451Z" fill="url(#paint4_linear_0_297)"/>
<path id="Vector_12" style="mix-blend-mode:screen" d="M19.9693 34.206C20.2973 35.1045 20.3514 36.0801 20.1247 37.0094C19.898 37.9387 19.4007 38.7798 18.6957 39.4263C17.9908 40.0728 17.1099 40.4956 16.1645 40.6413C15.2191 40.7869 14.2518 40.6488 13.3849 40.2445C12.5181 39.8402 11.7907 39.1877 11.2948 38.3698C10.7989 37.5519 10.5568 36.6052 10.5991 35.6496C10.6414 34.694 10.9663 33.7725 11.5326 33.0016C12.0989 32.2308 12.8812 31.6452 13.7804 31.3191C14.9841 30.8846 16.3109 30.9443 17.4707 31.4852C18.6305 32.0262 19.5288 33.0044 19.9693 34.206Z" fill="url(#paint5_linear_0_297)"/>
<path id="Vector_13" d="M59.3225 36.6434L55.3736 38.7677V38.7336C55.1357 38.0789 54.8006 37.4638 54.3795 36.9089L58.3285 34.7779L63.1489 32.177C63.271 32.1113 63.4047 32.0703 63.5427 32.0563C63.6806 32.0423 63.8199 32.0556 63.9526 32.0954C64.0854 32.1352 64.209 32.2008 64.3165 32.2884C64.4239 32.376 64.513 32.4839 64.5787 32.606C64.6444 32.728 64.6855 32.8618 64.6995 32.9997C64.7135 33.1376 64.7002 33.2769 64.6603 33.4097C64.6205 33.5425 64.5549 33.6661 64.4673 33.7735C64.3797 33.8809 64.2718 33.97 64.1498 34.0358L59.3225 36.6434Z" fill="url(#paint6_linear_0_297)"/>
<g id="Vector_14" style="mix-blend-mode:multiply">
<path d="M55.1966 36.4596L54.3727 36.9089C54.7938 37.4638 55.1289 38.0789 55.3668 38.7336V38.7677L56.5106 38.1481C56.2541 37.4649 55.7958 36.876 55.1966 36.4596Z" fill="#B8B8B8"/>
</g>
<path id="Vector_15" d="M35.9217 45.9234C36.0384 47.1777 35.7362 48.4352 35.0624 49.4995C34.3885 50.5639 33.3811 51.3749 32.1974 51.806H32.1021C31.4325 52.0458 30.7224 52.1522 30.0119 52.1191C28.9564 52.0785 27.9334 51.7432 27.0586 51.1512C26.1838 50.5592 25.4922 49.7341 25.0621 48.7694L28.2417 48.0068L28.3574 47.966C28.6283 47.8847 28.8558 47.6992 28.9898 47.4502C29.1239 47.2012 29.1536 46.9092 29.0723 46.6383C28.9911 46.3674 28.8055 46.14 28.5566 46.0059C28.3076 45.8718 28.0155 45.8422 27.7447 45.9234L24.5651 46.6928C24.5024 45.6389 24.7384 44.5887 25.2459 43.663C25.5873 43.0317 26.0501 42.474 26.6076 42.0221C27.1045 41.6035 27.6715 41.2762 28.2825 41.0553C28.8552 40.8473 29.4574 40.7324 30.0664 40.7149C30.7758 40.6913 31.4832 40.8046 32.1498 41.0485C33.5227 41.5379 34.6542 42.5377 35.3089 43.84C35.3974 44.0374 35.4928 44.2485 35.5676 44.4596C35.7491 44.93 35.8681 45.4221 35.9217 45.9234Z" fill="#FFC100"/>
<path id="Vector_16" style="mix-blend-mode:screen" d="M31.5098 44.1736C31.7274 44.7723 31.7626 45.422 31.6109 46.0407C31.4592 46.6593 31.1275 47.2191 30.6576 47.6492C30.1878 48.0793 29.6009 48.3605 28.9713 48.457C28.3417 48.5536 27.6976 48.4613 27.1204 48.1917C26.5433 47.9222 26.059 47.4876 25.7289 46.9428C25.3988 46.3981 25.2376 45.7676 25.2658 45.1313C25.294 44.4949 25.5103 43.8812 25.8873 43.3678C26.2643 42.8543 26.7851 42.4642 27.3838 42.2468C28.1865 41.9553 29.072 41.9946 29.8458 42.3559C30.6195 42.7172 31.218 43.3711 31.5098 44.1736Z" fill="url(#paint7_linear_0_297)"/>
<path id="Vector_17" d="M62.0323 46.3864L64.4017 47.537C64.6535 47.659 64.8467 47.8759 64.9386 48.1402C65.0305 48.4045 65.0137 48.6945 64.8919 48.9464C64.8329 49.0723 64.7494 49.1852 64.6461 49.2784C64.5428 49.3715 64.422 49.4431 64.2906 49.4887C64.1593 49.5344 64.0201 49.5534 63.8813 49.5444C63.7425 49.5354 63.6069 49.4988 63.4825 49.4366L61.12 48.2996L54.5566 45.1132C54.9532 44.5278 55.2628 43.8879 55.4757 43.2136L62.0323 46.3864Z" fill="url(#paint8_linear_0_297)"/>
<g id="Vector_18" style="mix-blend-mode:multiply">
<path d="M55.4757 43.2136C55.2628 43.8879 54.9532 44.5278 54.5566 45.1132L56.0136 45.7941C56.5389 45.2981 56.9682 44.7095 57.28 44.0579L55.4757 43.2136Z" fill="#B8B8B8"/>
</g>
<path id="Vector_19" d="M33.7634 22.5702C34.7513 22.6908 35.6949 23.0502 36.5127 23.6173C37.3305 24.1845 37.9979 24.9423 38.4571 25.8252C38.9164 26.7081 39.1536 27.6896 39.1484 28.6848C39.1432 29.68 38.8957 30.659 38.4272 31.537C38.0828 32.1586 37.6336 32.7159 37.0996 33.1847C36.5332 33.6917 35.8744 34.0847 35.1591 34.3421C34.5257 34.5725 33.8586 34.6967 33.1847 34.7098L33.5796 32.2383C33.6018 31.9719 33.5227 31.7069 33.3582 31.4963C33.1936 31.2856 32.9557 31.1447 32.6918 31.1017C32.428 31.0588 32.1577 31.1169 31.9348 31.2644C31.7119 31.412 31.5528 31.6382 31.4894 31.8979L31.1013 34.3762C29.9093 33.9694 28.8732 33.2025 28.1359 32.1814C27.3986 31.1604 26.9966 29.9356 26.9853 28.6762C26.9741 27.4168 27.3543 26.185 28.0733 25.151C28.7923 24.117 29.8147 23.3318 30.9991 22.9038C31.2217 22.8236 31.4491 22.7576 31.68 22.7064C32.3617 22.5431 33.0662 22.497 33.7634 22.5702Z" fill="#09B1BD"/>
<path id="Vector_20" style="mix-blend-mode:screen" d="M34.9277 26.2128C35.1864 26.9226 35.2289 27.6932 35.0496 28.4271C34.8704 29.1611 34.4776 29.8254 33.9207 30.336C33.3639 30.8466 32.6682 31.1807 31.9215 31.2959C31.1749 31.4111 30.4108 31.3023 29.726 30.9832C29.0412 30.6641 28.4663 30.1491 28.0742 29.5033C27.6821 28.8576 27.4903 28.11 27.5231 27.3552C27.5559 26.6004 27.8118 25.8723 28.2585 25.2629C28.7051 24.6536 29.3224 24.1904 30.0323 23.9319C30.5035 23.7594 31.004 23.6816 31.5053 23.7029C32.0065 23.7243 32.4987 23.8443 32.9534 24.0562C33.4082 24.2681 33.8167 24.5677 34.1555 24.9377C34.4942 25.3078 34.7567 25.7411 34.9277 26.2128Z" fill="url(#paint9_linear_0_297)"/>
<path id="Vector_21" d="M28.7183 62.1141C28.8524 62.0729 28.9933 62.0586 29.133 62.0719C29.2726 62.0853 29.4083 62.126 29.5322 62.1917C29.6561 62.2575 29.7658 62.347 29.8552 62.4552C29.9445 62.5633 30.0116 62.688 30.0527 62.8221C30.0939 62.9562 30.1082 63.0972 30.0949 63.2368C30.0815 63.3764 30.0408 63.5121 29.9751 63.636C29.9093 63.7599 29.8198 63.8697 29.7116 63.959C29.6035 64.0483 29.4788 64.1155 29.3447 64.1566H29.2493L27.3634 64.6468L20.4664 66.4511C20.425 65.9014 20.3058 65.3604 20.1123 64.8443C20.0628 64.6953 20.0037 64.5498 19.9353 64.4085L26.8323 62.6043L28.7183 62.1141Z" fill="url(#paint10_linear_0_297)"/>
<g id="Vector_22" style="mix-blend-mode:multiply">
<path d="M21.3583 64.0204L19.9353 64.3949C20.0037 64.5362 20.0628 64.6817 20.1123 64.8306C20.3058 65.3468 20.425 65.8878 20.4664 66.4374L22.0596 66.0221C21.9473 65.3184 21.7098 64.6404 21.3583 64.0204Z" fill="#B8B8B8"/>
</g>
<path id="Vector_23" d="M32.1021 51.8332L32.783 56.4834C32.0734 56.458 31.3652 56.5618 30.6928 56.7898L30.0119 52.1396C30.722 52.1748 31.432 52.0708 32.1021 51.8332Z" fill="url(#paint11_linear_0_297)"/>
<g id="Vector_24" style="mix-blend-mode:multiply">
<path d="M32.1021 51.8332C31.4325 52.0731 30.7224 52.1795 30.0119 52.1464L30.1957 53.3787C30.9012 53.5041 31.6251 53.4786 32.32 53.3038L32.1089 51.84L32.1021 51.8332Z" fill="#B8B8B8"/>
</g>
<path id="Vector_25" d="M45.1608 41.0757C45.4308 40.9996 45.7198 41.0326 45.9656 41.1676C46.2114 41.3026 46.3943 41.5288 46.4749 41.7974C46.5464 42.0574 46.5157 42.3348 46.3891 42.5729C46.2624 42.8109 46.0495 42.9914 45.794 43.0774H45.7259L42.3557 44.0443L35.9013 45.8962C35.854 45.4148 35.7465 44.9413 35.5813 44.4868C35.5064 44.2757 35.4111 44.0647 35.3225 43.8672L41.7702 42.0153L45.1608 41.0757Z" fill="url(#paint12_linear_0_297)"/>
<g id="Vector_26" style="mix-blend-mode:multiply">
<path d="M36.8544 43.4587L35.343 43.8945C35.4315 44.0919 35.5268 44.303 35.6017 44.514C35.7669 44.9686 35.8745 45.4421 35.9217 45.9234L37.7532 45.3991C37.6656 44.6738 37.3511 43.9946 36.8544 43.4587Z" fill="#B8B8B8"/>
</g>
<path id="Vector_27" d="M50.0085 25.1575C50.2892 25.1784 50.5502 25.3099 50.734 25.5231C50.9179 25.7363 51.0095 26.0137 50.9889 26.2945L50.7847 28.9021L50.3625 34.3013C49.6716 34.1384 48.96 34.081 48.2519 34.1311L48.674 28.7387L48.8783 26.1243C48.9009 25.8465 49.0324 25.589 49.2441 25.4079C49.4559 25.2268 49.7306 25.1368 50.0085 25.1575Z" fill="url(#paint13_linear_0_297)"/>
<g id="Vector_28" style="mix-blend-mode:multiply">
<path d="M48.2519 34.1311C48.96 34.081 49.6716 34.1383 50.3625 34.3013L50.4442 33.2323C49.7383 33.1139 49.0158 33.1394 48.32 33.3072L48.2519 34.1311Z" fill="#B8B8B8"/>
</g>
<path id="Vector_29" d="M43.9966 35.9762C43.47 36.4502 43.0239 37.0067 42.6757 37.6238L37.0995 33.1779C37.6336 32.7091 38.0827 32.1517 38.4272 31.5302L43.9966 35.9762Z" fill="url(#paint14_linear_0_297)"/>
<g id="Vector_30" style="mix-blend-mode:multiply">
<path d="M38.4272 31.537C38.0827 32.1585 37.6336 32.7159 37.0995 33.1847L37.8961 33.8179C38.4459 33.3688 38.9076 32.8217 39.2578 32.2043L38.4272 31.537Z" fill="#B8B8B8"/>
</g>
<path id="Vector_31" d="M32.177 14.0664C32.3155 14.0562 32.4546 14.0739 32.5862 14.1183C32.7178 14.1627 32.8391 14.2329 32.9432 14.3249C33.0472 14.4169 33.1318 14.5287 33.192 14.6539C33.2522 14.779 33.2867 14.9149 33.2936 15.0536L33.4298 17.1643L33.7634 22.5702C33.0572 22.4939 32.3432 22.54 31.6527 22.7064L31.3191 17.2936L31.1898 15.183C31.1805 15.0447 31.1988 14.9059 31.2436 14.7748C31.2883 14.6436 31.3586 14.5226 31.4504 14.4187C31.5422 14.3149 31.6537 14.2303 31.7784 14.1698C31.9032 14.1093 32.0386 14.0742 32.177 14.0664Z" fill="url(#paint15_linear_0_297)"/>
<g id="Vector_32" style="mix-blend-mode:multiply">
<path d="M31.5983 21.8077L31.6528 22.7132C32.3432 22.5468 33.0573 22.5007 33.7634 22.577L33.6749 21.1541C32.9495 21.2477 32.2465 21.4689 31.5983 21.8077Z" fill="#B8B8B8"/>
</g>
<path id="Vector_33" d="M32.6808 31.0264C32.9576 31.0716 33.2052 31.2243 33.3697 31.4514C33.5343 31.6784 33.6023 31.9613 33.5591 32.2383L33.1643 34.7098L32.1566 41.103C31.49 40.8591 30.7826 40.7458 30.0732 40.7694L31.0877 34.3762L31.4757 31.8979C31.5225 31.6238 31.675 31.379 31.9003 31.216C32.1256 31.0531 32.4059 30.985 32.6808 31.0264Z" fill="url(#paint16_linear_0_297)"/>
<g id="Vector_34" style="mix-blend-mode:multiply">
<path d="M30.1957 40.0749L30.0868 40.7557C30.7962 40.7322 31.5036 40.8455 32.1702 41.0894L32.4357 39.4145C32.0377 39.3087 31.6182 39.3143 31.2232 39.4308C30.8281 39.5473 30.4727 39.7701 30.1957 40.0749Z" fill="#B8B8B8"/>
</g>
<path id="Vector_35" d="M22.9311 39.7072L26.6281 42.0766C26.0705 42.5285 25.6077 43.0861 25.2664 43.7174L21.7872 41.4911C22.2577 40.9586 22.6435 40.357 22.9311 39.7072Z" fill="url(#paint17_linear_0_297)"/>
<g id="Vector_36" style="mix-blend-mode:multiply">
<path d="M22.9311 39.7072C22.6435 40.357 22.2577 40.9586 21.7872 41.4911L22.3864 41.8723C23.0029 41.471 23.5521 40.9746 24.0136 40.4017L22.9311 39.7072Z" fill="#B8B8B8"/>
</g>
<path id="Vector_37" d="M27.7447 45.9779C28.0155 45.8966 28.3076 45.9263 28.5566 46.0604C28.8055 46.1944 28.9911 46.4219 29.0723 46.6928C29.1536 46.9636 29.1239 47.2557 28.9899 47.5047C28.8558 47.7536 28.6283 47.9392 28.3574 48.0204L28.2417 48.0613L25.0621 48.8238L14.0391 51.4791C13.9778 50.8661 13.8429 50.2626 13.6374 49.6817C13.6374 49.5932 13.5694 49.5047 13.5353 49.4298L24.5651 46.7745L27.7447 45.9779Z" fill="url(#paint18_linear_0_297)"/>
<g id="Vector_38" style="mix-blend-mode:multiply">
<path d="M14.434 49.1847L13.5353 49.4026C13.5694 49.4774 13.6034 49.566 13.6374 49.6545C13.8429 50.2354 13.9778 50.8388 14.0391 51.4519L14.9719 51.2272C15.0272 50.8681 15.0079 50.5014 14.9154 50.15C14.8229 49.7986 14.659 49.47 14.434 49.1847Z" fill="#B8B8B8"/>
</g>
<path id="Vector_39" d="M14.7472 39.68C14.9852 39.8301 15.1544 40.068 15.2181 40.342C15.2818 40.616 15.235 40.9041 15.0876 41.1438L13.7259 43.3089L11.5949 46.7132C11.0614 46.2478 10.4569 45.8708 9.80423 45.5966L11.9285 42.1924L13.2902 40.0204C13.4402 39.7843 13.6768 39.6164 13.9492 39.5528C14.2216 39.4891 14.5081 39.5348 14.7472 39.68Z" fill="url(#paint19_linear_0_297)"/>
<g id="Vector_40" style="mix-blend-mode:multiply">
<path d="M9.81107 45.6375C10.4523 45.9059 11.0474 46.2735 11.5745 46.7268L12.4119 45.3651C11.6829 45.0525 10.8802 44.9533 10.097 45.0792L9.81107 45.6375Z" fill="#B8B8B8"/>
</g>
<path id="Vector_41" d="M19.9353 64.4085C20.0036 64.5498 20.0628 64.6953 20.1123 64.8443C20.3058 65.3604 20.425 65.9014 20.4664 66.4511C20.602 68.0239 20.142 69.5903 19.1775 70.84C18.213 72.0897 16.8143 72.9316 15.2585 73.199C13.7026 73.4664 12.1031 73.1397 10.7767 72.2837C9.45033 71.4277 8.49379 70.1047 8.09655 68.5769C7.69931 67.0491 7.89035 65.4277 8.63182 64.0341C9.3733 62.6404 10.6111 61.576 12.1002 61.0517C13.5892 60.5275 15.2208 60.5815 16.6719 61.2032C18.123 61.8249 19.2877 62.9688 19.9353 64.4085Z" fill="#09B1BD"/>
<path id="Vector_42" style="mix-blend-mode:screen" d="M15.9047 65.1847C16.1621 65.8933 16.2036 66.6624 16.024 67.3946C15.8444 68.1269 15.4517 68.7894 14.8956 69.2986C14.3395 69.8077 13.645 70.1405 12.8998 70.2549C12.1545 70.3694 11.3921 70.2603 10.7089 69.9416C10.0256 69.6228 9.45224 69.1086 9.06118 68.464C8.67012 67.8194 8.47895 67.0733 8.51184 66.3201C8.54473 65.5668 8.80019 64.8403 9.24594 64.2322C9.6917 63.6241 10.3077 63.1618 11.0162 62.9038C11.9669 62.5594 13.0155 62.6062 13.9319 63.0337C14.8483 63.4613 15.5577 64.2348 15.9047 65.1847Z" fill="url(#paint20_linear_0_297)"/>
<path id="Vector_43" d="M30.4136 7.90468C31.6183 7.50235 32.9324 7.58606 34.0763 8.13799C35.2202 8.68991 36.1035 9.66647 36.5383 10.8598C36.973 12.0532 36.9249 13.3691 36.4041 14.5275C35.8833 15.6859 34.9309 16.5953 33.7498 17.0621L33.4298 17.1642L33.2936 15.0536C33.2922 14.9104 33.2617 14.769 33.204 14.638C33.1462 14.507 33.0624 14.3891 32.9576 14.2915C32.8528 14.1939 32.7293 14.1186 32.5945 14.0703C32.4597 14.022 32.3165 14.0016 32.1736 14.0104C32.0307 14.0192 31.891 14.057 31.7632 14.1214C31.6353 14.1859 31.5219 14.2757 31.4299 14.3854C31.3378 14.4951 31.2691 14.6224 31.2278 14.7595C31.1865 14.8966 31.1736 15.0407 31.1898 15.183L31.3191 17.2936C30.2512 17.1265 29.2693 16.6087 28.5282 15.8219C27.7871 15.035 27.3289 14.0239 27.226 12.948C27.123 11.872 27.381 10.7923 27.9594 9.87917C28.5378 8.96603 29.4036 8.27137 30.4204 7.90468H30.4136Z" fill="#FFC100"/>
<path id="Vector_44" style="mix-blend-mode:screen" d="M33.2392 10.5192C33.4304 11.0457 33.4612 11.6171 33.3277 12.1612C33.1942 12.7052 32.9023 13.1974 32.489 13.5756C32.0758 13.9538 31.5596 14.2009 31.0059 14.2857C30.4522 14.3706 29.8857 14.2893 29.3782 14.0522C28.8706 13.8151 28.4448 13.4328 28.1545 12.9537C27.8642 12.4746 27.7226 11.9201 27.7474 11.3605C27.7723 10.8009 27.9625 10.2611 28.2941 9.80962C28.6256 9.3581 29.0837 9.01504 29.6102 8.82383C29.9597 8.69595 30.3311 8.63839 30.7029 8.65444C31.0748 8.67049 31.4398 8.75985 31.777 8.91738C32.1142 9.07491 32.4169 9.29752 32.6679 9.5724C32.9188 9.84728 33.1129 10.169 33.2392 10.5192Z" fill="url(#paint21_linear_0_297)"/>
<path id="Vector_45" d="M14.0391 51.4519C14.1758 52.9871 13.805 54.5247 12.9834 55.8287C12.1619 57.1328 10.9351 58.1312 9.49143 58.6708C8.04771 59.2103 6.46682 59.2612 4.9914 58.8156C3.51598 58.37 2.22757 57.4525 1.32391 56.204C0.420245 54.9554 -0.0487206 53.4448 -0.0110143 51.904C0.0266921 50.3633 0.568989 48.8774 1.53264 47.6746C2.49629 46.4717 3.82804 45.6184 5.32349 45.2454C6.81895 44.8725 8.39546 45.0007 9.81105 45.6102C10.4541 45.887 11.0493 46.2639 11.5745 46.7268C12.4245 47.4505 13.0877 48.3683 13.5081 49.4025C13.5421 49.4774 13.5762 49.5659 13.6102 49.6545C13.8249 50.2342 13.969 50.8377 14.0391 51.4519Z" fill="#ED0047"/>
<path id="Vector_46" style="mix-blend-mode:screen" d="M9.70893 49.634C10.0115 50.4628 10.0614 51.3628 9.85235 52.2199C9.6433 53.0771 9.18469 53.853 8.53454 54.4495C7.8844 55.0459 7.07193 55.4361 6.19996 55.5707C5.32799 55.7053 4.43569 55.5782 3.63598 55.2055C2.83626 54.8328 2.16506 54.2313 1.70732 53.477C1.24957 52.7227 1.02585 51.8496 1.06445 50.9682C1.10306 50.0867 1.40225 49.2365 1.92419 48.5252C2.44613 47.8138 3.16735 47.2733 3.99659 46.9719C5.10716 46.5683 6.3325 46.622 7.40353 47.1211C8.47457 47.6203 9.30373 48.5241 9.70893 49.634Z" fill="url(#paint22_linear_0_297)"/>
<g id="Clip path group">
<mask id="mask0_0_297" style="mask-type:luminance" maskUnits="userSpaceOnUse" x="24" y="40" width="12" height="13">
<g id="clip-path">
<path id="Vector_47" d="M35.9217 45.9234C36.0384 47.1777 35.7362 48.4352 35.0624 49.4995C34.3885 50.5639 33.3811 51.3749 32.1974 51.806H32.1021C31.4325 52.0458 30.7224 52.1522 30.0119 52.1191C28.9564 52.0785 27.9334 51.7432 27.0586 51.1512C26.1838 50.5592 25.4922 49.7341 25.0621 48.7694L28.2417 48.0068L28.3574 47.966C28.6283 47.8847 28.8558 47.6992 28.9898 47.4502C29.1239 47.2012 29.1536 46.9092 29.0723 46.6383C28.9911 46.3674 28.8055 46.14 28.5566 46.0059C28.3076 45.8718 28.0155 45.8422 27.7447 45.9234L24.5651 46.6928C24.5024 45.6389 24.7384 44.5887 25.2459 43.663C25.5873 43.0317 26.0501 42.474 26.6076 42.0221C27.1045 41.6035 27.6715 41.2762 28.2825 41.0553C28.8552 40.8473 29.4574 40.7324 30.0664 40.7149C30.7758 40.6913 31.4832 40.8046 32.1498 41.0485C33.5227 41.5379 34.6542 42.5377 35.3089 43.84C35.3974 44.0374 35.4928 44.2485 35.5676 44.4596C35.7491 44.93 35.8681 45.4221 35.9217 45.9234Z" fill="white"/>
</g>
</mask>
<g mask="url(#mask0_0_297)">
<g id="Group_2">
<path id="Vector_48" style="mix-blend-mode:multiply" d="M37.0587 40.1158C39.217 41.6273 38.7336 46.0187 35.9966 49.9132C33.2596 53.8077 29.2834 55.7413 27.1455 54.2298C25.0077 52.7183 25.4706 48.3268 28.2145 44.4324C30.9583 40.5379 34.9072 38.6043 37.0587 40.1158Z" fill="url(#paint23_radial_0_297)"/>
<path id="Vector_49" style="mix-blend-mode:color-dodge" d="M40.3404 39.8502C43.1523 41.8247 42.5328 47.5643 38.9447 52.6638C35.3566 57.7634 30.1685 60.2894 27.3702 58.3081C24.5719 56.3268 25.1847 50.5941 28.766 45.4945C32.3472 40.3949 37.5217 37.8689 40.3404 39.8502Z" fill="url(#paint24_radial_0_297)"/>
</g>
</g>
</g>
<g id="Clip path group_2">
<mask id="mask1_0_297" style="mask-type:luminance" maskUnits="userSpaceOnUse" x="9" y="29" width="15" height="15">
<g id="clip-path-2">
<path id="Vector_50" d="M14.1072 30.2502C15.4042 29.7742 16.8127 29.6908 18.1569 30.0103C19.501 30.3298 20.7213 31.0381 21.6654 32.0468C22.6095 33.0555 23.2356 34.32 23.4655 35.6823C23.6954 37.0446 23.519 38.4445 22.9583 39.7072C22.5739 40.5696 22.0202 41.3459 21.3302 41.9903C20.6402 42.6348 19.8278 43.1341 18.9413 43.4587C17.2585 44.073 15.4044 44.0194 13.76 43.3089L15.1217 41.1438C15.2067 41.0259 15.2666 40.8918 15.2977 40.7498C15.3287 40.6077 15.3303 40.4609 15.3023 40.3182C15.2743 40.1755 15.2173 40.0401 15.1349 39.9204C15.0524 39.8007 14.9463 39.6991 14.823 39.6221C14.6997 39.545 14.5619 39.4941 14.4182 39.4725C14.2744 39.4508 14.1277 39.4589 13.9872 39.4963C13.8467 39.5336 13.7154 39.5994 13.6014 39.6896C13.4873 39.7797 13.393 39.8923 13.3242 40.0204L11.9625 42.1923C11.0336 41.3917 10.3298 40.3622 9.92112 39.2059C9.51239 38.0496 9.41282 36.8066 9.63227 35.6C9.85171 34.3933 10.3826 33.265 11.1723 32.3267C11.9619 31.3883 12.983 30.6725 14.1345 30.2502H14.1072Z" fill="white"/>
</g>
</mask>
<g mask="url(#mask1_0_297)">
<g id="Group_3">
<path id="Vector_51" style="mix-blend-mode:multiply" d="M23.3464 30.1685C25.7906 31.8911 25.2459 36.8613 22.1413 41.2732C19.0366 45.6851 14.5361 47.8843 12.0987 46.1685C9.66125 44.4528 10.2127 39.5098 13.3038 35.0638C16.3949 30.6179 20.9089 28.4596 23.3464 30.1685Z" fill="url(#paint25_radial_0_297)"/>
<path id="Vector_52" style="mix-blend-mode:color-dodge" d="M28.8749 27.6766C32.5515 30.257 31.7345 37.7396 27.057 44.3915C22.3796 51.0434 15.6119 54.3319 11.9353 51.7515C8.2587 49.1711 9.08253 41.6885 13.76 35.0366C18.4374 28.3847 25.1915 25.0894 28.8749 27.6766Z" fill="url(#paint26_radial_0_297)"/>
</g>
</g>
</g>
<g id="Clip path group_3">
<mask id="mask2_0_297" style="mask-type:luminance" maskUnits="userSpaceOnUse" x="26" y="22" width="14" height="13">
<g id="clip-path-3">
<path id="Vector_53" d="M33.7634 22.5702C34.7513 22.6908 35.6949 23.0502 36.5127 23.6173C37.3305 24.1845 37.9979 24.9423 38.4571 25.8252C38.9164 26.7081 39.1536 27.6896 39.1484 28.6848C39.1432 29.68 38.8957 30.659 38.4272 31.537C38.0828 32.1586 37.6336 32.7159 37.0996 33.1847C36.5332 33.6917 35.8744 34.0847 35.1591 34.3421C34.5257 34.5725 33.8586 34.6967 33.1847 34.7098L33.5796 32.2383C33.6018 31.9719 33.5227 31.7069 33.3582 31.4963C33.1936 31.2856 32.9557 31.1447 32.6918 31.1017C32.428 31.0588 32.1577 31.1169 31.9348 31.2644C31.7119 31.412 31.5528 31.6382 31.4894 31.8979L31.1013 34.3762C29.9093 33.9694 28.8732 33.2025 28.1359 32.1814C27.3986 31.1604 26.9966 29.9356 26.9853 28.6762C26.9741 27.4168 27.3543 26.185 28.0733 25.151C28.7923 24.117 29.8147 23.3318 30.9991 22.9038C31.2217 22.8236 31.4491 22.7576 31.68 22.7064C32.3617 22.5431 33.0662 22.497 33.7634 22.5702Z" fill="white"/>
</g>
</mask>
<g mask="url(#mask2_0_297)">
<g id="Group_4">
<path id="Vector_54" style="mix-blend-mode:multiply" d="M39.2374 21.6306C41.5183 23.2374 41.0076 27.8809 38.1072 32.0068C35.2068 36.1328 31.0059 38.1821 28.7251 36.5753C26.4442 34.9685 26.9549 30.3319 29.8553 26.1992C32.7557 22.0664 36.9566 20.0306 39.2374 21.6306Z" fill="url(#paint27_radial_0_297)"/>
<path id="Vector_55" style="mix-blend-mode:color-dodge" d="M43.4655 21.9302C46.2774 23.9115 45.651 29.6511 42.0698 34.7507C38.4885 39.8502 33.2936 42.3762 30.4953 40.3949C27.697 38.4136 28.303 32.6741 31.891 27.5745C35.4791 22.4749 40.6468 19.9489 43.4655 21.9302Z" fill="url(#paint28_radial_0_297)"/>
</g>
</g>
</g>
<g id="Clip path group_4">
<mask id="mask3_0_297" style="mask-type:luminance" maskUnits="userSpaceOnUse" x="58" y="27" width="12" height="12">
<g id="clip-path-4">
<path id="Vector_56" d="M61.7396 27.8672C62.7011 27.5193 63.7397 27.4425 64.7419 27.6451C65.7442 27.8477 66.6714 28.322 67.4222 29.0162C68.173 29.7103 68.7185 30.5975 68.9991 31.5807C69.2796 32.564 69.2844 33.6055 69.0129 34.5913C68.7414 35.5771 68.2041 36.4693 67.4597 37.1703C66.7153 37.8712 65.7925 38.354 64.7921 38.5659C63.7918 38.7777 62.7525 38.7104 61.7878 38.3714C60.8232 38.0323 59.9703 37.4345 59.3225 36.6434L64.143 34.0357C64.265 33.97 64.3729 33.8809 64.4605 33.7735C64.5481 33.6661 64.6137 33.5424 64.6536 33.4097C64.6934 33.2769 64.7067 33.1376 64.6927 32.9997C64.6787 32.8618 64.6376 32.728 64.5719 32.6059C64.5062 32.4839 64.4171 32.376 64.3097 32.2884C64.2022 32.2008 64.0786 32.1352 63.9458 32.0954C63.8131 32.0555 63.6738 32.0423 63.5359 32.0563C63.398 32.0703 63.2642 32.1113 63.1421 32.177L58.3217 34.7779C57.8953 33.4074 58.0123 31.9255 58.6486 30.639C59.2849 29.3525 60.3916 28.3601 61.7396 27.8672Z" fill="white"/>
</g>
</mask>
<g mask="url(#mask3_0_297)">
<g id="Group_5">
<path id="Vector_57" style="mix-blend-mode:multiply" d="M69.3243 28.3574C71.217 29.7192 70.8017 33.5524 68.3847 36.9838C65.9677 40.4153 62.4817 42.1106 60.5889 40.7762C58.6962 39.4417 59.1183 35.5881 61.5285 32.1566C63.9387 28.7251 67.4043 27.0298 69.3243 28.3574Z" fill="url(#paint29_radial_0_297)"/>
<path id="Vector_58" style="mix-blend-mode:color-dodge" d="M74.0221 26.3013C76.8409 28.2826 76.2145 34.0221 72.6264 39.1217C69.0383 44.2213 63.8502 46.7472 61.0519 44.766C58.2536 42.7847 58.8664 37.0451 62.4545 31.9455C66.0426 26.846 71.2102 24.3268 74.0221 26.3013Z" fill="url(#paint30_radial_0_297)"/>
</g>
</g>
</g>
<g id="Clip path group_5">
<mask id="mask4_0_297" style="mask-type:luminance" maskUnits="userSpaceOnUse" x="7" y="60" width="14" height="14">
<g id="clip-path-5">
<path id="Vector_59" d="M19.9353 64.4085C20.0036 64.5498 20.0628 64.6953 20.1123 64.8443C20.3058 65.3604 20.425 65.9014 20.4664 66.4511C20.602 68.0239 20.142 69.5903 19.1775 70.84C18.213 72.0897 16.8143 72.9316 15.2585 73.199C13.7026 73.4664 12.1031 73.1397 10.7767 72.2837C9.45033 71.4277 8.49379 70.1047 8.09655 68.5769C7.69931 67.0491 7.89035 65.4277 8.63182 64.0341C9.3733 62.6404 10.6111 61.576 12.1002 61.0517C13.5892 60.5275 15.2208 60.5815 16.6719 61.2032C18.123 61.8249 19.2877 62.9688 19.9353 64.4085Z" fill="white"/>
</g>
</mask>
<g mask="url(#mask4_0_297)">
<g id="Group_6">
<path id="Vector_60" style="mix-blend-mode:multiply" d="M20.5821 60.1872C22.863 61.7872 22.3591 66.4306 19.4519 70.5566C16.5447 74.6826 12.3506 76.7319 10.0698 75.1251C7.78891 73.5183 8.29955 68.8817 11.2 64.7557C14.1004 60.6298 18.3012 58.5736 20.5821 60.1872Z" fill="url(#paint31_radial_0_297)"/>
<path id="Vector_61" style="mix-blend-mode:color-dodge" d="M24.7217 60.8613C27.5404 62.8425 26.914 68.5821 23.3259 73.6817C19.7378 78.7813 14.5498 81.3072 11.7515 79.326C8.95317 77.3447 9.56594 71.6051 13.154 66.5055C16.7421 61.406 21.9098 58.88 24.7217 60.8613Z" fill="url(#paint32_radial_0_297)"/>
</g>
</g>
</g>
<g id="Clip path group_6">
<mask id="mask5_0_297" style="mask-type:luminance" maskUnits="userSpaceOnUse" x="41" y="34" width="15" height="15">
<g id="clip-path-6">
<path id="Vector_62" d="M54.5566 45.1132C53.8512 46.1344 52.8885 46.951 51.7659 47.4802C50.6433 48.0094 49.4007 48.2324 48.1641 48.1266C46.9275 48.0209 45.7409 47.5901 44.7244 46.878C43.708 46.1658 42.8979 45.1976 42.3762 44.0715L45.7464 43.1047H45.8144C46.07 43.0187 46.2829 42.8381 46.4095 42.6001C46.5361 42.3621 46.5668 42.0846 46.4953 41.8247C46.4147 41.5561 46.2318 41.3299 45.986 41.1949C45.7402 41.0599 45.4512 41.0268 45.1813 41.103L41.777 42.0698C41.5758 40.5417 41.8871 38.9901 42.6621 37.6579C43.0103 37.0408 43.4564 36.4843 43.983 36.0102C44.6633 35.3723 45.4675 34.8811 46.3455 34.5668C46.9542 34.3427 47.5914 34.2052 48.2383 34.1583C49.4103 34.0737 50.5848 34.2836 51.655 34.7687C52.7253 35.2539 53.6572 35.999 54.3659 36.9362C54.787 37.4911 55.1221 38.1062 55.36 38.7608V38.7949C55.8777 40.2258 55.9159 41.7863 55.4689 43.2409C55.2557 43.9053 54.9485 44.5358 54.5566 45.1132Z" fill="white"/>
</g>
</mask>
<g mask="url(#mask5_0_297)">
<g id="Group_7">
<path id="Vector_63" style="mix-blend-mode:multiply" d="M56.9804 33.2528C59.6221 35.1115 59.023 40.497 55.6664 45.2834C52.3098 50.0698 47.4349 52.4391 44.7728 50.5736C42.1106 48.7081 42.7302 43.3362 46.08 38.5498C49.4298 33.7634 54.3387 31.394 56.9804 33.2528Z" fill="url(#paint33_radial_0_297)"/>
<path id="Vector_64" style="mix-blend-mode:color-dodge" d="M59.0911 34.5464C61.7328 36.4051 61.0451 41.9404 57.5523 46.9038C54.0596 51.8672 49.0826 54.3932 46.4409 52.5277C43.7992 50.6621 44.4936 45.1404 47.9864 40.1702C51.4791 35.2 56.4494 32.7013 59.0911 34.5464Z" fill="url(#paint34_radial_0_297)"/>
</g>
</g>
</g>
<g id="Clip path group_7">
<mask id="mask6_0_297" style="mask-type:luminance" maskUnits="userSpaceOnUse" x="26" y="56" width="13" height="12">
<g id="clip-path-7">
<path id="Vector_65" d="M32.7762 56.4902C33.7879 56.5341 34.7699 56.8459 35.6217 57.3937C36.4734 57.9415 37.1645 58.7056 37.6242 59.608C38.0839 60.5104 38.2957 61.5186 38.238 62.5297C38.1803 63.5408 37.8552 64.5184 37.2959 65.3626C36.7366 66.2069 35.9631 66.8875 35.0546 67.3348C34.1461 67.7822 33.135 67.9803 32.1248 67.9089C31.1146 67.8375 30.1415 67.4991 29.305 66.9284C28.4684 66.3576 27.7984 65.575 27.3634 64.6604L29.2494 64.1702H29.3447C29.4788 64.1291 29.6035 64.0619 29.7117 63.9726C29.8198 63.8833 29.9093 63.7735 29.9751 63.6496C30.0409 63.5257 30.0816 63.3901 30.0949 63.2504C30.1082 63.1108 30.0939 62.9699 30.0528 62.8358C30.0116 62.7016 29.9445 62.5769 29.8552 62.4688C29.7659 62.3606 29.6561 62.2711 29.5322 62.2053C29.4083 62.1396 29.2726 62.0989 29.133 62.0855C28.9933 62.0722 28.8524 62.0865 28.7183 62.1277L26.8323 62.6179C26.7439 61.3792 27.0625 60.1455 27.7397 59.1045C28.4169 58.0635 29.4156 57.2722 30.5838 56.8511L30.686 56.8102C31.3575 56.5776 32.0658 56.4691 32.7762 56.4902Z" fill="white"/>
</g>
</mask>
<g mask="url(#mask6_0_297)">
<g id="Group_8">
<path id="Vector_66" style="mix-blend-mode:multiply" d="M38.4272 55.4758C40.6196 57.0213 40.1362 61.4877 37.3447 65.4502C34.5532 69.4128 30.5362 71.3872 28.3234 69.8417C26.1106 68.2962 26.6213 63.8366 29.4128 59.8741C32.2043 55.9115 36.2417 53.937 38.4272 55.4758Z" fill="url(#paint35_radial_0_297)"/>
<path id="Vector_67" style="mix-blend-mode:color-dodge" d="M40.0204 57.9881C42.0289 59.3975 41.5047 63.5983 38.8494 67.3702C36.194 71.1422 32.4221 73.0553 30.4136 71.646C28.4051 70.2366 28.9362 66.029 31.5847 62.2639C34.2332 58.4987 38.0187 56.5787 40.0204 57.9881Z" fill="url(#paint36_radial_0_297)"/>
</g>
</g>
</g>
<g id="Clip path group_8">
<mask id="mask7_0_297" style="mask-type:luminance" maskUnits="userSpaceOnUse" x="-1" y="45" width="16" height="15">
<g id="clip-path-8">
<path id="Vector_68" d="M14.0391 51.4519C14.1758 52.9871 13.805 54.5247 12.9834 55.8287C12.1619 57.1328 10.9351 58.1312 9.49143 58.6708C8.04771 59.2103 6.46682 59.2612 4.9914 58.8156C3.51598 58.37 2.22757 57.4525 1.32391 56.204C0.420245 54.9554 -0.0487206 53.4448 -0.0110143 51.904C0.0266921 50.3633 0.568989 48.8774 1.53264 47.6746C2.49629 46.4717 3.82804 45.6184 5.32349 45.2454C6.81895 44.8725 8.39546 45.0007 9.81105 45.6102C10.4541 45.887 11.0493 46.2639 11.5745 46.7268C12.4245 47.4505 13.0877 48.3683 13.5081 49.4025C13.5421 49.4774 13.5762 49.5659 13.6102 49.6545C13.8249 50.2342 13.969 50.8377 14.0391 51.4519Z" fill="white"/>
</g>
</mask>
<g mask="url(#mask7_0_297)">
<g id="Group_9">
<path id="Vector_69" style="mix-blend-mode:multiply" d="M13.8213 46.3864C16.0068 47.9251 15.5234 52.3915 12.7319 56.3609C9.9404 60.3302 5.92338 62.2911 3.71061 60.7523C1.49785 59.2136 2.00849 54.7472 4.79998 50.7779C7.59147 46.8085 11.6289 44.8477 13.8213 46.3864Z" fill="url(#paint37_radial_0_297)"/>
<path id="Vector_70" style="mix-blend-mode:color-dodge" d="M16.3404 47.857C18.3421 49.2664 17.8247 53.4672 15.1693 57.2392C12.514 61.0111 8.74212 62.9243 6.73361 61.5081C4.7251 60.0919 5.24935 55.8979 7.90467 52.126C10.56 48.354 14.3455 46.4477 16.3404 47.857Z" fill="url(#paint38_radial_0_297)"/>
</g>
</g>
</g>
<g id="Clip path group_9">
<mask id="mask8_0_297" style="mask-type:luminance" maskUnits="userSpaceOnUse" x="44" y="17" width="12" height="12">
<g id="clip-path-9">
<path id="Vector_71" d="M48.2111 17.8383C49.6403 17.3201 51.2169 17.3908 52.5939 18.035C53.971 18.6791 55.0358 19.844 55.554 21.2732C56.0723 22.7024 56.0015 24.279 55.3574 25.6561C54.7132 27.0331 53.5484 28.0979 52.1191 28.6162C51.6802 28.7773 51.2227 28.8825 50.7574 28.9294L50.9617 26.3217C50.9619 26.0547 50.8614 25.7974 50.6804 25.601C50.4994 25.4047 50.2511 25.2838 49.9849 25.2623C49.7188 25.2409 49.4543 25.3205 49.2442 25.4852C49.034 25.65 48.8937 25.8879 48.8511 26.1515L48.6468 28.766C47.4776 28.4446 46.4407 27.7603 45.6853 26.8118C44.93 25.8632 44.4952 24.6994 44.4437 23.488C44.3922 22.2765 44.7267 21.08 45.3988 20.0708C46.071 19.0615 47.0461 18.2918 48.1838 17.8723L48.2111 17.8383Z" fill="white"/>
</g>
</mask>
<g mask="url(#mask8_0_297)">
<g id="Group_10">
<path id="Vector_72" style="mix-blend-mode:multiply" d="M54.72 20.2145C56.5651 21.5081 56.1566 25.2596 53.8145 28.5889C51.4723 31.9183 48.0817 33.5659 46.2366 32.2723C44.3915 30.9787 44.8068 27.234 47.1489 23.9047C49.4911 20.5753 52.8885 18.9208 54.72 20.2145Z" fill="url(#paint39_radial_0_297)"/>
<path id="Vector_73" style="mix-blend-mode:color-dodge" d="M55.3123 19.7651C56.9668 20.2485 57.5932 23.0672 56.7217 26.0494C55.8502 29.0315 53.8008 31.074 52.1464 30.5906C50.4919 30.1072 49.8723 27.2953 50.7438 24.3064C51.6153 21.3175 53.6647 19.2749 55.3123 19.7651Z" fill="url(#paint40_radial_0_297)"/>
</g>
</g>
</g>
<g id="Clip path group_10">
<mask id="mask9_0_297" style="mask-type:luminance" maskUnits="userSpaceOnUse" x="27" y="7" width="10" height="11">
<g id="clip-path-10">
<path id="Vector_74" d="M30.4136 7.90468C31.6183 7.50235 32.9324 7.58606 34.0763 8.13799C35.2202 8.68991 36.1035 9.66647 36.5383 10.8598C36.973 12.0532 36.9249 13.3691 36.4041 14.5275C35.8833 15.6859 34.9309 16.5953 33.7498 17.0621L33.4298 17.1642L33.2936 15.0536C33.2922 14.9104 33.2617 14.769 33.204 14.638C33.1462 14.507 33.0624 14.3891 32.9576 14.2915C32.8528 14.1939 32.7293 14.1186 32.5945 14.0703C32.4597 14.022 32.3165 14.0016 32.1736 14.0104C32.0307 14.0192 31.891 14.057 31.7632 14.1214C31.6353 14.1859 31.5219 14.2757 31.4299 14.3854C31.3378 14.4951 31.2691 14.6224 31.2278 14.7595C31.1865 14.8966 31.1736 15.0407 31.1898 15.183L31.3191 17.2936C30.2512 17.1265 29.2693 16.6087 28.5282 15.8219C27.7871 15.035 27.3289 14.0239 27.226 12.948C27.123 11.872 27.381 10.7923 27.9594 9.87917C28.5378 8.96603 29.4036 8.27137 30.4204 7.90468H30.4136Z" fill="white"/>
</g>
</mask>
<g mask="url(#mask9_0_297)">
<g id="Group_11">
<path id="Vector_75" style="mix-blend-mode:multiply" d="M36.4051 6.03234C38.2162 7.30553 37.8145 11.0026 35.5064 14.2843C33.1983 17.566 29.8553 19.1932 28.017 17.92C26.1787 16.6468 26.6077 12.9498 28.9157 9.66808C31.2238 6.38638 34.594 4.78638 36.4051 6.03234Z" fill="url(#paint41_radial_0_297)"/>
<path id="Vector_76" style="mix-blend-mode:color-dodge" d="M43.3838 0.878297C47.0604 3.45872 46.2434 10.9481 41.5659 17.5932C36.8885 24.2383 30.1208 27.5404 26.4442 24.9532C22.7676 22.366 23.5915 14.8902 28.2689 8.23831C32.9464 1.58639 39.714 -1.70213 43.3838 0.878297Z" fill="url(#paint42_radial_0_297)"/>
</g>
</g>
</g>
<g id="Clip path group_11">
<mask id="mask10_0_297" style="mask-type:luminance" maskUnits="userSpaceOnUse" x="60" y="44" width="13" height="12">
<g id="clip-path-11">
<path id="Vector_77" d="M64.6808 44.4255C65.8857 43.9837 67.2041 43.9594 68.4245 44.3566C69.6448 44.7538 70.6963 45.5494 71.4103 46.6158C72.1243 47.6822 72.4593 48.9576 72.3616 50.2372C72.264 51.5169 71.7392 52.7266 70.8717 53.6723C70.0041 54.6179 68.844 55.2447 67.5775 55.4521C66.311 55.6595 65.0116 55.4354 63.8877 54.8157C62.7639 54.1961 61.8807 53.2169 61.3801 52.0353C60.8794 50.8536 60.7902 49.538 61.1268 48.2996L63.4893 49.4366C63.6137 49.4988 63.7493 49.5354 63.8881 49.5444C64.0269 49.5534 64.1661 49.5344 64.2974 49.4887C64.4288 49.4431 64.5497 49.3715 64.6529 49.2784C64.7562 49.1852 64.8398 49.0723 64.8987 48.9464C65.0205 48.6945 65.0374 48.4045 64.9454 48.1402C64.8535 47.8759 64.6604 47.659 64.4085 47.537L62.0391 46.3864C62.7092 45.4887 63.6276 44.807 64.6808 44.4255Z" fill="white"/>
</g>
</mask>
<g mask="url(#mask10_0_297)">
<g id="Group_12">
<path id="Vector_78" style="mix-blend-mode:multiply" d="M71.7957 43.2817C73.9472 44.7932 73.4706 49.1779 70.7268 53.0792C67.983 56.9804 64.0204 58.9072 61.8757 57.3957C59.7311 55.8843 60.2008 51.4928 62.9447 47.5983C65.6885 43.7038 69.6442 41.7634 71.7957 43.2817Z" fill="url(#paint43_radial_0_297)"/>
<path id="Vector_79" style="mix-blend-mode:color-dodge" d="M75.4859 44.9566C77.6442 46.4749 77.1676 50.8596 74.4238 54.7608C71.68 58.6621 67.7106 60.5889 65.5727 59.0706C63.4349 57.5524 63.8979 53.1745 66.6417 49.2732C69.3855 45.3719 73.3413 43.4315 75.4859 44.9566Z" fill="url(#paint44_radial_0_297)"/>
</g>
</g>
</g>
</g>
</g>
</g>
<defs>
<linearGradient id="paint0_linear_0_297" x1="60.5133" y1="44.7371" x2="67.5436" y2="50.6554" gradientUnits="userSpaceOnUse">
<stop offset="0.11" stop-color="white"/>
<stop offset="1"/>
</linearGradient>
<linearGradient id="paint1_linear_0_297" x1="57.6783" y1="27.4524" x2="65.5354" y2="34.0697" gradientUnits="userSpaceOnUse">
<stop offset="0.11" stop-color="white"/>
<stop offset="1"/>
</linearGradient>
<linearGradient id="paint2_linear_0_297" x1="26.021" y1="57.2478" x2="33.0978" y2="63.2144" gradientUnits="userSpaceOnUse">
<stop offset="0.11" stop-color="white"/>
<stop offset="1"/>
</linearGradient>
<linearGradient id="paint3_linear_0_297" x1="40.8817" y1="34.515" x2="50.6129" y2="42.718" gradientUnits="userSpaceOnUse">
<stop offset="0.11" stop-color="white"/>
<stop offset="1"/>
</linearGradient>
<linearGradient id="paint4_linear_0_297" x1="43.8197" y1="18.2809" x2="50.8942" y2="24.2412" gradientUnits="userSpaceOnUse">
<stop offset="0.11" stop-color="white"/>
<stop offset="1"/>
</linearGradient>
<linearGradient id="paint5_linear_0_297" x1="8.56052" y1="30.0781" x2="19.1051" y2="38.9632" gradientUnits="userSpaceOnUse">
<stop offset="0.11" stop-color="white"/>
<stop offset="1"/>
</linearGradient>
<linearGradient id="paint6_linear_0_297" x1="59.1874" y1="34.2862" x2="60.2461" y2="36.2195" gradientUnits="userSpaceOnUse">
<stop stop-color="#545454"/>
<stop offset="0.12" stop-color="#B5B5B5"/>
<stop offset="0.19" stop-color="#DBDBDB"/>
<stop offset="0.29" stop-color="white"/>
<stop offset="0.5" stop-color="#D3D2D1"/>
<stop offset="0.58" stop-color="#9F9FA0"/>
<stop offset="0.66" stop-color="#ABAAAB"/>
<stop offset="0.72" stop-color="#A3A1A1"/>
<stop offset="0.88" stop-color="#545454"/>
<stop offset="1" stop-color="#707070"/>
</linearGradient>
<linearGradient id="paint7_linear_0_297" x1="23.9001" y1="41.4276" x2="30.9304" y2="47.346" gradientUnits="userSpaceOnUse">
<stop offset="0.11" stop-color="white"/>
<stop offset="1"/>
</linearGradient>
<linearGradient id="paint8_linear_0_297" x1="59.4554" y1="47.5638" x2="60.3577" y2="45.6632" gradientUnits="userSpaceOnUse">
<stop stop-color="#545454"/>
<stop offset="0.12" stop-color="#B5B5B5"/>
<stop offset="0.19" stop-color="#DBDBDB"/>
<stop offset="0.29" stop-color="white"/>
<stop offset="0.5" stop-color="#D3D2D1"/>
<stop offset="0.58" stop-color="#9F9FA0"/>
<stop offset="0.66" stop-color="#ABAAAB"/>
<stop offset="0.72" stop-color="#A3A1A1"/>
<stop offset="0.88" stop-color="#545454"/>
<stop offset="1" stop-color="#707070"/>
</linearGradient>
<linearGradient id="paint9_linear_0_297" x1="25.9068" y1="22.9531" x2="34.2381" y2="29.9774" gradientUnits="userSpaceOnUse">
<stop offset="0.11" stop-color="white"/>
<stop offset="1"/>
</linearGradient>
<linearGradient id="paint10_linear_0_297" x1="24.8297" y1="63.1517" x2="25.3521" y2="65.1642" gradientUnits="userSpaceOnUse">
<stop stop-color="#545454"/>
<stop offset="0.12" stop-color="#B5B5B5"/>
<stop offset="0.19" stop-color="#DBDBDB"/>
<stop offset="0.29" stop-color="white"/>
<stop offset="0.5" stop-color="#D3D2D1"/>
<stop offset="0.58" stop-color="#9F9FA0"/>
<stop offset="0.66" stop-color="#ABAAAB"/>
<stop offset="0.72" stop-color="#A3A1A1"/>
<stop offset="0.88" stop-color="#545454"/>
<stop offset="1" stop-color="#707070"/>
</linearGradient>
<linearGradient id="paint11_linear_0_297" x1="30.3416" y1="54.487" x2="32.4239" y2="54.1565" gradientUnits="userSpaceOnUse">
<stop stop-color="#545454"/>
<stop offset="0.12" stop-color="#B5B5B5"/>
<stop offset="0.19" stop-color="#DBDBDB"/>
<stop offset="0.29" stop-color="white"/>
<stop offset="0.5" stop-color="#D3D2D1"/>
<stop offset="0.58" stop-color="#9F9FA0"/>
<stop offset="0.66" stop-color="#ABAAAB"/>
<stop offset="0.72" stop-color="#A3A1A1"/>
<stop offset="0.88" stop-color="#545454"/>
<stop offset="1" stop-color="#707070"/>
</linearGradient>
<linearGradient id="paint12_linear_0_297" x1="40.7444" y1="42.3394" x2="41.3255" y2="44.3739" gradientUnits="userSpaceOnUse">
<stop stop-color="#545454"/>
<stop offset="0.12" stop-color="#B5B5B5"/>
<stop offset="0.19" stop-color="#DBDBDB"/>
<stop offset="0.29" stop-color="white"/>
<stop offset="0.5" stop-color="#D3D2D1"/>
<stop offset="0.58" stop-color="#9F9FA0"/>
<stop offset="0.66" stop-color="#ABAAAB"/>
<stop offset="0.72" stop-color="#A3A1A1"/>
<stop offset="0.88" stop-color="#545454"/>
<stop offset="1" stop-color="#707070"/>
</linearGradient>
<linearGradient id="paint13_linear_0_297" x1="48.5836" y1="29.6178" x2="50.7289" y2="29.7789" gradientUnits="userSpaceOnUse">
<stop stop-color="#545454"/>
<stop offset="0.12" stop-color="#B5B5B5"/>
<stop offset="0.19" stop-color="#DBDBDB"/>
<stop offset="0.29" stop-color="white"/>
<stop offset="0.5" stop-color="#D3D2D1"/>
<stop offset="0.58" stop-color="#9F9FA0"/>
<stop offset="0.66" stop-color="#ABAAAB"/>
<stop offset="0.72" stop-color="#A3A1A1"/>
<stop offset="0.88" stop-color="#545454"/>
<stop offset="1" stop-color="#707070"/>
</linearGradient>
<linearGradient id="paint14_linear_0_297" x1="39.8681" y1="35.4129" x2="41.2037" y2="33.7674" gradientUnits="userSpaceOnUse">
<stop stop-color="#545454"/>
<stop offset="0.12" stop-color="#B5B5B5"/>
<stop offset="0.19" stop-color="#DBDBDB"/>
<stop offset="0.29" stop-color="white"/>
<stop offset="0.5" stop-color="#D3D2D1"/>
<stop offset="0.58" stop-color="#9F9FA0"/>
<stop offset="0.66" stop-color="#ABAAAB"/>
<stop offset="0.72" stop-color="#A3A1A1"/>
<stop offset="0.88" stop-color="#545454"/>
<stop offset="1" stop-color="#707070"/>
</linearGradient>
<linearGradient id="paint15_linear_0_297" x1="31.3832" y1="18.4312" x2="33.5307" y2="18.2799" gradientUnits="userSpaceOnUse">
<stop stop-color="#545454"/>
<stop offset="0.12" stop-color="#B5B5B5"/>
<stop offset="0.19" stop-color="#DBDBDB"/>
<stop offset="0.29" stop-color="white"/>
<stop offset="0.5" stop-color="#D3D2D1"/>
<stop offset="0.58" stop-color="#9F9FA0"/>
<stop offset="0.66" stop-color="#ABAAAB"/>
<stop offset="0.72" stop-color="#A3A1A1"/>
<stop offset="0.88" stop-color="#545454"/>
<stop offset="1" stop-color="#707070"/>
</linearGradient>
<linearGradient id="paint16_linear_0_297" x1="30.7723" y1="35.8035" x2="32.966" y2="36.1571" gradientUnits="userSpaceOnUse">
<stop stop-color="#545454"/>
<stop offset="0.12" stop-color="#B5B5B5"/>
<stop offset="0.19" stop-color="#DBDBDB"/>
<stop offset="0.29" stop-color="white"/>
<stop offset="0.5" stop-color="#D3D2D1"/>
<stop offset="0.58" stop-color="#9F9FA0"/>
<stop offset="0.66" stop-color="#ABAAAB"/>
<stop offset="0.72" stop-color="#A3A1A1"/>
<stop offset="0.88" stop-color="#545454"/>
<stop offset="1" stop-color="#707070"/>
</linearGradient>
<linearGradient id="paint17_linear_0_297" x1="23.5503" y1="42.6562" x2="24.7539" y2="40.9067" gradientUnits="userSpaceOnUse">
<stop stop-color="#545454"/>
<stop offset="0.12" stop-color="#B5B5B5"/>
<stop offset="0.19" stop-color="#DBDBDB"/>
<stop offset="0.29" stop-color="white"/>
<stop offset="0.5" stop-color="#D3D2D1"/>
<stop offset="0.58" stop-color="#9F9FA0"/>
<stop offset="0.66" stop-color="#ABAAAB"/>
<stop offset="0.72" stop-color="#A3A1A1"/>
<stop offset="0.88" stop-color="#545454"/>
<stop offset="1" stop-color="#707070"/>
</linearGradient>
<linearGradient id="paint18_linear_0_297" x1="21.1319" y1="47.5577" x2="21.6479" y2="49.6522" gradientUnits="userSpaceOnUse">
<stop stop-color="#545454"/>
<stop offset="0.12" stop-color="#B5B5B5"/>
<stop offset="0.19" stop-color="#DBDBDB"/>
<stop offset="0.29" stop-color="white"/>
<stop offset="0.5" stop-color="#D3D2D1"/>
<stop offset="0.58" stop-color="#9F9FA0"/>
<stop offset="0.66" stop-color="#ABAAAB"/>
<stop offset="0.72" stop-color="#A3A1A1"/>
<stop offset="0.88" stop-color="#545454"/>
<stop offset="1" stop-color="#707070"/>
</linearGradient>
<linearGradient id="paint19_linear_0_297" x1="11.8635" y1="42.4177" x2="13.6659" y2="43.5078" gradientUnits="userSpaceOnUse">
<stop stop-color="#545454"/>
<stop offset="0.12" stop-color="#B5B5B5"/>
<stop offset="0.19" stop-color="#DBDBDB"/>
<stop offset="0.29" stop-color="white"/>
<stop offset="0.5" stop-color="#D3D2D1"/>
<stop offset="0.58" stop-color="#9F9FA0"/>
<stop offset="0.66" stop-color="#ABAAAB"/>
<stop offset="0.72" stop-color="#A3A1A1"/>
<stop offset="0.88" stop-color="#545454"/>
<stop offset="1" stop-color="#707070"/>
</linearGradient>
<linearGradient id="paint20_linear_0_297" x1="6.88708" y1="61.9296" x2="15.216" y2="68.9476" gradientUnits="userSpaceOnUse">
<stop offset="0.11" stop-color="white"/>
<stop offset="1"/>
</linearGradient>
<linearGradient id="paint21_linear_0_297" x1="26.5521" y1="8.10409" x2="32.7272" y2="13.3049" gradientUnits="userSpaceOnUse">
<stop offset="0.11" stop-color="white"/>
<stop offset="1"/>
</linearGradient>
<linearGradient id="paint22_linear_0_297" x1="-0.822147" y1="45.8249" x2="8.90905" y2="54.0279" gradientUnits="userSpaceOnUse">
<stop offset="0.11" stop-color="white"/>
<stop offset="1"/>
</linearGradient>
<radialGradient id="paint23_radial_0_297" cx="0" cy="0" r="1" gradientUnits="userSpaceOnUse" gradientTransform="translate(31.9622 46.9618) rotate(-54.9341) scale(8.64244 4.76793)">
<stop offset="0.2" stop-color="#FFB35C"/>
<stop offset="0.42" stop-color="#FFD29D"/>
<stop offset="0.59" stop-color="#FFE6C9"/>
<stop offset="0.8" stop-color="#FFF5E9"/>
<stop offset="1" stop-color="white"/>
</radialGradient>
<radialGradient id="paint24_radial_0_297" cx="0" cy="0" r="1" gradientUnits="userSpaceOnUse" gradientTransform="translate(33.7102 48.8578) rotate(-54.9341) scale(11.2897 6.22838)">
<stop stop-color="#515463"/>
<stop offset="0.2" stop-color="#272930"/>
<stop offset="0.43" stop-color="#17181C"/>
<stop offset="0.6" stop-color="#101114"/>
<stop offset="0.81" stop-color="#070809"/>
<stop offset="1"/>
</radialGradient>
<radialGradient id="paint25_radial_0_297" cx="0" cy="0" r="1" gradientUnits="userSpaceOnUse" gradientTransform="translate(17.5866 37.9594) rotate(-54.9341) scale(9.78439 5.39793)">
<stop offset="0.2" stop-color="#FFB35C"/>
<stop offset="0.42" stop-color="#FFD29D"/>
<stop offset="0.59" stop-color="#FFE6C9"/>
<stop offset="0.8" stop-color="#FFF5E9"/>
<stop offset="1" stop-color="white"/>
</radialGradient>
<radialGradient id="paint26_radial_0_297" cx="0" cy="0" r="1" gradientUnits="userSpaceOnUse" gradientTransform="translate(20.2684 39.4969) rotate(-54.9341) scale(14.7415 8.13269)">
<stop stop-color="#515463"/>
<stop offset="0.2" stop-color="#272930"/>
<stop offset="0.43" stop-color="#17181C"/>
<stop offset="0.6" stop-color="#101114"/>
<stop offset="0.81" stop-color="#070809"/>
<stop offset="1"/>
</radialGradient>
<radialGradient id="paint27_radial_0_297" cx="0" cy="0" r="1" gradientUnits="userSpaceOnUse" gradientTransform="translate(33.8386 28.8618) rotate(-54.9341) scale(9.13556 5.03998)">
<stop offset="0.1" stop-color="#02AEC4"/>
<stop offset="0.37" stop-color="#76D3E0"/>
<stop offset="0.49" stop-color="#99DEE8"/>
<stop offset="0.64" stop-color="#BCE9F0"/>
<stop offset="0.78" stop-color="#DBF3F7"/>
<stop offset="1" stop-color="white"/>
</radialGradient>
<radialGradient id="paint28_radial_0_297" cx="0" cy="0" r="1" gradientUnits="userSpaceOnUse" gradientTransform="translate(36.828 30.9331) rotate(-54.9341) scale(11.2897 6.22838)">
<stop stop-color="#515463"/>
<stop offset="0.2" stop-color="#272930"/>
<stop offset="0.43" stop-color="#17181C"/>
<stop offset="0.6" stop-color="#101114"/>
<stop offset="0.81" stop-color="#070809"/>
<stop offset="1"/>
</radialGradient>
<radialGradient id="paint29_radial_0_297" cx="0" cy="0" r="1" gradientUnits="userSpaceOnUse" gradientTransform="translate(64.8101 34.3079) rotate(-54.9341) scale(7.60431 4.19521)">
<stop offset="0.1" stop-color="#02AEC4"/>
<stop offset="0.37" stop-color="#76D3E0"/>
<stop offset="0.49" stop-color="#99DEE8"/>
<stop offset="0.64" stop-color="#BCE9F0"/>
<stop offset="0.78" stop-color="#DBF3F7"/>
<stop offset="1" stop-color="white"/>
</radialGradient>
<radialGradient id="paint30_radial_0_297" cx="0" cy="0" r="1" gradientUnits="userSpaceOnUse" gradientTransform="translate(67.3642 35.2797) rotate(-54.9341) scale(11.2897 6.22838)">
<stop stop-color="#515463"/>
<stop offset="0.2" stop-color="#272930"/>
<stop offset="0.43" stop-color="#17181C"/>
<stop offset="0.6" stop-color="#101114"/>
<stop offset="0.81" stop-color="#070809"/>
<stop offset="1"/>
</radialGradient>
<radialGradient id="paint31_radial_0_297" cx="0" cy="0" r="1" gradientUnits="userSpaceOnUse" gradientTransform="translate(15.2022 67.4745) rotate(-54.9341) scale(9.13556 5.03998)">
<stop offset="0.1" stop-color="#02AEC4"/>
<stop offset="0.37" stop-color="#76D3E0"/>
<stop offset="0.49" stop-color="#99DEE8"/>
<stop offset="0.64" stop-color="#BCE9F0"/>
<stop offset="0.78" stop-color="#DBF3F7"/>
<stop offset="1" stop-color="white"/>
</radialGradient>
<radialGradient id="paint32_radial_0_297" cx="0" cy="0" r="1" gradientUnits="userSpaceOnUse" gradientTransform="translate(18.1032 69.8961) rotate(-54.9341) scale(11.2897 6.22838)">
<stop stop-color="#515463"/>
<stop offset="0.2" stop-color="#272930"/>
<stop offset="0.43" stop-color="#17181C"/>
<stop offset="0.6" stop-color="#101114"/>
<stop offset="0.81" stop-color="#070809"/>
<stop offset="1"/>
</radialGradient>
<radialGradient id="paint33_radial_0_297" cx="0" cy="0" r="1" gradientUnits="userSpaceOnUse" gradientTransform="translate(50.738 41.6705) rotate(-54.9341) scale(10.5889 5.84179)">
<stop offset="0.12" stop-color="#B75AD9"/>
<stop offset="0.41" stop-color="#D299E8"/>
<stop offset="0.56" stop-color="#E5C5F2"/>
<stop offset="0.68" stop-color="#EFDCF7"/>
<stop offset="0.83" stop-color="#F9F2FC"/>
<stop offset="1" stop-color="white"/>
</radialGradient>
<radialGradient id="paint34_radial_0_297" cx="0" cy="0" r="1" gradientUnits="userSpaceOnUse" gradientTransform="translate(52.5087 43.6036) rotate(-54.901) scale(10.9667 5.84179)">
<stop stop-color="#515463"/>
<stop offset="0.2" stop-color="#272930"/>
<stop offset="0.43" stop-color="#17181C"/>
<stop offset="0.6" stop-color="#101114"/>
<stop offset="0.81" stop-color="#070809"/>
<stop offset="1"/>
</radialGradient>
<radialGradient id="paint35_radial_0_297" cx="0" cy="0" r="1" gradientUnits="userSpaceOnUse" gradientTransform="translate(33.2422 62.459) rotate(-54.9341) scale(8.79816 4.85384)">
<stop offset="0.12" stop-color="#B75AD9"/>
<stop offset="0.41" stop-color="#D299E8"/>
<stop offset="0.56" stop-color="#E5C5F2"/>
<stop offset="0.68" stop-color="#EFDCF7"/>
<stop offset="0.83" stop-color="#F9F2FC"/>
<stop offset="1" stop-color="white"/>
</radialGradient>
<radialGradient id="paint36_radial_0_297" cx="0" cy="0" r="1" gradientUnits="userSpaceOnUse" gradientTransform="translate(34.9919 64.8679) rotate(-54.901) scale(8.33256 4.43862)">
<stop stop-color="#515463"/>
<stop offset="0.2" stop-color="#272930"/>
<stop offset="0.43" stop-color="#17181C"/>
<stop offset="0.6" stop-color="#101114"/>
<stop offset="0.81" stop-color="#070809"/>
<stop offset="1"/>
</radialGradient>
<radialGradient id="paint37_radial_0_297" cx="0" cy="0" r="1" gradientUnits="userSpaceOnUse" gradientTransform="translate(8.64079 53.3708) rotate(-54.9341) scale(8.79817 4.85384)">
<stop offset="0.12" stop-color="#B75AD9"/>
<stop offset="0.41" stop-color="#D299E8"/>
<stop offset="0.56" stop-color="#E5C5F2"/>
<stop offset="0.68" stop-color="#EFDCF7"/>
<stop offset="0.83" stop-color="#F9F2FC"/>
<stop offset="1" stop-color="white"/>
</radialGradient>
<radialGradient id="paint38_radial_0_297" cx="0" cy="0" r="1" gradientUnits="userSpaceOnUse" gradientTransform="translate(11.3328 54.731) rotate(-54.901) scale(8.33256 4.43862)">
<stop stop-color="#515463"/>
<stop offset="0.2" stop-color="#272930"/>
<stop offset="0.43" stop-color="#17181C"/>
<stop offset="0.6" stop-color="#101114"/>
<stop offset="0.81" stop-color="#070809"/>
<stop offset="1"/>
</radialGradient>
<radialGradient id="paint39_radial_0_297" cx="0" cy="0" r="1" gradientUnits="userSpaceOnUse" gradientTransform="translate(50.3343 25.9965) rotate(-54.9341) scale(7.37073 4.06634)">
<stop offset="0.12" stop-color="#B75AD9"/>
<stop offset="0.41" stop-color="#D299E8"/>
<stop offset="0.56" stop-color="#E5C5F2"/>
<stop offset="0.68" stop-color="#EFDCF7"/>
<stop offset="0.83" stop-color="#F9F2FC"/>
<stop offset="1" stop-color="white"/>
</radialGradient>
<radialGradient id="paint40_radial_0_297" cx="0" cy="0" r="1" gradientUnits="userSpaceOnUse" gradientTransform="translate(54.024 24.8171) rotate(-73.7037) scale(5.6338 3.10914)">
<stop stop-color="#515463"/>
<stop offset="0.2" stop-color="#272930"/>
<stop offset="0.43" stop-color="#17181C"/>
<stop offset="0.6" stop-color="#101114"/>
<stop offset="0.81" stop-color="#070809"/>
<stop offset="1"/>
</radialGradient>
<radialGradient id="paint41_radial_0_297" cx="0" cy="0" r="1" gradientUnits="userSpaceOnUse" gradientTransform="translate(32.0809 11.7275) rotate(-54.9341) scale(7.26692 4.00907)">
<stop offset="0.2" stop-color="#FFB35C"/>
<stop offset="0.42" stop-color="#FFD29D"/>
<stop offset="0.59" stop-color="#FFE6C9"/>
<stop offset="0.8" stop-color="#FFF5E9"/>
<stop offset="1" stop-color="white"/>
</radialGradient>
<radialGradient id="paint42_radial_0_297" cx="0" cy="0" r="1" gradientUnits="userSpaceOnUse" gradientTransform="translate(34.7649 12.6638) rotate(-54.9341) scale(14.7415 8.13269)">
<stop stop-color="#515463"/>
<stop offset="0.2" stop-color="#272930"/>
<stop offset="0.43" stop-color="#17181C"/>
<stop offset="0.6" stop-color="#101114"/>
<stop offset="0.81" stop-color="#070809"/>
<stop offset="1"/>
</radialGradient>
<radialGradient id="paint43_radial_0_297" cx="0" cy="0" r="1" gradientUnits="userSpaceOnUse" gradientTransform="translate(66.6767 50.0908) rotate(-54.9341) scale(8.64244 4.76793)">
<stop offset="0.2" stop-color="#FFB35C"/>
<stop offset="0.42" stop-color="#FFD29D"/>
<stop offset="0.59" stop-color="#FFE6C9"/>
<stop offset="0.8" stop-color="#FFF5E9"/>
<stop offset="1" stop-color="white"/>
</radialGradient>
<radialGradient id="paint44_radial_0_297" cx="0" cy="0" r="1" gradientUnits="userSpaceOnUse" gradientTransform="translate(70.3646 51.765) rotate(-54.9341) scale(8.64245 4.76793)">
<stop stop-color="#515463"/>
<stop offset="0.2" stop-color="#272930"/>
<stop offset="0.43" stop-color="#17181C"/>
<stop offset="0.6" stop-color="#101114"/>
<stop offset="0.81" stop-color="#070809"/>
<stop offset="1"/>
</radialGradient>
<clipPath id="clip0_0_297">
<rect width="76.834" height="80" fill="white"/>
</clipPath>
</defs>
</svg>
