<svg width="90" height="80" viewBox="0 0 90 80" fill="none" xmlns="http://www.w3.org/2000/svg">
<path d="M42.6114 49.0163L35.7661 47.3896L2.83905 59.1367L42.9935 70.9276L73.9773 56.4838L42.6114 49.0163Z" fill="#6EA6B8"/>
<path d="M34.8821 12.9777L34.5655 0.651878L0.710445 8.56704L2.83935 59.1368L35.7664 47.3896L34.8821 12.9777Z" fill="#E3E3E3"/>
<path d="M73.388 4.44024L34.5655 0.651878L34.8821 12.9777L35.7664 47.3896L42.6117 49.0163L73.9776 56.4838L73.388 4.44024Z" fill="#93ABB3"/>
<path d="M3.70765 58.5702L2.77161 58.9032L2.93991 59.3763L3.87595 59.0434L3.70765 58.5702Z" fill="#296978"/>
<path d="M4.45509 58.8091L4.28041 58.3397L6.15822 57.6737L6.32198 58.1432L4.45509 58.8091ZM6.94428 57.9248L6.78052 57.4554L8.6474 56.7785L8.82208 57.248L6.94428 57.9248ZM9.44438 57.0296L9.28061 56.5601L11.1475 55.8942L11.3222 56.3636L9.44438 57.0296ZM72.2744 56.3309L70.3311 55.8724L70.4512 55.392L72.3836 55.8505L72.2744 56.3309ZM11.9881 56.1562L11.8135 55.6868L13.6913 55.0208L13.855 55.4902L11.9881 56.1562ZM69.7306 55.7413L67.7764 55.261L67.8965 54.7806L69.8289 55.2391L69.7306 55.7413ZM14.4773 55.2719L14.3136 54.8024L16.1914 54.1256L16.3551 54.6059L14.4773 55.2719ZM67.1541 55.0645L65.2217 54.6059L65.3418 54.1146L67.2742 54.5732L67.1541 55.0645ZM64.5776 54.4531L62.6452 53.9946L62.7544 53.5033L64.6977 53.9618L64.5776 54.4531ZM16.9774 54.3112L16.8137 53.8417L18.6806 53.1757L18.8552 53.6452L16.9774 54.3112ZM62.0011 53.8308L60.0687 53.3722L60.1779 52.8919L62.1102 53.3504L62.0011 53.8308ZM19.4775 53.4268L19.3138 52.9574L21.1807 52.2805L21.3444 52.75L19.4775 53.4268ZM59.4245 53.2194L57.4812 52.7609L57.6013 52.2805L59.5337 52.739L59.4245 53.2194ZM56.8589 52.6517L54.9266 52.1932L55.0466 51.7019L56.979 52.1713L56.8589 52.6517ZM21.9995 52.5753L21.8248 52.1058L23.7026 51.4399L23.8664 51.9093L21.9995 52.5753ZM54.2824 52.0403L52.35 51.5818L52.4592 51.0905L54.4025 51.549L54.2824 52.0403ZM24.4886 51.68L24.3249 51.2106L26.2027 50.5446L26.3665 51.0141L24.4886 51.68ZM51.7059 51.4289L49.7735 50.9595L49.8827 50.4791L51.8151 50.9377L51.7059 51.4289ZM49.1185 50.8067L47.1861 50.3481L47.3062 49.8677L49.2385 50.3263L49.1185 50.8067ZM26.9888 50.8067L26.825 50.3372L28.6919 49.6603L28.8666 50.1298L26.9888 50.8067ZM46.5419 50.2062L44.6095 49.7477L44.7187 49.2673L46.662 49.7258L46.5419 50.2062ZM29.4889 49.9114L29.3142 49.442L31.192 48.776L31.3557 49.2454L29.4889 49.9114ZM43.9436 49.6057L42.0112 49.1472L42.1204 48.6559L44.0637 49.1254L43.9436 49.6057ZM31.9344 49.0271L31.7488 48.514L33.6266 47.848L33.7903 48.3175L31.9344 49.0271ZM41.3452 49.0271L39.391 48.514L39.5002 48.0227L41.4326 48.4812L41.3452 49.0271ZM38.7578 48.4157L36.8254 47.9463L36.9455 47.4659L38.8779 47.9244L38.7578 48.4157ZM34.3908 48.1755L34.227 47.7061L35.69 47.182L36.2577 47.313L36.1376 47.7934L35.7227 47.6952L34.3908 48.1755Z" fill="#296978"/>
<path d="M73.0654 55.9896L72.9489 56.4782L73.9153 56.7086L74.0318 56.2201L73.0654 55.9896Z" fill="#296978"/>
<path d="M34.8144 0.647468L34.3124 0.660614L34.3384 1.65377L34.8404 1.64062L34.8144 0.647468Z" fill="#296978"/>
<path d="M35.4825 45.741V43.7976H35.9738V45.741H35.4825ZM35.417 43.1535V41.2102H35.9192V43.1644L35.417 43.1535ZM35.3515 40.5552V38.6119H35.8537V40.5552H35.3515ZM35.286 37.9677V36.0244H35.7882V37.9787L35.286 37.9677ZM35.2205 35.413L35.1659 33.4697H35.6681V35.413H35.2205ZM35.1441 32.8256V30.8714H35.6354V32.8147L35.1441 32.8256ZM35.0786 30.2272V28.2839H35.5699L35.6244 30.2272H35.0786ZM35.024 27.5852V25.6419H35.5153V27.5852H35.024ZM34.9585 24.9978L34.9039 23.0545H35.4061V24.9978H34.9585ZM34.893 22.3994L34.8384 20.4561H35.3406V22.3994H34.893ZM34.8275 19.812V17.8687H35.3297V19.8229L34.8275 19.812ZM34.762 17.2136V15.2703H35.2642V17.2136H34.762ZM34.6746 14.6698V12.7156H35.1768V14.6589L34.6746 14.6698ZM34.6091 12.0715V10.1282H35.024V12.0715H34.6091ZM34.5436 9.47314V7.52983H35.024V9.47314H34.5436ZM34.4781 6.88569V4.94238H34.9803V6.88569H34.4781ZM34.4126 4.28734V2.34403H34.9148L34.9694 4.28734H34.4126Z" fill="#296978"/>
<path d="M36.0123 46.3754L35.5102 46.3886L35.5364 47.3817L36.0384 47.3685L36.0123 46.3754Z" fill="#296978"/>
<g style="mix-blend-mode:multiply">
<path d="M73.388 4.44024L41.9894 13.8948L0.710445 8.56704L34.5655 0.651878L73.388 4.44024Z" fill="#83C6E3"/>
<path d="M73.388 4.44017L73.9776 56.4837L42.9938 70.9275L41.9894 13.8947L73.388 4.44017Z" fill="#468CAB"/>
<path d="M41.9894 13.8947L42.9938 70.9276L2.83935 59.1367L0.710442 8.56699L41.9894 13.8947Z" fill="#93DEFF"/>
</g>
<mask id="mask0_0_478" style="mask-type:luminance" maskUnits="userSpaceOnUse" x="0" y="8" width="43" height="63">
<path d="M42.0003 13.8947L42.9938 70.9276L2.83935 59.1367L0.721367 8.55605L42.0003 13.8947Z" fill="white"/>
</mask>
<g mask="url(#mask0_0_478)">
<path style="mix-blend-mode:screen" d="M90.0914 -24.502C96.5 -15.3095 68.453 15.2922 27.447 43.8741C-13.559 72.4561 -51.9776 88.1554 -58.3862 78.9629C-64.7947 69.7704 -36.7477 39.1578 4.25828 10.5868C45.2643 -17.9842 83.6938 -33.6945 90.0914 -24.502Z" fill="url(#paint0_radial_0_478)"/>
<path style="mix-blend-mode:color-dodge" d="M87.8643 -34.7534C92.002 -28.8252 62.11 -0.854683 21.104 27.7273C-19.9021 56.3092 -56.4865 74.6724 -60.6133 68.7114C-64.7401 62.7505 -34.8481 34.8018 6.13611 6.23075C47.1203 -22.3403 83.7266 -40.6925 87.8643 -34.7534Z" fill="url(#paint1_radial_0_478)"/>
<path style="mix-blend-mode:screen" d="M112.658 20.3798C118.979 29.4522 90.8231 59.9665 49.8607 88.5375C8.89839 117.109 -29.4983 132.917 -35.8196 123.845C-42.1408 114.772 -13.9846 84.2688 26.9777 55.6978C67.9401 27.1268 106.337 11.3074 112.658 20.3798Z" fill="url(#paint2_radial_0_478)"/>
<path style="mix-blend-mode:screen" d="M44.0635 -55.0927C51.9787 -55.2019 58.8895 -14.8072 59.4899 35.2166C60.0904 85.2405 54.1731 125.832 46.2579 125.832C38.3428 125.832 31.4538 85.437 30.8425 35.5223C30.2311 -14.3923 36.1156 -54.9944 44.0635 -55.0927Z" fill="url(#paint3_radial_0_478)"/>
</g>
<mask id="mask1_0_478" style="mask-type:luminance" maskUnits="userSpaceOnUse" x="42" y="4" width="32" height="67">
<path d="M73.3881 4.42936L73.9885 56.4729L42.9938 70.9277L42.0003 13.8948L73.3881 4.42936Z" fill="white"/>
</mask>
<g mask="url(#mask1_0_478)">
<path style="mix-blend-mode:screen" d="M31.6179 -20.266C41.2253 -26.2597 70.4623 3.23929 96.9371 45.6318C123.412 88.0244 137.081 127.251 127.506 133.244C117.931 139.238 88.6617 109.728 62.1977 67.3467C35.7338 24.9651 22.0215 -14.2833 31.6179 -20.266Z" fill="url(#paint4_radial_0_478)"/>
<path style="mix-blend-mode:color-dodge" d="M72.4492 -73.2266C78.0062 -73.2266 82.6243 -20.5825 82.7443 44.3982C82.8644 109.379 78.4538 162.056 72.8859 162.056C67.318 162.056 62.7108 109.401 62.5907 44.4201C62.4706 -20.5607 66.8813 -73.2157 72.4492 -73.2266Z" fill="url(#paint5_radial_0_478)"/>
<path style="mix-blend-mode:color-dodge" d="M172.213 9.21124C174.571 14.2442 128.783 40.6645 69.9381 68.2202C11.093 95.7759 -38.516 114.019 -40.8742 109.019C-43.2324 104.019 2.55551 77.5655 61.4007 50.0644C120.246 22.5633 169.855 4.21104 172.213 9.21124Z" fill="url(#paint6_radial_0_478)"/>
</g>
<mask id="mask2_0_478" style="mask-type:luminance" maskUnits="userSpaceOnUse" x="0" y="0" width="74" height="14">
<path d="M73.388 4.42931L42.0003 13.8948L0.721367 8.55612L34.5655 0.651878L73.388 4.42931Z" fill="white"/>
</mask>
<g mask="url(#mask2_0_478)">
<path style="mix-blend-mode:screen" d="M100.026 11.7549C100.125 15.6088 70.9096 19.5282 34.7509 20.4889C-1.40773 21.4496 -30.7539 19.1133 -30.8849 15.2485C-31.0159 11.3837 -1.768 7.47528 34.3797 6.51455C70.5275 5.55381 99.9173 7.89015 100.026 11.7549Z" fill="url(#paint7_radial_0_478)"/>
<path style="mix-blend-mode:color-dodge" d="M148.205 11.7878C147.932 14.8119 102.625 13.1743 47.022 8.11949C-8.58068 3.0647 -53.4187 -3.47487 -53.1567 -6.499C-52.8947 -9.52314 -7.55443 -7.88552 48.0264 -2.79798C103.607 2.28956 148.478 8.76362 148.205 11.7878Z" fill="url(#paint8_radial_0_478)"/>
<path style="mix-blend-mode:color-dodge" d="M144.69 -16.8598C145.531 -13.9339 102.712 0.924776 49.042 16.3402C-4.62828 31.7557 -48.8113 41.8762 -49.641 38.9503C-50.4707 36.0244 -7.66333 21.2203 46.0069 5.76121C99.6772 -9.69792 143.849 -19.7747 144.69 -16.8598Z" fill="url(#paint9_radial_0_478)"/>
</g>
<path d="M42.9937 71.5935C42.9323 71.6048 42.8694 71.6048 42.8081 71.5935L2.66457 59.8027C2.5297 59.7654 2.41031 59.686 2.32386 59.5759C2.23742 59.4659 2.18848 59.3311 2.1842 59.1913L0.000703355 8.62157C-0.00368877 8.52452 0.0125273 8.42764 0.0482807 8.33732C0.0840341 8.247 0.138516 8.16526 0.208138 8.09752C0.281213 8.03484 0.366453 7.98795 0.45851 7.95977C0.550567 7.93159 0.647452 7.92273 0.743092 7.93376L42.033 13.2615C42.1922 13.2826 42.3384 13.3604 42.4448 13.4808C42.5511 13.6012 42.6103 13.7559 42.6116 13.9165L43.6051 70.9494C43.6051 71.0526 43.5815 71.1545 43.5361 71.2472C43.4907 71.34 43.4246 71.4211 43.3431 71.4843C43.2384 71.5511 43.1178 71.5888 42.9937 71.5935ZM3.49429 58.6345L42.3168 70.0323L41.3452 14.4733L1.40906 9.32029L3.49429 58.6345Z" fill="#357E94"/>
<path d="M43.2776 71.5281L42.6662 70.349L73.2351 56.0798L72.6565 5.34637L42.0876 14.5498L41.7054 13.2724L73.2351 3.75241C73.3327 3.72431 73.4354 3.71856 73.5356 3.73557C73.6358 3.75258 73.7308 3.79191 73.8137 3.85066C73.8961 3.91393 73.9634 3.99478 74.0106 4.08732C74.0578 4.17986 74.0838 4.28177 74.0867 4.38563L74.6871 56.4292C74.6862 56.5565 74.65 56.681 74.5826 56.789C74.5151 56.8969 74.419 56.984 74.305 57.0406L43.2776 71.5281Z" fill="#357E94"/>
<path d="M0.863236 9.21115L0.568464 7.91196L34.4126 0.00772687C34.485 -0.00257562 34.5585 -0.00257562 34.631 0.00772687L73.4535 3.75241L73.3225 5.07343L34.6091 1.29598L0.863236 9.21115Z" fill="#357E94"/>
<path d="M25.5802 77.8383C23.8771 77.8383 23.0037 77.4344 22.3705 75.7203C22.0211 74.7705 22.5233 73.5369 22.2613 72.4451C22.2159 72.2843 22.1342 72.1361 22.0226 72.0119C21.9109 71.8876 21.7722 71.7907 21.6172 71.7285C21.4622 71.6662 21.295 71.6404 21.1284 71.653C20.9618 71.6656 20.8003 71.7162 20.6564 71.801C20.3682 71.9027 20.1091 72.0731 19.9018 72.2976C19.6944 72.5221 19.5449 72.7939 19.4664 73.0892C19.2567 73.9657 18.8538 74.7843 18.2872 75.4851C17.7205 76.1859 17.0044 76.7512 16.1912 77.1396C14.3898 77.8274 14.3461 74.0391 14.3352 73.3076C14.3352 71.7682 18.0035 68.0235 18.7022 71.2114C19.0188 72.587 21.1368 71.9975 20.8093 70.6219C20.2415 68.1545 17.7851 67.4231 15.6016 68.2637C12.9268 69.29 11.9989 71.9102 12.1517 74.5194C12.2609 76.5719 13.2434 79.3995 15.7108 79.3995C16.9738 79.3077 18.1641 78.7743 19.0734 77.8929C19.5601 77.4395 19.9825 76.9215 20.3289 76.3536C20.5494 77.1326 20.8961 77.8702 21.3551 78.5371C22.2613 79.9236 24.1282 79.9891 25.5911 80C25.8512 79.9616 26.0887 79.8307 26.2599 79.6313C26.4312 79.4318 26.5248 79.1773 26.5235 78.9144C26.5221 78.6515 26.426 78.398 26.2527 78.2003C26.0794 78.0026 25.8406 77.8741 25.5802 77.8383Z" fill="white"/>
<path d="M70.0143 65.982C68.0601 65.3925 66.2915 67.0738 65.025 68.7769C64.8112 67.4282 64.6727 66.0687 64.6102 64.7047C64.6102 64.4151 64.4951 64.1374 64.2904 63.9327C64.0857 63.7279 63.808 63.6129 63.5184 63.6129C63.2289 63.6129 62.9512 63.7279 62.7464 63.9327C62.5417 64.1374 62.4267 64.4151 62.4267 64.7047C62.4267 65.5562 62.0773 66.386 62.0555 67.2594C62.0418 67.4797 62.1035 67.6981 62.2305 67.8787C62.3575 68.0593 62.5422 68.1913 62.7542 68.2528C62.8961 69.3446 63.0599 70.5018 63.2237 71.6154C62.8989 72.3718 62.8003 73.206 62.9398 74.0173C63.0824 74.5734 63.3389 75.0938 63.6931 75.5457C63.8095 76.6844 64.1828 77.7819 64.7849 78.7554C65.2652 79.4432 66.619 79.5197 66.7827 78.4934C66.8403 78.0329 66.8069 77.5655 66.6845 77.1178C66.7937 77.2979 66.9644 77.4325 67.165 77.4967C67.3657 77.5609 67.5827 77.5504 67.7762 77.4672C69.0752 77.0286 70.235 76.2543 71.1381 75.2227C72.0412 74.1912 72.6554 72.9391 72.9184 71.5936C73.4752 69.0717 72.5581 66.7899 70.0143 65.982ZM70.855 70.9822C70.7102 71.9712 70.2966 72.9015 69.6594 73.6715C69.0221 74.4416 68.1857 75.0219 67.2413 75.3492C67.0015 75.4328 66.7984 75.5974 66.6669 75.8146C66.5354 76.0318 66.4837 76.288 66.5207 76.5392C66.3024 75.9169 65.9858 75.3164 65.7347 74.7269C65.6255 73.8207 65.5709 72.9037 65.4836 72.1176C65.5564 71.9132 65.6477 71.7159 65.7565 71.5281C66.1439 70.9187 66.5706 70.3352 67.0338 69.7813C68.2457 68.1655 71.2371 68.8096 70.855 71.015V70.9822Z" fill="white"/>
<path d="M87.4278 29.6486C86.0195 31.9086 80.6481 36.0026 79.3707 31.3299C79.0904 29.8433 79.1276 28.3141 79.4799 26.8429C79.7036 26.0615 80.1075 25.3436 80.659 24.7467C81.1284 24.2117 83.2246 22.9344 83.2683 24.7467C83.2683 25.0362 83.3833 25.3139 83.588 25.5187C83.7928 25.7234 84.0705 25.8384 84.36 25.8384C84.6495 25.8384 84.9272 25.7234 85.132 25.5187C85.3367 25.3139 85.4517 25.0362 85.4517 24.7467C85.3972 22.1811 83.2683 20.8601 80.8337 22.0392C77.7222 23.5458 77.078 26.6791 77.0671 29.8561C77.0671 32.4435 78.1589 35.1838 81.052 35.5004C84.5893 35.8934 87.5261 33.6444 89.3165 30.7731C90.0153 29.5613 88.1265 28.4586 87.4278 29.6486Z" fill="white"/>
<defs>
<radialGradient id="paint0_radial_0_478" cx="0" cy="0" r="1" gradientUnits="userSpaceOnUse" gradientTransform="translate(14.6648 27.4073) rotate(-34.8596) scale(90.4345 20.2461)">
<stop offset="0.11" stop-color="#D1D6FF"/>
<stop offset="0.2" stop-color="#A3A6C6"/>
<stop offset="0.32" stop-color="#6F7187"/>
<stop offset="0.47" stop-color="#444653"/>
<stop offset="0.67" stop-color="#1D1E24"/>
<stop offset="0.82" stop-color="#08080A"/>
<stop offset="1"/>
</radialGradient>
<radialGradient id="paint1_radial_0_478" cx="0" cy="0" r="1" gradientUnits="userSpaceOnUse" gradientTransform="translate(12.4128 17.4105) rotate(-34.8596) scale(90.4345 13.0764)">
<stop stop-color="#D1D6FF"/>
<stop offset="0.04" stop-color="#75798F"/>
<stop offset="0.07" stop-color="#515463"/>
<stop offset="0.17" stop-color="#272930"/>
<stop offset="0.35" stop-color="#17181C"/>
<stop offset="0.52" stop-color="#101114"/>
<stop offset="0.75" stop-color="#070809"/>
<stop offset="1"/>
</radialGradient>
<radialGradient id="paint2_radial_0_478" cx="0" cy="0" r="1" gradientUnits="userSpaceOnUse" gradientTransform="translate(37.9884 72.1956) rotate(-34.8596) scale(90.4345 20.0007)">
<stop offset="0.11" stop-color="#D1D6FF"/>
<stop offset="0.2" stop-color="#A3A6C6"/>
<stop offset="0.32" stop-color="#6F7187"/>
<stop offset="0.47" stop-color="#444653"/>
<stop offset="0.67" stop-color="#1D1E24"/>
<stop offset="0.82" stop-color="#08080A"/>
<stop offset="1"/>
</radialGradient>
<radialGradient id="paint3_radial_0_478" cx="0" cy="0" r="1" gradientUnits="userSpaceOnUse" gradientTransform="translate(44.9957 35.1098) rotate(-90.703) scale(90.4078 14.3105)">
<stop offset="0.11" stop-color="#D1D6FF"/>
<stop offset="0.2" stop-color="#A3A6C6"/>
<stop offset="0.32" stop-color="#6F7187"/>
<stop offset="0.47" stop-color="#444653"/>
<stop offset="0.67" stop-color="#1D1E24"/>
<stop offset="0.82" stop-color="#08080A"/>
<stop offset="1"/>
</radialGradient>
<radialGradient id="paint4_radial_0_478" cx="0" cy="0" r="1" gradientUnits="userSpaceOnUse" gradientTransform="translate(79.894 56.1263) rotate(-121.976) scale(90.4869 20.5289)">
<stop offset="0.11" stop-color="#D1D6FF"/>
<stop offset="0.2" stop-color="#A3A6C6"/>
<stop offset="0.32" stop-color="#6F7187"/>
<stop offset="0.47" stop-color="#444653"/>
<stop offset="0.67" stop-color="#1D1E24"/>
<stop offset="0.82" stop-color="#08080A"/>
<stop offset="1"/>
</radialGradient>
<radialGradient id="paint5_radial_0_478" cx="0" cy="0" r="1" gradientUnits="userSpaceOnUse" gradientTransform="translate(72.6807 44.6079) rotate(-90.1081) scale(117.577 10.0938)">
<stop stop-color="#D1D6FF"/>
<stop offset="0.04" stop-color="#75798F"/>
<stop offset="0.07" stop-color="#515463"/>
<stop offset="0.17" stop-color="#272930"/>
<stop offset="0.35" stop-color="#17181C"/>
<stop offset="0.52" stop-color="#101114"/>
<stop offset="0.75" stop-color="#070809"/>
<stop offset="1"/>
</radialGradient>
<radialGradient id="paint6_radial_0_478" cx="0" cy="0" r="1" gradientUnits="userSpaceOnUse" gradientTransform="translate(67.1576 58.0689) rotate(-25.1148) scale(117.603 10.0717)">
<stop stop-color="#D1D6FF"/>
<stop offset="0.04" stop-color="#75798F"/>
<stop offset="0.07" stop-color="#515463"/>
<stop offset="0.17" stop-color="#272930"/>
<stop offset="0.35" stop-color="#17181C"/>
<stop offset="0.52" stop-color="#101114"/>
<stop offset="0.75" stop-color="#070809"/>
<stop offset="1"/>
</radialGradient>
<radialGradient id="paint7_radial_0_478" cx="0" cy="0" r="1" gradientUnits="userSpaceOnUse" gradientTransform="translate(34.9878 14.2813) rotate(-1.54002) scale(65.4029 6.99525)">
<stop offset="0.11" stop-color="#D1D6FF"/>
<stop offset="0.2" stop-color="#A3A6C6"/>
<stop offset="0.32" stop-color="#6F7187"/>
<stop offset="0.47" stop-color="#444653"/>
<stop offset="0.67" stop-color="#1D1E24"/>
<stop offset="0.82" stop-color="#08080A"/>
<stop offset="1"/>
</radialGradient>
<radialGradient id="paint8_radial_0_478" cx="0" cy="0" r="1" gradientUnits="userSpaceOnUse" gradientTransform="translate(47.8524 1.99697) rotate(5.18854) scale(100.986 5.48673)">
<stop stop-color="#D1D6FF"/>
<stop offset="0.04" stop-color="#75798F"/>
<stop offset="0.07" stop-color="#515463"/>
<stop offset="0.17" stop-color="#272930"/>
<stop offset="0.35" stop-color="#17181C"/>
<stop offset="0.52" stop-color="#101114"/>
<stop offset="0.75" stop-color="#070809"/>
<stop offset="1"/>
</radialGradient>
<radialGradient id="paint9_radial_0_478" cx="0" cy="0" r="1" gradientUnits="userSpaceOnUse" gradientTransform="translate(48.6228 10.7061) rotate(-16.0139) scale(100.975 5.49017)">
<stop stop-color="#D1D6FF"/>
<stop offset="0.04" stop-color="#75798F"/>
<stop offset="0.07" stop-color="#515463"/>
<stop offset="0.17" stop-color="#272930"/>
<stop offset="0.35" stop-color="#17181C"/>
<stop offset="0.52" stop-color="#101114"/>
<stop offset="0.75" stop-color="#070809"/>
<stop offset="1"/>
</radialGradient>
</defs>
</svg>
